<svg width="1440" height="169" viewBox="0 0 1440 169" fill="none" xmlns="http://www.w3.org/2000/svg">
<path d="M1033.07 50.5691C994.797 55.3363 955.33 60.1034 914.368 60.1969C820.185 60.3838 745.436 36.4547 658.727 25.0509C542.718 9.81472 410.861 17.3861 286.778 24.0227C186.316 29.3507 78.3792 33.557 -17 24.49V149.558C86.4521 139.182 199.771 138.528 304.12 148.155C357.64 153.016 408.469 160.494 463.185 163.952C595.341 172.272 728.991 156.194 862.642 150.399C1055.49 141.986 1250.14 154.979 1440 169V0C1304.26 16.8252 1168.81 33.7439 1033.07 50.5691Z" fill="#C297EF"/>
</svg>
