<svg viewBox="0 0 414 37" fill="none" xmlns="http://www.w3.org/2000/svg">
<path d="M-332 36.5V13.6944C-270.452 17.0342 -208.268 6.07541 -146.811 7.01474C-128.837 7.30175 -112.315 8.78902 -96.9733 11.2417C-82.4486 13.5378 -69.2858 16.4341 -55.4874 19.0172C-29.7969 23.8443 -0.475145 26.7145 30.7528 27.6538C75.3253 29.0106 118.99 26.1665 156.118 19.513C178.45 15.5208 200.6 11.8157 225.383 8.99776C274.676 3.3879 328.598 0.361189 382.067 0.0219881C451.876 -0.421582 517.963 5.94495 584.867 10.1719C637.882 13.5117 694.528 15.2599 746 10.5372V36.5L-332 36.5Z" fill="#DFFF85"/>
</svg>
