<svg viewBox="0 0 24 25" fill="none" xmlns="http://www.w3.org/2000/svg">
    <path d="M9.17581 24.2137C10.1471 24.2137 10.9345 23.4263 10.9345 22.455C10.9345 21.4837 10.1471 20.6963 9.17581 20.6963C8.20451 20.6963 7.41711 21.4837 7.41711 22.455C7.41711 23.4263 8.20451 24.2137 9.17581 24.2137Z"
          fill="#414042"/>
    <path d="M18.7084 24.2137C19.6797 24.2137 20.4671 23.4263 20.4671 22.455C20.4671 21.4837 19.6797 20.6963 18.7084 20.6963C17.7371 20.6963 16.9497 21.4837 16.9497 22.455C16.9497 23.4263 17.7371 24.2137 18.7084 24.2137Z"
          fill="#414042"/>
    <path d="M23.7806 3.77227C23.6022 3.54287 23.3218 3.41543 23.0414 3.41543H6.3211L6.11719 2.06455C5.93878 0.866603 4.91924 0 3.72129 0H0.968556C0.433301 0 0 0.433301 0 0.968556C0 1.50381 0.433301 1.93711 0.968556 1.93711H3.6958C3.9252 1.93711 4.12911 2.11553 4.18008 2.34492L6.37208 16.8733C6.60147 18.3516 7.82491 19.3966 9.30323 19.3966H19.8299C20.3652 19.3966 20.7985 18.9633 20.7985 18.428C20.7985 17.8928 20.3652 17.4595 19.8299 17.4595H9.32872C8.81895 17.4595 8.38565 17.0772 8.30919 16.5674L8.07979 15.1146H21.0533C21.5121 15.1146 21.9199 14.7832 21.9964 14.3499L23.9845 4.58789C24.0355 4.30752 23.959 4.00166 23.7806 3.77227ZM21.2572 8.30919H17.9438L18.0967 5.35254H21.8435L21.2572 8.30919ZM12.4893 8.30919L12.3363 5.35254H16.1596L16.0067 8.30919H12.4893ZM15.9047 10.2463L15.7518 13.2029H12.7187L12.5657 10.2463H15.9047ZM10.3992 5.35254L10.5522 8.30919H7.06026L6.60147 5.35254H10.3992ZM7.34063 10.2463H10.6286L10.7816 13.2029H7.79942L7.34063 10.2463ZM17.6889 13.2029L17.8418 10.2463H20.8494L20.2632 13.2029H17.6889Z"
          fill="#414042"/>
</svg>
