<svg viewBox="0 0 196 194" fill="none" xmlns="http://www.w3.org/2000/svg">
<path d="M122.971 15.279L127.108 16.2298C125.809 18.1809 123.968 19.7179 121.806 20.6475C119.432 21.6679 116.794 21.9031 114.277 21.3189L114.275 21.3185C111.368 20.6553 109.25 19.0473 108.113 16.9611C106.976 14.8765 106.791 12.2658 107.839 9.54072C108.901 6.86864 110.885 4.66594 113.433 3.33276C115.981 1.99918 118.923 1.62425 121.724 2.27606L121.726 2.27633C124.341 2.87813 126.324 4.24087 127.529 6.02451C128.648 7.68149 129.114 9.72834 128.769 11.9288L124.562 10.964C124.168 8.97273 122.37 7.38154 119.837 6.79821L119.836 6.79805C116.369 6.00519 112.855 7.41661 111.752 10.3223C111.198 11.7792 111.409 13.2242 112.229 14.3997C113.039 15.5621 114.417 16.4278 116.158 16.8275C117.377 17.1436 118.655 17.1523 119.878 16.8526C121.017 16.5732 122.076 16.0342 122.971 15.279Z" stroke="#2C148E"/>
<path d="M131.735 18.3056L131.735 18.3051L139.02 8.59206L142.379 10.4435L135.252 19.9769C134.652 20.7568 134.6 21.6911 134.981 22.5535C135.355 23.3985 136.133 24.1661 137.189 24.737C138.246 25.3084 139.359 25.5756 140.36 25.5206C141.36 25.4655 142.28 25.0833 142.869 24.3215L142.869 24.3216L142.873 24.315L150.086 14.6592L153.451 16.5104L146.246 26.1153C144.856 27.9056 142.869 29.1375 140.647 29.5869C138.424 30.0366 136.113 29.6729 134.136 28.5621L134.136 28.562L134.128 28.5581C132.044 27.4319 130.777 25.7665 130.358 23.9581C129.939 22.1512 130.352 20.1449 131.735 18.3056Z" stroke="#2C148E"/>
<path d="M159.284 39.0432L158.792 38.8766L158.644 39.3739L156.754 45.7147L153.319 42.4673L155.086 36.6157L155.175 36.3205L154.951 36.1084L152.605 33.8826L152.289 33.5834L151.949 33.8541L147.757 37.1916L144.971 34.5521L160.395 22.3228L167.023 28.6133C167.023 28.6133 167.023 28.6133 167.023 28.6133C168.518 30.0319 169.221 31.7213 169.187 33.3419C169.153 34.9579 168.386 36.5598 166.834 37.8132C165.773 38.6194 164.531 39.1532 163.216 39.368C161.898 39.5832 160.548 39.4717 159.284 39.0432ZM156.462 30.2825L156.005 30.6371L156.422 31.0378L159.765 34.2521L159.767 34.2539C160.465 34.9187 161.174 35.3812 161.863 35.566C162.576 35.7569 163.266 35.6468 163.836 35.1779C164.11 34.9529 164.316 34.68 164.424 34.3582C164.532 34.0354 164.531 33.6988 164.446 33.3664C164.282 32.7217 163.799 32.0654 163.116 31.416L163.115 31.4153L159.772 28.2493L159.461 27.9542L159.122 28.2173L156.462 30.2825Z" stroke="#2C148E"/>
<path d="M168.541 59.2926L168.831 59.0152L168.623 58.6719L163.922 50.9174L163.762 50.6533L163.454 50.6782L160.781 50.8944L158.508 47.1493L180.263 45.3759L183.454 50.6415L168.976 64.4008L166.855 60.9035L168.541 59.2926ZM172.019 55.1721L172.341 55.7044L172.791 55.2752L177.203 51.0726L177.494 50.7954L177.286 50.4516L176.916 49.8409L176.756 49.5764L176.448 49.6015L169.818 50.1398L169.012 50.2052L169.431 50.897L172.019 55.1721Z" stroke="#2C148E"/>
<path d="M188.012 60.1438L193.052 75.2577L188.373 76.1194L186.597 70.7786L186.46 70.366L186.033 70.4445L171.747 73.0661L170.547 69.4597L184.687 66.8558L185.252 66.7517L185.07 66.2063L183.339 60.9987L188.012 60.1438Z" stroke="#2C148E"/>
<path d="M189.755 87.1893L189.717 86.7554L189.282 86.7333L187.539 86.645L186.966 86.6159L187.015 87.1871L187.77 95.9769L183.201 95.7399L182.435 86.8123L182.398 86.3802L181.965 86.3558L180.108 86.2514L179.532 86.2189L179.582 86.7939L180.441 96.668L175.695 96.4228L174.449 82.1615L194.132 83.2011L195.363 97.3341L190.617 97.0823L189.755 87.1893Z" stroke="#2C148E"/>
<path d="M174.691 107.502L174.691 107.499L175.925 99.9425L194.737 105.79L193.489 113.483C193.489 113.484 193.489 113.484 193.489 113.485C193.01 116.34 191.593 118.488 189.66 119.72C187.729 120.952 185.235 121.302 182.537 120.474C179.892 119.612 177.644 117.829 176.203 115.448C174.762 113.067 174.225 110.246 174.691 107.502ZM189.509 108.608L189.579 108.179L189.164 108.05L180.397 105.326L179.848 105.155L179.755 105.723L179.233 108.936C179.233 108.936 179.233 108.937 179.233 108.937C178.676 112.313 180.238 115.639 183.038 116.533C184.452 116.985 185.821 116.67 186.893 115.794C187.955 114.927 188.706 113.531 188.987 111.831L188.994 111.791V111.782L189.509 108.608Z" stroke="#2C148E"/>
<path d="M169.981 138.417L169.982 138.415L172.288 134.285L172.5 133.905L172.153 133.642L167.88 130.409L169.75 127.057L185.45 138.966L180.994 146.943L180.993 146.945C180 148.737 178.539 149.832 176.959 150.198C175.382 150.563 173.635 150.215 172.036 149.025C170.492 147.79 169.436 146.045 169.059 144.103C168.681 142.158 169.008 140.142 169.981 138.417ZM177.773 143.087H177.749L179.577 139.813L179.788 139.434L179.442 139.171L176.742 137.122L176.284 136.774L176.003 137.277L173.762 141.294C173.762 141.294 173.762 141.294 173.762 141.294C173.29 142.136 173.019 142.937 173.017 143.653C173.014 144.394 173.303 145.032 173.904 145.47C174.192 145.68 174.507 145.813 174.846 145.837C175.187 145.862 175.511 145.773 175.808 145.606C176.381 145.282 176.886 144.648 177.349 143.834L177.773 143.087Z" stroke="#2C148E"/>
<path d="M172.965 158.174L170.521 161.139L157.198 146.615L159.641 143.65L172.965 158.174Z" stroke="#2C148E"/>
<path d="M155.147 169.433C153.123 171.073 150.76 171.497 148.952 170.585L145.608 173.26C147.14 174.888 149.038 175.782 151.028 175.923C153.172 176.075 155.46 175.356 157.547 173.67L157.549 173.668C159.797 171.867 161.323 169.318 161.848 166.486C162.373 163.654 161.863 160.728 160.412 158.24C158.928 155.727 156.77 154.265 154.432 153.882C152.092 153.498 149.515 154.186 147.185 156.085L147.182 156.086L147.182 156.086C145.169 157.708 143.726 159.93 143.063 162.429C142.46 164.704 142.534 167.102 143.267 169.329L146.542 166.663M155.147 169.433C155.147 169.433 155.147 169.433 155.146 169.433L154.832 169.044L155.147 169.433C155.147 169.433 155.147 169.433 155.147 169.433ZM155.147 169.433C157.913 167.198 158.971 163.559 157.382 160.912C156.585 159.583 155.317 158.859 153.885 158.778C152.469 158.697 150.933 159.244 149.542 160.366M149.542 160.366C148.541 161.125 147.744 162.121 147.223 163.264C146.736 164.331 146.504 165.494 146.542 166.663M149.542 160.366C149.544 160.364 149.546 160.362 149.548 160.361L149.85 160.759L149.536 160.371C149.538 160.369 149.54 160.367 149.542 160.366ZM146.542 166.663L146.738 166.503L147.054 166.891L146.555 166.924C146.549 166.837 146.545 166.75 146.542 166.663Z" stroke="#2C148E"/>
<path d="M130.024 179.05L130.17 178.685L129.85 178.457L120.075 171.486L124.536 169.596L131.598 174.462L132.044 174.769L132.315 174.301L134.275 170.918L134.38 170.738L134.326 170.537L133.097 165.976L136.634 164.481L141.709 183.523L138.18 185.018L136.463 178.574L136.315 178.017L135.784 178.243L135.069 178.549L134.879 178.63L134.802 178.821L131.079 188.023L125.473 190.391L130.024 179.05Z" stroke="#2C148E"/>
<path d="M119.515 177.398L115.452 178.059C115.364 177.906 115.242 177.774 115.103 177.664C114.824 177.444 114.454 177.295 114.046 177.199C113.227 177.006 112.121 176.994 110.88 177.189L110.879 177.189C109.861 177.351 108.925 177.623 108.229 177.958C107.883 178.125 107.574 178.318 107.343 178.537C107.118 178.751 106.91 179.046 106.906 179.413H106.905V179.418C106.905 179.944 107.296 180.237 107.648 180.384C108.002 180.532 108.469 180.608 108.97 180.65C109.872 180.726 111.055 180.704 112.289 180.682C112.44 180.679 112.59 180.676 112.742 180.674L112.744 180.674C114.337 180.639 115.989 180.946 117.23 181.714C118.445 182.465 119.291 183.668 119.313 185.532C119.357 189.289 116.08 192.408 111.506 193.132L111.503 193.132C109.142 193.519 107.137 193.124 105.731 192.227C104.453 191.411 103.644 190.168 103.488 188.638L107.557 187.974C107.641 188.101 107.751 188.209 107.873 188.297C108.134 188.486 108.476 188.606 108.845 188.68C109.588 188.828 110.592 188.817 111.726 188.639L111.727 188.639C112.712 188.482 113.578 188.236 114.209 187.926C114.522 187.772 114.803 187.589 115.009 187.372C115.213 187.157 115.378 186.868 115.363 186.522C115.357 186.243 115.217 186.026 115.049 185.879C114.888 185.737 114.686 185.642 114.491 185.575C114.098 185.438 113.588 185.363 113.064 185.319C112.008 185.23 110.747 185.259 109.914 185.283L109.912 185.283C108.153 185.342 106.414 185.102 105.126 184.383C103.875 183.685 103.017 182.522 102.988 180.6C102.928 176.722 106.374 173.396 111.121 172.648C113.592 172.28 115.695 172.684 117.17 173.614C118.517 174.462 119.366 175.762 119.515 177.398Z" stroke="#2C148E"/>
<path d="M75.1527 178.774L70.9943 177.941C72.2374 175.955 74.0334 174.367 76.1685 173.378C78.5121 172.292 81.1415 171.984 83.6725 172.499L83.6748 172.5C86.6264 173.086 88.7993 174.638 89.9969 176.692C91.1935 178.744 91.4453 181.346 90.4617 184.094C89.4764 186.801 87.5505 189.064 85.0355 190.468C82.5202 191.873 79.5834 192.327 76.7614 191.746L76.7591 191.745C74.1281 191.217 72.1091 189.911 70.8553 188.162C69.6907 186.538 69.1669 184.505 69.4489 182.294L73.6823 183.144C74.1289 185.124 75.9752 186.662 78.523 187.173L78.523 187.173C82.016 187.873 85.4869 186.348 86.5097 183.45C87.0241 181.993 86.77 180.554 85.9183 179.4C85.0755 178.258 83.6722 177.423 81.9173 177.073C80.6942 176.788 79.4193 176.809 78.2064 177.135C77.0749 177.44 76.0301 178.001 75.1527 178.774Z" stroke="#2C148E"/>
<path d="M66.3529 176.003L66.3518 176.004L59.3703 185.91L55.9622 184.155L62.8598 174.422C63.4362 173.626 63.4612 172.693 63.0585 171.837C62.6642 170.999 61.8689 170.24 60.7998 169.672C58.6857 168.547 56.2579 168.684 55.13 170.237L55.13 170.237L55.1267 170.242L48.1455 180.093L44.7348 178.337L51.6335 168.541C52.9747 166.713 54.927 165.427 57.1359 164.916C59.3463 164.404 61.6668 164.703 63.6753 165.758L63.6762 165.759C65.7743 166.856 67.0886 168.501 67.5626 170.307C68.0358 172.11 67.6857 174.127 66.3529 176.003Z" stroke="#2C148E"/>
<path d="M38.2464 156.046L38.7426 156.2L38.8774 155.698L40.5948 149.301L44.115 152.464L42.5085 158.362L42.4276 158.659L42.6564 158.865L45.0671 161.035L45.3911 161.326L45.7241 161.045L49.8204 157.588L52.6737 160.13L37.5942 172.825L30.7917 166.69C30.7914 166.689 30.7912 166.689 30.791 166.689C29.274 165.308 28.5229 163.628 28.5083 162.001C28.4937 160.378 29.2099 158.758 30.7249 157.481C31.7642 156.644 32.9932 156.076 34.3039 155.825C35.6162 155.574 36.9702 155.65 38.2464 156.046ZM41.3165 164.793L41.7642 164.423L41.3319 164.036L37.9014 160.958C37.9013 160.958 37.9012 160.958 37.9011 160.958C37.1816 160.31 36.461 159.869 35.7656 159.706C35.0469 159.537 34.3637 159.67 33.8039 160.145C33.5317 160.376 33.3309 160.655 33.2305 160.981C33.1301 161.307 33.1415 161.643 33.2345 161.972C33.415 162.61 33.9107 163.252 34.5936 163.877L34.5936 163.877L34.5972 163.88L38.0285 166.958L38.3489 167.245L38.6808 166.971L41.3165 164.793Z" stroke="#2C148E"/>
<path d="M28.445 136.059L28.1622 136.344L28.3796 136.682L33.2894 144.308L33.4565 144.567L33.7634 144.534L36.4381 144.246L38.8133 147.927L17.1198 150.297L13.7848 145.125L27.8727 130.961L30.0906 134.4L28.445 136.059ZM25.0817 140.262L24.7446 139.74L24.3068 140.181L20.0157 144.505L19.7317 144.791L19.9511 145.129L20.3368 145.724L20.5044 145.982L20.8106 145.948L27.424 145.225L28.2289 145.137L27.7898 144.457L25.0817 140.262Z" stroke="#2C148E"/>
<path d="M8.95109 135.743L3.50302 120.774L8.1478 119.794L10.0726 125.083L10.2213 125.492L10.6467 125.401L24.8464 122.374L26.1481 125.949L12.0778 128.939L11.5152 129.059L11.7119 129.599L13.5885 134.756L8.95109 135.743Z" stroke="#2C148E"/>
<path d="M6.46225 108.754L6.51369 109.196H6.9589H8.70264H9.26366L9.19934 108.639L8.18851 99.8805L12.7635 99.9925L13.7827 108.89L13.8319 109.319L14.2644 109.332L16.1286 109.389L16.7063 109.406L16.6405 108.832L15.5086 98.9568L20.2608 99.0761L21.8975 113.341L2.18273 112.867L0.562411 98.772L5.31509 98.8913L6.46225 108.754Z" stroke="#2C148E"/>
<path d="M20.96 88.0233L20.9597 88.0258L19.9358 95.6113L0.963194 90.2605L2.00605 82.5266C2.39111 79.6772 3.74643 77.5016 5.64819 76.2196C7.54789 74.9391 10.0387 74.5192 12.7597 75.2663C15.4262 76.059 17.7201 77.7817 19.2249 80.1215C20.7306 82.4628 21.3463 85.2666 20.96 88.0233ZM6.54471 84.0964L6.54362 84.0963L6.10971 87.3106L6.05157 87.7413L6.47 87.8589L15.3093 90.3419L15.863 90.4974L15.94 89.9274L16.3739 86.7131C16.8296 83.3374 15.1797 80.0451 12.3622 79.2233C10.9368 78.8076 9.57716 79.1621 8.52872 80.0709C7.49256 80.9689 6.77946 82.3871 6.54471 84.0964Z" stroke="#2C148E"/>
<path d="M13.5322 48.7904C13.5323 48.7901 13.5325 48.7898 13.5326 48.7896C14.5007 46.9564 15.9394 45.8164 17.5097 45.4055C19.0756 44.9958 20.8253 45.2969 22.4544 46.4458C24.0375 47.6385 25.1442 49.3561 25.5758 51.2908C26.0079 53.2279 25.7351 55.2556 24.8062 57.0096L24.8048 57.0122L22.6191 61.1988L22.4179 61.5841L22.7715 61.8369L27.127 64.9511L25.3519 68.3551L9.29897 56.8887L13.5322 48.7904ZM17.3099 51.7765L17.3098 51.7765L17.3078 51.7804L15.1703 55.8625L14.9687 56.2475L15.3218 56.5008L18.0781 58.4775L18.5456 58.8128L18.8124 58.3031L20.9488 54.2232C20.9489 54.2229 20.9491 54.2225 20.9493 54.2221C21.3986 53.3742 21.6365 52.5667 21.6185 51.8511C21.6002 51.1178 21.31 50.4837 20.7305 50.0583C20.4459 49.8494 20.1294 49.7226 19.7895 49.7071C19.4502 49.6916 19.1277 49.7888 18.8331 49.9622C18.261 50.2989 17.7552 50.9441 17.3099 51.7765Z" stroke="#2C148E"/>
<path d="M34.994 51.4841L21.273 37.335L23.6264 34.3074L37.3475 48.4564L34.994 51.4841Z" stroke="#2C148E"/>
<path d="M47.4222 28.16L50.6501 25.3914C51.445 27.597 51.585 29.9912 51.0449 32.2828C50.4521 34.7985 49.0709 37.0588 47.1029 38.7341L47.1005 38.7361C44.8419 40.6826 42.2844 41.4303 39.9245 41.1056C37.5663 40.781 35.3519 39.3785 33.7878 36.9202C32.2693 34.4728 31.68 31.5616 32.1273 28.7163C32.5748 25.8701 34.0297 23.2793 36.2272 21.4158L36.2272 21.4159L36.2289 21.4143C38.2655 19.6709 40.539 18.8884 42.6893 18.9817C44.687 19.0684 46.6107 19.912 48.1754 21.5002L44.9016 24.2987C43.0858 23.434 40.7073 23.9375 38.7364 25.6291C36.0384 27.9393 35.0826 31.6311 36.7369 34.2024C37.5673 35.4932 38.8554 36.1782 40.2871 36.2246C41.705 36.2705 43.2284 35.6917 44.5874 34.5344C45.5678 33.7484 46.3382 32.7316 46.8296 31.575C47.2879 30.4964 47.4902 29.3276 47.4222 28.16Z" stroke="#2C148E"/>
<path d="M63.624 15.2758L63.4867 15.6457L63.8145 15.8652L73.8069 22.5592L69.406 24.5719L62.2115 19.9001L61.7588 19.6061L61.5003 20.0799L59.628 23.5112L59.5282 23.6941L59.5878 23.8938L60.9416 28.4263L57.4497 30.0164L51.8464 11.1272L55.3316 9.53099L57.225 15.9213L57.3882 16.4721L57.9113 16.2344L58.6184 15.9131L58.8076 15.8271L58.8801 15.6323L62.3434 6.3285L67.8821 3.80381L63.624 15.2758Z" stroke="#2C148E"/>
<path d="M74.166 16.6382L78.2006 15.8854C78.2915 16.0364 78.4155 16.1653 78.5567 16.2709C78.8419 16.4841 79.218 16.6219 79.6291 16.7052C80.456 16.8728 81.5675 16.8486 82.805 16.608C83.8186 16.4208 84.7453 16.1229 85.4313 15.7684C85.773 15.5919 86.0767 15.3903 86.3015 15.1641C86.5198 14.9446 86.7195 14.6441 86.7153 14.2788L86.7151 14.2683L86.7146 14.2579C86.6871 13.7443 86.297 13.4619 85.9411 13.3187C85.5814 13.1739 85.1135 13.1041 84.6092 13.0715C83.5918 13.0057 82.2366 13.0829 80.8416 13.1828C79.2505 13.2594 77.5908 12.9974 76.3281 12.2651C75.0915 11.5479 74.2122 10.3705 74.139 8.51144C73.9914 4.76205 77.1678 1.54559 81.7666 0.689643L81.7666 0.68964C84.1127 0.252881 86.1267 0.59609 87.5585 1.45367C88.8579 2.23195 89.701 3.44452 89.903 4.95695L85.8402 5.71498C85.7497 5.58783 85.6337 5.48134 85.5062 5.39549C85.2384 5.21515 84.8946 5.10457 84.524 5.04095C83.7781 4.91288 82.7819 4.95155 81.6627 5.16295L81.6618 5.16311C80.6851 5.34935 79.8316 5.6185 79.2085 5.93887C78.8983 6.0984 78.623 6.28188 78.4184 6.49218C78.2165 6.69971 78.0412 6.97884 78.0412 7.31771V7.32928L78.0417 7.34083C78.0549 7.6252 78.2044 7.83963 78.3781 7.98363C78.5428 8.12021 78.7465 8.21043 78.9441 8.27425C79.3413 8.4026 79.8536 8.46748 80.3787 8.49885C81.4372 8.5621 82.6911 8.496 83.5346 8.4272C85.2815 8.32206 87.0248 8.52436 88.3332 9.21177C89.6065 9.88075 90.4968 11.0199 90.5773 12.9157C90.7401 16.7481 87.3911 20.2106 82.6677 21.0977L82.6665 21.0979C80.2209 21.563 78.1126 21.2296 76.6143 20.3467C75.2475 19.5414 74.3615 18.2662 74.166 16.6382Z" stroke="#2C148E"/>
</svg>
