<svg viewBox="0 0 105 82" fill="none" xmlns="http://www.w3.org/2000/svg">
<path d="M16.1141 20.0605L48.6889 7.90862C51.3826 6.9064 54.2811 6.60309 57.1201 7.02631C59.9591 7.44952 62.6485 8.5858 64.9433 10.3317L92.6798 31.4741C103.55 39.7558 101.054 56.9478 88.2906 61.7065L55.7209 73.8545C53.0278 74.8605 50.1286 75.1658 47.2889 74.7425C44.4492 74.3191 41.7596 73.1807 39.4665 71.4314L11.725 50.2928C0.872604 42.0138 3.36858 24.8218 16.1141 20.0605Z" fill="#DFFF85"/>
<path d="M38.9578 27.9394C38.7313 28.551 38.3581 29.096 37.8721 29.5251C37.7387 29.6412 37.5923 29.7408 37.4357 29.8217C36.8623 30.1156 36.2309 30.275 35.5884 30.288C35.1551 30.2873 34.7225 30.2569 34.2933 30.1969C33.7201 30.1115 33.147 30.026 32.5783 29.9413C32.3505 29.9149 32.1419 29.7994 31.9971 29.6193C31.8523 29.4392 31.7827 29.2088 31.8033 28.9774C31.8171 28.8821 31.8309 28.7868 31.8448 28.6916L32.2466 25.641C32.3961 24.611 32.5456 23.5811 32.6459 22.5437C32.6562 22.3987 32.7005 22.2582 32.775 22.1339C32.8496 22.0096 32.9522 21.905 33.0744 21.8288C33.2319 21.713 33.4278 21.6641 33.6204 21.6924C34.2562 21.7871 34.8922 21.8495 35.5235 21.9761C35.9965 22.0355 36.462 22.1453 36.9123 22.3036C37.7281 22.5844 38.4108 23.164 38.8264 23.9286C39.131 24.5253 39.2982 25.1842 39.3153 25.8557C39.3439 26.5682 39.222 27.2786 38.9578 27.9394V27.9394ZM37.1643 26.0821C37.2186 25.6585 37.1317 25.2286 36.9174 24.8607C36.7031 24.4929 36.3737 24.2081 35.9815 24.0515C35.8396 23.9728 35.6795 23.9341 35.5179 23.9393C35.3562 23.9446 35.1988 23.9936 35.0622 24.0814C35.0085 24.1172 34.9505 24.1459 34.8896 24.1669C34.8148 24.1966 34.7478 24.2434 34.6938 24.3037C34.6398 24.364 34.6004 24.4362 34.5785 24.5145C34.5387 24.6372 34.5096 24.7631 34.4918 24.891C34.3791 25.6669 34.2672 26.4382 34.1821 27.2136C34.1748 27.2635 34.1682 27.3089 34.161 27.3588C34.1502 27.5701 34.2119 27.7786 34.3355 27.9491C34.4592 28.1196 34.6372 28.2416 34.8395 28.2943L35.2076 28.4048L35.7048 28.2889C36.0069 28.2393 36.2836 28.0878 36.4901 27.859C36.6796 27.6395 36.8318 27.3896 36.9405 27.1195C37.0573 26.7813 37.1329 26.4298 37.1656 26.073L37.1643 26.0821Z" fill="#2C148E"/>
<path d="M46.5516 26.6469C46.4719 27.1959 46.3922 27.7449 46.34 28.2934C46.292 28.7302 46.1989 29.1607 46.0621 29.5778C46.0018 29.7463 45.9261 29.9089 45.836 30.0632C45.5264 30.6575 45.0021 31.1075 44.3727 31.3192C43.8586 31.5113 43.3065 31.5752 42.7628 31.5057C42.3131 31.4623 41.8772 31.3247 41.4827 31.1015C41.0883 30.8783 40.744 30.5744 40.4716 30.2092C40.2296 29.8609 40.076 29.4574 40.0245 29.0346C39.9656 28.5176 39.9708 27.9951 40.0399 27.4794C40.1773 26.2807 40.3416 25.0861 40.5008 23.8953C40.5324 23.6862 40.5867 23.4814 40.6627 23.2844C40.7174 23.1305 40.8194 22.9984 40.9536 22.9074C41.0878 22.8165 41.2472 22.7715 41.4085 22.779C41.601 22.7962 41.7924 22.8248 41.9817 22.8645C42.1988 22.8892 42.3978 22.9989 42.5361 23.1703C42.6745 23.3416 42.7413 23.5609 42.7223 23.7815C42.7012 23.9267 42.6801 24.0719 42.6564 24.2352C42.4858 25.4104 42.3465 26.5902 42.1938 27.768C42.1682 27.945 42.1425 28.122 42.1168 28.2989C42.0933 28.486 42.1137 28.676 42.1761 28.8536C42.2385 29.0312 42.3412 29.1914 42.4761 29.3213C42.5797 29.4363 42.7146 29.5178 42.8637 29.5556C43.0127 29.5935 43.1695 29.5861 43.3144 29.5344C43.4612 29.4952 43.5964 29.4207 43.7086 29.3172C43.8208 29.2136 43.9067 29.0841 43.9588 28.9397C44.0813 28.6559 44.1648 28.3564 44.207 28.0496C44.3803 26.8563 44.5221 25.6583 44.6774 24.4623C44.7005 24.3035 44.7242 24.1401 44.7473 23.9813C44.7691 23.7942 44.8606 23.6226 45.0032 23.5017C45.1458 23.3808 45.3287 23.3196 45.5143 23.3308C45.7726 23.3439 46.029 23.3821 46.28 23.445C46.4557 23.4791 46.6124 23.5787 46.7191 23.7242C46.8259 23.8697 46.875 24.0505 46.8567 24.2309C46.8237 24.4577 46.7908 24.6846 46.7585 24.907C46.6742 25.4877 46.5899 26.0685 46.5056 26.6493L46.5516 26.6469Z" fill="#2C148E"/>
<path d="M54.0294 32.2349C54.0265 32.3173 54.0056 32.398 53.9683 32.4712C53.931 32.5445 53.8782 32.6085 53.8137 32.6587C53.7491 32.7088 53.6744 32.7439 53.5949 32.7614C53.5154 32.779 53.4332 32.7785 53.3539 32.76C53.1031 32.7226 52.8479 32.6846 52.5927 32.6465C52.4397 32.6331 52.2933 32.5773 52.1695 32.4853C52.0457 32.3933 51.9493 32.2685 51.8908 32.1247C51.6701 31.6283 51.4448 31.1311 51.2246 30.6626C50.875 29.9197 50.5626 29.1732 50.2206 28.4408C50.1371 28.2842 50.0353 28.1384 49.9177 28.0063C49.8983 27.9916 49.8763 27.9811 49.8528 27.9755C49.8293 27.9698 49.8048 27.9691 49.781 27.9734C49.7573 27.9776 49.7346 27.9868 49.7145 28.0003C49.6943 28.0138 49.6772 28.0314 49.664 28.0519C49.6219 28.1372 49.5904 28.2275 49.5701 28.3206C49.5101 28.6081 49.4678 28.8991 49.4436 29.1918C49.4248 29.416 49.3924 29.6387 49.3468 29.8588C49.2763 30.3443 49.2065 30.8253 49.136 31.3108C49.1268 31.3743 49.1176 31.4378 49.1083 31.5013C49.1085 31.5873 49.0901 31.6723 49.0545 31.7504C49.019 31.8285 48.967 31.8978 48.9023 31.9534C48.8376 32.0091 48.7617 32.0498 48.6799 32.0727C48.5981 32.0956 48.5124 32.1002 48.4287 32.0861C48.1242 32.0407 47.8242 31.996 47.5332 31.9526C47.4545 31.9384 47.3795 31.9083 47.3127 31.8641C47.2401 31.8277 47.1799 31.7702 47.1397 31.699C47.0996 31.6278 47.0812 31.5461 47.0871 31.4642C47.1108 31.3009 47.1338 31.1421 47.1575 30.9787C47.3117 29.917 47.4345 28.8506 47.5695 27.7953C47.7057 26.7309 47.8444 25.6699 47.9858 24.6124C47.9978 24.4507 48.0211 24.2899 48.0556 24.1315C48.0722 24.0157 48.1319 23.9107 48.2224 23.838C48.3129 23.7653 48.4274 23.7305 48.5425 23.7405C48.8952 23.7653 49.2454 23.8175 49.5902 23.8967C49.7155 23.9324 49.8307 23.9979 49.9259 24.0879C50.021 24.178 50.0935 24.2898 50.1373 24.414C50.2825 24.737 50.422 25.0683 50.5653 25.4049L51.8146 28.2056C51.8738 28.3389 51.9476 28.4649 52.0346 28.5814C52.0596 28.6135 52.0928 28.638 52.1305 28.6524C52.1683 28.6668 52.2093 28.6704 52.2489 28.663C52.2886 28.6556 52.3255 28.6373 52.3557 28.6102C52.3859 28.5831 52.4082 28.5481 52.4203 28.5091C52.4591 28.3515 52.4825 28.1904 52.4901 28.0281C52.595 27.1167 52.6908 26.2038 52.8003 25.2606C52.8238 25.0994 52.8607 24.9406 52.9105 24.7857C52.9427 24.6732 53.0103 24.5745 53.1031 24.5046C53.1958 24.4348 53.3086 24.3976 53.4241 24.3987C53.7734 24.4507 54.1273 24.4711 54.472 24.5549C54.5905 24.5808 54.6966 24.6472 54.7726 24.7429C54.8486 24.8386 54.8899 24.9578 54.8896 25.0807C54.8931 25.2113 54.8848 25.342 54.865 25.4711C54.6112 27.408 54.356 29.3446 54.0992 31.2811C54.096 31.5866 54.0807 31.9134 54.0294 32.2349Z" fill="#2C148E"/>
<path d="M62.4657 31.1006C62.2374 31.7123 61.8629 32.257 61.3756 32.6857C61.2432 32.803 61.0964 32.9026 60.9391 32.9822C60.366 33.2771 59.7345 33.4365 59.0919 33.4485C58.6586 33.448 58.2258 33.4176 57.7967 33.3575C57.228 33.2727 56.6549 33.1873 56.0818 33.1018C55.8567 33.0691 55.6521 32.9518 55.5085 32.7732C55.3649 32.5947 55.2929 32.3679 55.3067 32.138C55.3206 32.0427 55.3344 31.9474 55.3482 31.8521L55.7499 28.8015C55.8995 27.7716 56.0491 26.7416 56.1493 25.7043C56.1597 25.5581 56.2044 25.4165 56.2799 25.2914C56.3553 25.1664 56.4593 25.0615 56.583 24.9855C56.6601 24.9284 56.7475 24.8872 56.8403 24.8645C56.9331 24.8417 57.0295 24.8378 57.1238 24.8529C57.7596 24.9477 58.4001 25.0107 59.0313 25.1373C59.5043 25.1967 59.9698 25.3065 60.4202 25.4648C61.2341 25.7464 61.9152 26.3256 62.3299 27.0892C62.6338 27.6866 62.8023 28.3451 62.8232 29.0169C62.8472 29.729 62.7254 30.4385 62.4657 31.1006V31.1006ZM60.6678 29.2426C60.7238 28.8195 60.6382 28.3895 60.4246 28.0215C60.2109 27.6534 59.8816 27.3687 59.4893 27.2127C59.3475 27.134 59.1874 27.0953 59.0257 27.1005C58.864 27.1058 58.7067 27.1548 58.5701 27.2426C58.517 27.2795 58.4589 27.3083 58.3976 27.3281C58.3228 27.3578 58.2557 27.4046 58.2017 27.4649C58.1477 27.5252 58.1082 27.5974 58.0864 27.6757C58.0465 27.7984 58.0175 27.9244 57.9996 28.0522L57.6899 30.3748C57.6827 30.4247 57.6761 30.4701 57.6688 30.52C57.6581 30.7313 57.7198 30.9399 57.8435 31.1104C57.9671 31.2809 58.1451 31.4028 58.3473 31.4555L58.7201 31.5667C58.9091 31.5253 59.0571 31.4825 59.1949 31.4474C59.4982 31.4018 59.7761 31.2497 59.98 31.0175C60.1709 30.7984 60.3247 30.5488 60.4349 30.2787C60.5514 29.9435 60.6296 29.5959 60.6678 29.2426V29.2426Z" fill="#2C148E"/>
<path d="M69.5638 34.8612C69.1508 34.9431 68.7225 34.8793 68.3503 34.6803C68.2602 34.612 68.1841 34.5266 68.1261 34.429L67.7128 33.9039C67.6147 33.7654 67.4892 33.6492 67.3441 33.5629C67.1991 33.4766 67.0377 33.4221 66.8706 33.4028L66.3467 33.3247C66.2339 33.3149 66.1217 33.2982 66.0109 33.2747C65.7414 33.224 65.4635 33.2455 65.2047 33.337C64.9459 33.4285 64.7151 33.5868 64.5352 33.7964C64.4881 33.842 64.4468 33.8935 64.4124 33.9496C64.3644 34.0341 64.2911 34.1008 64.2031 34.1402C64.1151 34.1796 64.017 34.1896 63.9231 34.1687C63.6499 34.128 63.3766 34.1197 63.1126 34.0479C63.0048 34.0326 62.9023 33.991 62.8138 33.9269C62.7254 33.8627 62.6535 33.7778 62.6044 33.6794C62.5553 33.581 62.5304 33.472 62.5319 33.3618C62.5334 33.2515 62.5613 33.1433 62.613 33.0463C62.8073 32.6534 63.0264 32.2782 63.238 31.8925C63.6333 31.1866 64.0157 30.4741 64.4271 29.752C64.9924 28.7886 65.4982 27.7932 66.0674 26.8351C66.1555 26.6723 66.2778 26.5312 66.4257 26.4217C66.5736 26.3123 66.7435 26.2371 66.9233 26.2015C67.1031 26.1659 67.2883 26.1709 67.466 26.2159C67.6437 26.261 67.8093 26.3451 67.9514 26.4623C68.1404 26.6094 68.2719 26.8195 68.3227 27.0554C68.4756 27.704 68.6523 28.3468 68.8161 28.9831L69.9123 33.3742C69.9621 33.567 70.0132 33.7508 70.054 33.9423C70.0943 34.0345 70.1132 34.1348 70.1092 34.2356C70.1053 34.3364 70.0787 34.4349 70.0313 34.5236C69.984 34.6123 69.9173 34.6889 69.8362 34.7474C69.7552 34.8059 69.662 34.8449 69.5638 34.8612V34.8612ZM67.0237 30.1112C66.883 29.9141 66.6879 29.8711 66.54 30.0391C66.3603 30.2228 66.2272 30.448 66.1521 30.6952C65.9831 30.8508 65.7978 31.055 65.8963 31.2272C66.0468 31.4078 66.2588 31.5244 66.4902 31.5537C66.7217 31.5831 66.9554 31.5231 67.1451 31.3856C67.2482 31.1839 67.2916 30.9563 67.2701 30.7302C67.2485 30.5042 67.1629 30.2892 67.0237 30.1112Z" fill="#2C148E"/>
<path d="M75.7122 34.9248C75.3705 35.2753 74.9244 35.502 74.4428 35.57C73.5999 35.7293 72.7285 35.5994 71.9666 35.2008C71.6105 35.0257 71.3048 34.7608 71.0786 34.4317C70.8525 34.1025 70.7135 33.7201 70.675 33.321C70.6554 33.2043 70.6631 33.0847 70.6974 32.9716C70.7318 32.8585 70.7918 32.7552 70.8727 32.6699C70.9536 32.5846 71.0531 32.5197 71.1632 32.4804C71.2734 32.4411 71.3911 32.4286 71.5069 32.4437C71.7895 32.4391 72.0685 32.5091 72.3164 32.6468C72.5643 32.7846 72.7725 32.9853 72.9207 33.2293C72.9423 33.2696 72.9831 33.3035 73.0047 33.3438C73.0633 33.4328 73.143 33.5054 73.2365 33.555C73.33 33.6046 73.4344 33.6295 73.5399 33.6275C73.6282 33.6378 73.7177 33.6266 73.8008 33.5948C73.8839 33.5629 73.9582 33.5114 74.0176 33.4444C74.077 33.3775 74.1198 33.2972 74.1423 33.2101C74.1648 33.123 74.1664 33.0317 74.147 32.9439C74.1092 32.7486 74.0097 32.5711 73.8636 32.4381C73.6955 32.2873 73.5168 32.1492 73.3289 32.0246C72.9957 31.7988 72.6516 31.5852 72.3178 31.364C71.9286 31.0998 71.618 30.7329 71.4196 30.303C71.3069 30.0665 71.2425 29.8094 71.2302 29.5471C71.218 29.2848 71.2583 29.0227 71.3485 28.7766C71.4898 28.3684 71.7345 28.0051 72.0581 27.723C72.3817 27.4409 72.7728 27.25 73.1921 27.1694C73.8712 27.0108 74.5822 27.0714 75.2256 27.3427C75.652 27.4987 76.0247 27.7764 76.2989 28.1424C76.4395 28.3395 76.5802 28.5366 76.7363 28.7221C76.7813 29.0481 76.7331 29.3804 76.5973 29.6795C76.492 29.7818 76.3666 29.8604 76.2293 29.9103C76.092 29.9601 75.9458 29.98 75.8004 29.9686L75.4601 29.9179C75.2267 29.8554 75.0154 29.7275 74.8503 29.5489C74.6383 29.3758 74.4085 29.2266 74.1648 29.1037C73.8537 28.946 73.5912 29.1155 73.5481 29.4753C73.5259 29.6134 73.5428 29.7551 73.597 29.8838C73.6513 30.0125 73.7405 30.123 73.8543 30.2023C74.0974 30.3869 74.3572 30.5508 74.6113 30.7231C74.8653 30.8954 75.1494 31.0815 75.3994 31.281C75.7394 31.5565 76.0168 31.903 76.2127 32.2969C76.3199 32.5174 76.3739 32.7606 76.3704 33.0064C76.3978 33.355 76.3536 33.7055 76.2402 34.0357C76.1269 34.366 75.9471 34.6687 75.7122 34.9248V34.9248Z" fill="#2C148E"/>
<path d="M55.7422 39.5038C55.6803 39.9303 55.4459 40.1272 54.971 40.1213C54.761 40.1178 54.5545 40.0592 54.3445 40.0557C54.2346 40.0379 54.1221 40.0466 54.0161 40.0809C53.9265 40.1101 53.8467 40.1643 53.786 40.2372C53.7253 40.3101 53.6859 40.3988 53.6726 40.4933C53.6442 40.6884 53.6166 40.8789 53.5882 41.074C53.5809 41.1717 53.5668 41.2687 53.5461 41.3644C53.5253 41.4697 53.4687 41.5642 53.3862 41.6315C53.3037 41.6988 53.2006 41.7347 53.0946 41.7329C52.8056 41.7298 52.5172 41.7039 52.2322 41.6553C52.0878 41.6267 51.9598 41.5431 51.8744 41.4217C51.7891 41.3003 51.7529 41.1504 51.7733 41.0028C51.7813 40.7583 51.8438 40.5173 51.8787 40.2768C51.8897 40.1874 51.88 40.0966 51.8503 40.0117C51.8205 39.9268 51.7715 39.85 51.7072 39.7877C51.6155 39.6945 51.4943 39.637 51.3649 39.6254C51.1723 39.5967 50.9798 39.568 50.7917 39.54C50.6509 39.5105 50.5162 39.4559 50.3942 39.3788C50.3266 39.3343 50.2721 39.2724 50.2361 39.1994C50.2 39.1263 50.1838 39.0449 50.1892 38.9635C50.1946 38.7371 50.1923 38.5004 50.215 38.2812C50.2178 38.1951 50.2387 38.1105 50.2762 38.033C50.3136 37.9556 50.3667 37.8871 50.4322 37.832C50.4977 37.7769 50.574 37.7366 50.6561 37.7135C50.7381 37.6905 50.824 37.6854 50.9081 37.6985C51.0782 37.7238 51.2573 37.7505 51.4319 37.7766C51.5583 37.792 51.6861 37.7908 51.8122 37.773C51.9256 37.761 52.0318 37.7109 52.1138 37.6308C52.1959 37.5506 52.2492 37.445 52.2653 37.3306C52.289 37.1673 52.3121 37.0085 52.3358 36.8451C52.3542 36.7176 52.3816 36.5916 52.4179 36.468C52.4462 36.33 52.5261 36.2084 52.6408 36.1288C52.7556 36.0491 52.8964 36.0175 53.0336 36.0406C53.2583 36.0556 53.4814 36.0889 53.7008 36.1401C53.7767 36.152 53.8495 36.1791 53.915 36.2198C53.9805 36.2605 54.0374 36.3141 54.0823 36.3773C54.1272 36.4405 54.1592 36.5121 54.1765 36.588C54.1938 36.6639 54.1961 36.7425 54.1832 36.8192C54.1674 36.9281 54.1509 37.0416 54.1344 37.155C54.118 37.2684 54.1107 37.3183 54.0995 37.3955C54.0766 37.4907 54.0745 37.5899 54.0936 37.6861C54.1127 37.7822 54.1525 37.8729 54.2099 37.9518C54.2674 38.0307 54.3413 38.0958 54.4264 38.1425C54.5115 38.1893 54.6056 38.2165 54.7022 38.2224C54.9082 38.2531 55.1187 38.2845 55.3247 38.3152C55.4707 38.3317 55.6047 38.4047 55.6989 38.5189C55.7931 38.6331 55.8402 38.7797 55.8304 38.9283C55.804 39.1098 55.7616 39.3074 55.7422 39.5038Z" fill="#2C148E"/>
<path d="M27.9649 46.2149C27.9546 46.3128 27.9329 46.4092 27.9003 46.502C27.6976 47.0509 27.4162 47.5666 27.0651 48.0324C26.7616 48.3906 26.4005 48.6941 25.997 48.9301C25.2865 49.3494 24.475 49.5606 23.653 49.5402C23.0005 49.5397 22.3568 49.388 21.7711 49.0966C21.1855 48.8052 20.6733 48.3819 20.2739 47.859C19.8236 47.3032 19.5259 46.6368 19.4107 45.9271C19.3284 45.313 19.3708 44.6884 19.5354 44.0915C19.6543 43.635 19.8471 43.2017 20.1059 42.8091C20.2527 42.5965 20.4222 42.401 20.6114 42.2262C21.0507 41.7474 21.598 41.3836 22.2064 41.166C22.614 41.0158 23.0448 40.9403 23.4785 40.943C23.8485 40.9287 24.2186 40.9652 24.5789 41.0515C25.4103 41.189 26.177 41.5906 26.7684 42.1983C27.2772 42.6751 27.6505 43.2814 27.8494 43.9541C28.0657 44.6875 28.1053 45.4628 27.9649 46.2149V46.2149ZM25.8507 45.5892C25.9135 45.2388 25.8995 44.8787 25.8096 44.5344C25.7196 44.1901 25.5559 43.8701 25.3301 43.5971C25.0827 43.3052 24.761 43.0878 24.3999 42.9686C24.0389 42.8494 23.6524 42.8329 23.2828 42.9211C22.8085 43.0185 22.3841 43.2839 22.0854 43.6697C21.9678 43.7952 21.8673 43.9361 21.7866 44.0887C21.5648 44.5616 21.4879 45.0911 21.566 45.6087C21.6145 46.0743 21.8064 46.5126 22.1146 46.8614C22.4228 47.2102 22.8316 47.4519 23.2829 47.552C23.5271 47.612 23.7809 47.6209 24.0286 47.5781C24.2763 47.5353 24.5127 47.4418 24.7235 47.3032C25.0356 47.1329 25.3016 46.8876 25.4982 46.5887C25.6947 46.2898 25.8157 45.9466 25.8507 45.5892V45.5892Z" fill="#2C148E"/>
<path d="M33.4257 49.8797C33.0814 50.2254 32.6367 50.45 32.157 50.5203C31.3141 50.6822 30.4419 50.5522 29.6807 50.1512C29.3217 49.9801 29.0134 49.7164 28.7867 49.3864C28.56 49.0565 28.4229 48.6719 28.3892 48.2714C28.3695 48.1553 28.3769 48.0362 28.4109 47.9237C28.4449 47.8111 28.5046 47.7082 28.585 47.6232C28.6654 47.5383 28.7644 47.4736 28.874 47.4345C28.9835 47.3954 29.1006 47.3828 29.2158 47.3979C29.4983 47.3918 29.7775 47.4607 30.0257 47.5977C30.2738 47.7347 30.4823 47.9351 30.6304 48.179C30.6565 48.2199 30.6921 48.2577 30.7182 48.2987C30.7761 48.3871 30.8553 48.4591 30.9483 48.5078C31.0413 48.5565 31.145 48.5804 31.2496 48.5772C31.3381 48.5886 31.428 48.5781 31.5116 48.5467C31.5952 48.5152 31.6701 48.4636 31.7298 48.3964C31.7894 48.3292 31.8321 48.2484 31.8542 48.1608C31.8763 48.0733 31.8772 47.9816 31.8567 47.8936C31.8226 47.697 31.7224 47.5183 31.5733 47.3878C31.4063 47.2367 31.2294 47.0973 31.0437 46.9705C30.7106 46.7446 30.3665 46.5311 30.0281 46.3092C29.6391 46.0464 29.3297 45.6793 29.1344 45.2488C29.0204 45.0136 28.9553 44.7572 28.9429 44.4954C28.9306 44.2337 28.9712 43.9721 29.0626 43.7269C29.2041 43.3183 29.4489 42.9545 29.7725 42.6717C30.0961 42.3889 30.4872 42.197 30.9069 42.1152C31.5845 41.9589 32.2934 42.0192 32.9358 42.2879C33.3628 42.4429 33.7358 42.7208 34.0092 43.0876C34.1499 43.2847 34.2949 43.4825 34.4503 43.6725C34.4932 43.997 34.4453 44.3271 34.312 44.6253C34.2076 44.7281 34.0831 44.8074 33.9465 44.8581C33.8099 44.9088 33.6642 44.9298 33.5191 44.9197C33.4071 44.903 33.2862 44.885 33.1787 44.869C32.9443 44.8067 32.7328 44.6769 32.5697 44.4954C32.3561 44.3221 32.1247 44.1726 31.8795 44.0495C31.5678 43.8964 31.3104 44.062 31.2629 44.4211C31.2425 44.5591 31.261 44.7002 31.316 44.8281C31.3711 44.956 31.4606 45.0656 31.5742 45.1443C31.8173 45.3289 32.0771 45.4928 32.3305 45.6696C32.5839 45.8465 32.8642 46.0273 33.1194 46.223C33.4567 46.5029 33.7332 46.8502 33.9319 47.2434C34.0366 47.4648 34.0906 47.7074 34.0897 47.953C34.1159 48.3031 34.0705 48.655 33.9562 48.9866C33.842 49.3181 33.6614 49.6222 33.4257 49.8797V49.8797Z" fill="#2C148E"/>
<path d="M39.7933 50.736C39.4506 51.0839 39.0051 51.3089 38.5246 51.3767C37.6816 51.536 36.8103 51.4062 36.0484 51.0076C35.6913 50.8338 35.3847 50.5694 35.1583 50.2399C34.932 49.9105 34.7936 49.5273 34.7568 49.1277C34.737 49.0113 34.7446 48.8918 34.7789 48.7789C34.8132 48.666 34.8733 48.5629 34.9542 48.478C35.0351 48.393 35.1347 48.3285 35.2448 48.2897C35.3549 48.251 35.4725 48.2391 35.588 48.2549C35.8705 48.2493 36.1494 48.3183 36.3975 48.4553C36.6455 48.5923 36.8541 48.7924 37.0025 49.036C37.0241 49.0763 37.0604 49.1095 37.0858 49.155C37.1456 49.2427 37.2258 49.314 37.3193 49.3627C37.4128 49.4114 37.5166 49.436 37.6217 49.4342C37.71 49.4445 37.7995 49.4333 37.8826 49.4015C37.9657 49.3696 38.04 49.3181 38.0994 49.2512C38.1588 49.1842 38.2016 49.1039 38.2241 49.0168C38.2466 48.9297 38.2482 48.8384 38.2288 48.7506C38.1929 48.5546 38.0931 48.3765 37.9454 48.2448C37.7762 48.0943 37.5978 47.9547 37.4114 47.8268C37.0782 47.6009 36.7341 47.3874 36.4002 47.1661C36.01 46.9032 35.6991 46.536 35.5021 46.1051C35.3891 45.8696 35.3245 45.6132 35.3121 45.3516C35.2998 45.0901 35.34 44.8286 35.4303 44.5832C35.571 44.1742 35.8155 43.8099 36.1393 43.527C36.463 43.244 36.8546 43.0525 37.2746 42.9715C37.9538 42.8154 38.6641 42.8759 39.308 43.1449C39.7345 43.3009 40.1072 43.5786 40.3813 43.9445C40.5219 44.1417 40.6626 44.3388 40.8187 44.5243C40.8637 44.8503 40.8155 45.1826 40.6797 45.4817C40.5744 45.5844 40.449 45.6636 40.3117 45.7142C40.1743 45.7648 40.028 45.7856 39.8822 45.7753C39.7702 45.7587 39.6538 45.7413 39.5419 45.7246C39.3075 45.6624 39.0959 45.5326 38.9328 45.3511C38.7208 45.178 38.491 45.0287 38.2472 44.9058C37.9355 44.7528 37.6737 44.9177 37.6306 45.2775C37.6093 45.415 37.6268 45.5557 37.6811 45.6836C37.7354 45.8114 37.8242 45.9211 37.9374 46C38.1805 46.1846 38.4403 46.3485 38.6937 46.5253C38.9471 46.7021 39.2318 46.8836 39.4825 47.0786C39.8236 47.3546 40.101 47.7029 40.2951 48.0991C40.4032 48.3177 40.4575 48.5596 40.4534 48.8041C40.4817 49.1549 40.4376 49.5078 40.324 49.8404C40.2103 50.1731 40.0297 50.4781 39.7933 50.736Z" fill="#2C148E"/>
<path d="M43.4076 51.1079C43.3866 51.2531 43.3655 51.3983 43.3418 51.5616C43.3128 51.689 43.2401 51.8018 43.1365 51.8798C43.033 51.9578 42.9054 51.9959 42.7767 51.9873C42.4095 51.9325 42.0423 51.8778 41.6796 51.8237C41.5518 51.7983 41.4376 51.7263 41.3584 51.6215C41.2793 51.5166 41.2406 51.3861 41.2499 51.2544C41.271 51.1092 41.292 50.964 41.3158 50.8007C41.3955 50.2517 41.4746 49.7072 41.5274 49.1542C41.5531 48.9772 41.5519 48.7962 41.5642 48.6173C41.5591 48.5373 41.5631 48.457 41.576 48.378C41.686 47.8883 41.7582 47.3908 41.7921 46.8897C41.8372 46.39 41.9093 45.8932 42.0082 45.4015C42.063 45.1972 42.0935 44.987 42.0991 44.7754C42.1071 44.4994 42.1469 44.2253 42.2176 43.9586C42.2217 43.9004 42.2376 43.8435 42.2642 43.7917C42.2909 43.7399 42.3277 43.6942 42.3725 43.6574C42.4173 43.6206 42.4691 43.5935 42.5247 43.5779C42.5802 43.5622 42.6383 43.5583 42.6954 43.5663C43.0934 43.5978 43.4927 43.6527 43.8866 43.7439C44.0025 43.773 44.1055 43.8403 44.1795 43.9353C44.2535 44.0302 44.2943 44.1474 44.2954 44.2684C44.2972 44.4219 44.2841 44.5752 44.2563 44.7261C44.1175 45.8087 43.9759 46.8893 43.8315 47.9679C43.6855 49.0154 43.5442 50.0621 43.4076 51.1079Z" fill="#2C148E"/>
<path d="M51.513 52.5343C51.5101 52.6162 51.4893 52.6965 51.4523 52.7695C51.4153 52.8424 51.363 52.9062 51.299 52.9564C51.2349 53.0065 51.1609 53.0418 51.0819 53.0598C51.0029 53.0777 50.921 53.0778 50.842 53.0601C50.5867 53.022 50.3315 52.984 50.0808 52.9466C49.9276 52.9337 49.781 52.8781 49.6571 52.786C49.5332 52.6939 49.4369 52.5689 49.3788 52.4247L48.7083 50.9619C48.3587 50.2191 48.0506 49.4733 47.7086 48.7409C47.6237 48.5852 47.5221 48.4394 47.4057 48.3063C47.3864 48.2916 47.3643 48.2812 47.3408 48.2755C47.3173 48.2699 47.293 48.2692 47.2692 48.2734C47.2454 48.2777 47.2228 48.2869 47.2027 48.3004C47.1825 48.3139 47.1652 48.3314 47.1521 48.3519C47.1059 48.4355 47.0742 48.5264 47.0582 48.6207C46.9959 48.9077 46.9536 49.1988 46.9317 49.4919C46.9151 49.7163 46.8827 49.9391 46.8349 50.1589C46.7644 50.6444 46.6946 51.1253 46.6241 51.6108C46.6149 51.6743 46.6056 51.7379 46.5958 51.8059C46.5961 51.8921 46.5776 51.9773 46.5418 52.0555C46.5059 52.1337 46.4535 52.2028 46.3883 52.2582C46.323 52.3135 46.2465 52.3536 46.1643 52.3756C46.082 52.3976 45.996 52.401 45.9123 52.3855C45.6123 52.3407 45.3078 52.2954 45.0167 52.252C44.9381 52.2378 44.8631 52.2077 44.7963 52.1635C44.7233 52.1276 44.6627 52.0702 44.6225 51.9989C44.5822 51.9275 44.5643 51.8455 44.5708 51.7636C44.5945 51.6003 44.6175 51.4415 44.6188 51.2748C44.773 50.2131 44.8957 49.1466 45.0351 48.092C45.1893 47.0302 45.3281 45.9693 45.4515 44.9092C45.4658 44.7477 45.4892 44.5871 45.5214 44.4282C45.5381 44.3117 45.5985 44.2062 45.6899 44.1335C45.7814 44.0608 45.8969 44.0266 46.0126 44.0379C46.3653 44.0626 46.7157 44.1149 47.0604 44.1941C47.1849 44.2303 47.299 44.2961 47.3933 44.3859C47.4877 44.4758 47.5595 44.5871 47.603 44.7107C47.7527 45.0343 47.8921 45.3657 48.0354 45.7023C48.448 46.6415 48.8643 47.5765 49.2842 48.5075C49.3434 48.6408 49.4171 48.7669 49.5041 48.8833C49.5291 48.9154 49.5624 48.9399 49.6001 48.9543C49.6379 48.9687 49.6788 48.9724 49.7184 48.9649C49.7581 48.9575 49.795 48.9392 49.8252 48.9121C49.8553 48.885 49.8777 48.8501 49.8898 48.811C49.9264 48.653 49.9497 48.4921 49.9596 48.3301C50.0645 47.4186 50.1637 46.4831 50.2699 45.5626C50.2912 45.401 50.328 45.2419 50.38 45.0876C50.4122 44.9751 50.4798 44.8764 50.5725 44.8066C50.6653 44.7367 50.7781 44.6995 50.8936 44.7006C51.2429 44.7527 51.5968 44.773 51.9415 44.8568C52.06 44.8828 52.1662 44.9491 52.2422 45.0448C52.3182 45.1406 52.3595 45.2598 52.3592 45.3827C52.3634 45.5117 52.3538 45.6408 52.3307 45.7678L51.5688 51.5831C51.6066 51.89 51.5598 52.2121 51.513 52.5343Z" fill="#2C148E"/>
<path d="M61.5466 50.3493C61.4588 50.9305 61.2581 51.4883 60.9561 51.9904C60.6552 52.4682 60.2657 52.8824 59.8092 53.2101C58.9769 53.8081 57.9668 54.0978 56.9486 54.0304C55.9305 53.963 54.9662 53.5427 54.2177 52.8401C53.7006 52.3685 53.3101 51.7716 53.0827 51.1053C52.8554 50.439 52.7987 49.7252 52.918 49.0306C52.961 48.691 53.0447 48.3578 53.1672 48.0387C53.1992 47.9001 53.2662 47.7724 53.3615 47.668C53.4569 47.5635 53.5773 47.486 53.7112 47.443C53.6835 47.3058 53.6962 47.1635 53.7476 47.0335C53.799 46.9036 53.8869 46.7918 54.0004 46.7119C54.269 46.4538 54.5643 46.2258 54.8813 46.0321C55.2935 45.7823 55.7414 45.5988 56.2091 45.4883C56.6524 45.4069 57.1046 45.3885 57.5529 45.4337C58.3906 45.5025 59.1937 45.8035 59.8741 46.3035C60.428 46.7176 60.8748 47.2614 61.1765 47.8883C61.226 47.9913 61.2671 48.0982 61.2994 48.2079C61.3259 48.259 61.3404 48.3157 61.3416 48.3734C61.3428 48.4311 61.3306 48.4883 61.3062 48.5405C61.2817 48.5926 61.2456 48.6382 61.2007 48.6738C61.1558 48.7093 61.1033 48.7338 61.0475 48.7452C60.9115 48.792 60.7671 48.8084 60.6242 48.7933C60.3197 48.748 60.0197 48.7032 59.7287 48.6598C59.4875 48.6375 59.2628 48.5265 59.0969 48.3478C59.0054 48.2561 58.9186 48.1596 58.837 48.0588C58.5094 47.674 58.0649 47.4105 57.5734 47.3095C57.4339 47.2708 57.2878 47.2635 57.1452 47.2878C57.0026 47.3122 56.867 47.3678 56.7477 47.4506C56.6856 47.4991 56.6093 47.5252 56.531 47.5249C56.4035 47.5001 56.2717 47.5116 56.1502 47.5581C56.0288 47.6047 55.9225 47.6845 55.8431 47.7886C55.3727 48.2197 55.0817 48.816 55.0291 49.4566C55.0204 49.732 55.0371 50.0076 55.0789 50.2799C55.1246 50.5629 55.2257 50.8338 55.3764 51.0765C55.5271 51.3193 55.7244 51.5289 55.9564 51.6932C56.1885 51.8574 56.4506 51.9728 56.7274 52.0327C57.0042 52.0925 57.29 52.0955 57.568 52.0416C57.8557 52.0021 58.1314 51.8992 58.3757 51.7401C58.4475 51.696 58.5044 51.6307 58.5385 51.553C58.5727 51.4752 58.5827 51.3887 58.5669 51.3051C58.5628 51.2228 58.5317 51.1442 58.4786 51.0818C58.4256 51.0193 58.3536 50.9765 58.2739 50.9601C58.1033 50.9115 57.9273 50.8852 57.7501 50.882C57.5423 50.8812 57.3357 50.8504 57.1366 50.7906C56.9927 50.7609 56.8654 50.6771 56.7803 50.5559C56.6951 50.4348 56.6585 50.2855 56.6778 50.1381C56.6962 50.011 56.7153 49.8794 56.7338 49.7524C56.7368 49.3217 57.086 49.091 57.5334 49.0975C57.7779 49.1671 58.0323 49.1941 58.2857 49.1772C59.1141 49.3007 59.942 49.3963 60.771 49.5152C60.9302 49.5374 61.0854 49.5824 61.232 49.6488C61.3637 49.7017 61.4699 49.8042 61.5286 49.9348C61.5872 50.0654 61.5937 50.214 61.5466 50.3493Z" fill="#2C148E"/>
<path d="M67.4077 47.9503C67.3745 48.1819 67.2552 48.3919 67.0742 48.5373C66.8932 48.6827 66.6641 48.7524 66.434 48.7323C66.2262 48.7223 66.0222 48.791 65.8617 48.9251C65.7936 48.9752 65.7363 49.0388 65.6934 49.1121C65.6505 49.1855 65.6229 49.2669 65.6123 49.3515L65.5464 49.8052C65.3573 51.1075 65.2079 52.4202 65.0367 53.7251C65.0136 53.8374 64.9971 53.9511 64.9873 54.0654C64.9826 54.2036 64.9439 54.3385 64.8746 54.4577C64.8054 54.5769 64.7079 54.6767 64.5909 54.748C64.5255 54.8052 64.4491 54.8481 64.3667 54.8741C64.2842 54.9001 64.1974 54.9086 64.1115 54.899L63.5339 54.8129C63.4338 54.8037 63.3367 54.774 63.2482 54.7258C63.1597 54.6775 63.0818 54.6117 63.019 54.5322C62.9562 54.4528 62.9099 54.3613 62.8828 54.2632C62.8557 54.1652 62.8485 54.0627 62.8615 53.9617C62.8741 53.6066 62.9162 53.2531 62.9874 52.9051C63.0979 52.3328 63.1241 51.7434 63.186 51.1593C63.1906 51.1275 63.1952 51.0957 63.1998 51.064C63.4007 50.4681 63.2778 49.8333 63.423 49.243C63.4321 49.2121 63.4367 49.18 63.4368 49.1477C63.4571 48.9838 63.4231 48.8177 63.3403 48.6753C63.2576 48.533 63.1306 48.4225 62.9792 48.361C62.7111 48.2543 62.461 48.106 62.2379 47.9214C62.1966 47.8798 62.1463 47.8485 62.091 47.8299C62.0375 47.7115 62.0144 47.5814 62.0237 47.4515C62.0329 47.3217 62.0743 47.1963 62.1441 47.0869C62.1441 47.0869 62.1487 47.0551 62.1506 47.0415C62.166 46.9852 62.1877 46.9309 62.2153 46.8797C62.3007 46.7057 62.4381 46.5637 62.6082 46.4741C62.7782 46.3845 62.972 46.3519 63.1615 46.381L66.6076 46.8437C66.7601 46.8647 66.9079 46.9118 67.0448 46.9831C67.1944 47.0886 67.309 47.2373 67.3738 47.4099C67.4385 47.5825 67.4503 47.7708 67.4077 47.9503V47.9503Z" fill="#2C148E"/>
<path d="M75.6405 52.6264C75.6304 52.7228 75.6089 52.8176 75.5766 52.9089C75.3746 53.4597 75.0929 53.977 74.7407 54.4438C74.4372 54.802 74.0761 55.1056 73.6726 55.3415C72.9621 55.7609 72.1506 55.9721 71.3286 55.9516C70.6761 55.9511 70.0324 55.7994 69.4468 55.508C68.8611 55.2166 68.3489 54.7933 67.9496 54.2705C67.5002 53.7123 67.2028 53.0447 67.087 52.3341C67.0039 51.72 67.0463 51.0952 67.2117 50.4984C67.3305 50.0419 67.5234 49.6086 67.7822 49.216C67.9301 49.0028 68.0998 48.8059 68.2883 48.6286C68.7287 48.1525 69.2755 47.7904 69.8827 47.5729C70.2892 47.4185 70.7207 47.3429 71.1548 47.35C71.5247 47.3357 71.8949 47.3721 72.2552 47.4584C73.0863 47.5942 73.8533 47.9942 74.4453 48.6007C74.9528 49.0802 75.3257 49.6877 75.5256 50.361C75.7424 51.0959 75.7818 51.8728 75.6405 52.6264V52.6264ZM73.5263 52.0006C73.5893 51.6496 73.5754 51.2888 73.4856 50.9437C73.3958 50.5987 73.2321 50.2779 73.0064 50.004C72.7594 49.7116 72.4374 49.494 72.0759 49.3755C71.7145 49.257 71.3277 49.2421 70.9584 49.3325C70.4836 49.4285 70.0586 49.6942 69.761 50.0811C69.6434 50.2066 69.5429 50.3476 69.4623 50.5002C69.2404 50.9731 69.1635 51.5025 69.2416 52.0202C69.2914 52.4853 69.4838 52.9229 69.7918 53.2715C70.0998 53.62 70.5078 53.862 70.9585 53.9634C71.2027 54.0235 71.4565 54.0323 71.7042 53.9896C71.9519 53.9468 72.1883 53.8532 72.3991 53.7146C72.7147 53.5471 72.9846 53.3034 73.1851 53.0051C73.3856 52.7067 73.5105 52.3629 73.5487 52.004L73.5263 52.0006Z" fill="#2C148E"/>
<path d="M83.0483 56.7762C83.0455 56.858 83.0248 56.9381 82.9878 57.0109C82.9508 57.0836 82.8984 57.1472 82.8343 57.197C82.7703 57.2468 82.6962 57.2816 82.6173 57.299C82.5384 57.3164 82.4566 57.3158 82.3779 57.2975C82.1227 57.2594 81.8675 57.2214 81.6167 57.184C81.4636 57.1711 81.3169 57.1155 81.1931 57.0234C81.0692 56.9313 80.9729 56.8063 80.9148 56.6621C80.6941 56.1657 80.4688 55.6686 80.2442 55.1993C79.8946 54.4565 79.5866 53.7106 79.2446 52.9782C79.161 52.8217 79.0593 52.6758 78.9417 52.5437C78.9227 52.5289 78.9008 52.5182 78.8776 52.5123C78.8543 52.5063 78.8302 52.5053 78.8065 52.5091C78.7829 52.513 78.7602 52.5217 78.74 52.5347C78.7197 52.5477 78.7022 52.5647 78.6887 52.5848C78.6423 52.6699 78.6104 52.7623 78.5942 52.8581C78.5319 53.1451 78.4897 53.4362 78.4677 53.7293C78.4511 53.9537 78.4188 54.1765 78.3709 54.3962C78.3004 54.8817 78.2305 55.3627 78.1601 55.8482L78.1324 56.0388C78.1327 56.125 78.1143 56.2102 78.0784 56.2883C78.0425 56.3665 77.9901 56.4357 77.9249 56.491C77.8596 56.5464 77.7831 56.5864 77.7009 56.6084C77.6186 56.6304 77.5326 56.6338 77.4489 56.6183C77.1489 56.5736 76.8444 56.5282 76.5534 56.4848C76.4754 56.4685 76.4008 56.4385 76.3329 56.3963C76.2597 56.3596 76.1991 56.3013 76.159 56.2292C76.1189 56.1571 76.1012 56.0745 76.108 55.992C76.1311 55.8332 76.1548 55.6698 76.1555 55.5077C76.3103 54.4414 76.433 53.375 76.5718 52.3249C76.7259 51.2631 76.8647 50.2022 76.9882 49.142C77.0026 48.979 77.0262 48.8169 77.0586 48.6565C77.0754 48.54 77.1357 48.4345 77.2272 48.3618C77.3187 48.2892 77.4342 48.2549 77.5499 48.2662C77.9026 48.291 78.2528 48.3432 78.5976 48.4224C78.7219 48.4577 78.8361 48.5226 78.9306 48.6117C79.025 48.7008 79.0972 48.8115 79.1409 48.9345C79.29 49.2627 79.4301 49.5895 79.5734 49.9261L80.8221 52.7313C80.8802 52.8638 80.9543 52.9885 81.0427 53.1026C81.0677 53.1346 81.101 53.1592 81.1387 53.1736C81.1765 53.1879 81.2174 53.1916 81.257 53.1842C81.2967 53.1767 81.3336 53.1585 81.3638 53.1313C81.3939 53.1042 81.4163 53.0693 81.4284 53.0303C81.4652 52.8723 81.4885 52.7114 81.4982 52.5493C81.6031 51.6378 81.699 50.725 81.8078 49.7863C81.8291 49.6247 81.8659 49.4656 81.9179 49.3114C81.9501 49.1989 82.0177 49.1002 82.1105 49.0304C82.2032 48.9605 82.316 48.9233 82.4316 48.9244C82.7835 48.956 83.1334 49.0082 83.4794 49.0806C83.5979 49.1065 83.704 49.1729 83.78 49.2686C83.856 49.3643 83.8975 49.4836 83.8972 49.6064C83.901 49.737 83.8911 49.8676 83.8679 49.9961L83.1061 55.8114C83.1374 56.1313 83.0996 56.4547 83.0483 56.7762Z" fill="#2C148E"/>
</svg>
