<svg viewBox="0 0 1078 38" fill="none" xmlns="http://www.w3.org/2000/svg">
<path d="M0 38V13.6944C61.5481 17.0342 123.732 6.07541 185.189 7.01474C203.163 7.30175 219.685 8.78902 235.027 11.2417C249.551 13.5378 262.714 16.4341 276.513 19.0172C302.203 23.8443 331.525 26.7145 362.753 27.6538C407.325 29.0106 450.99 26.1665 488.118 19.513C510.45 15.5208 532.6 11.8157 557.383 8.99776C606.676 3.3879 660.598 0.361189 714.067 0.0219881C783.876 -0.421582 849.963 5.94495 916.867 10.1719C969.882 13.5117 1026.53 15.2599 1078 10.5372V38L0 38Z" fill="#DFFF85"/>
</svg>
