<svg viewBox="0 0 111 112" fill="none" xmlns="http://www.w3.org/2000/svg">
<path d="M97.1698 39.106L88.9032 48.245C88.8575 48.2954 88.8248 48.3565 88.8081 48.4228C88.7915 48.4892 88.7913 48.5587 88.8078 48.6251C88.8242 48.6914 88.8567 48.7527 88.9023 48.8032C88.9479 48.8537 89.0052 48.892 89.0689 48.9145L100.246 53.981C100.316 54.0136 100.375 54.0652 100.417 54.13C100.459 54.1948 100.483 54.2703 100.485 54.3479C100.488 54.4255 100.469 54.5023 100.431 54.5697C100.392 54.637 100.337 54.6923 100.269 54.7293L89.3661 60.3961C89.3091 60.4273 89.2601 60.4716 89.223 60.5256C89.186 60.5795 89.162 60.6415 89.1529 60.7066C89.1439 60.7716 89.1502 60.8379 89.1711 60.9C89.192 60.9622 89.2271 61.0185 89.2735 61.0644L98.0596 69.6887C98.1136 69.7437 98.1515 69.8127 98.1691 69.8882C98.1866 69.9636 98.1832 70.0426 98.1591 70.1162C98.135 70.1898 98.0912 70.2551 98.0326 70.305C97.9741 70.3549 97.9029 70.3873 97.8272 70.3986L85.6967 72.004C85.6323 72.0121 85.5707 72.0357 85.5171 72.0728C85.4635 72.1099 85.4194 72.1594 85.3885 72.2172C85.3576 72.2751 85.3407 72.3395 85.3394 72.4053C85.3381 72.471 85.3523 72.5362 85.3808 72.5952L90.7388 83.7393C90.7725 83.8093 90.7862 83.8874 90.7779 83.9648C90.7697 84.0422 90.7401 84.1156 90.6925 84.1767C90.6449 84.2377 90.5811 84.2839 90.5087 84.3099C90.4363 84.3359 90.3581 84.3406 90.2832 84.3235L78.3441 81.6345C78.2814 81.6223 78.2168 81.625 78.1554 81.6424C78.0939 81.6598 78.0371 81.6913 77.9897 81.7346C77.9423 81.7779 77.9054 81.8317 77.8819 81.8919C77.8585 81.952 77.849 82.0169 77.8544 82.0814L79.1055 94.4093C79.1128 94.4869 79.0988 94.565 79.0647 94.6348C79.0307 94.7047 78.978 94.7636 78.9128 94.8048C78.8475 94.846 78.7722 94.868 78.6953 94.8683C78.6184 94.8685 78.5429 94.847 78.4774 94.8062L68.1634 88.1335C68.1089 88.0978 68.0467 88.0758 67.9821 88.0694C67.9174 88.0629 67.8522 88.0722 67.7919 88.0965C67.7315 88.1208 67.6778 88.1593 67.6351 88.2089C67.5924 88.2585 67.562 88.3177 67.5465 88.3816L64.582 100.412C64.563 100.488 64.5234 100.556 64.4677 100.61C64.412 100.663 64.3426 100.7 64.2674 100.715C64.1922 100.73 64.1142 100.724 64.0425 100.696C63.9708 100.669 63.9082 100.621 63.8619 100.559L56.4205 90.7231C56.3815 90.6707 56.3308 90.6284 56.2725 90.5999C56.2142 90.5713 56.15 90.5573 56.0853 90.5589C56.0205 90.5605 55.9571 90.5777 55.9003 90.609C55.8434 90.6404 55.7947 90.6851 55.7583 90.7393L48.8976 100.999C48.8547 101.064 48.7941 101.116 48.7232 101.148C48.6523 101.18 48.5739 101.19 48.4972 101.178C48.4206 101.166 48.3488 101.133 48.2904 101.081C48.232 101.029 48.1894 100.962 48.1675 100.887L44.5091 89.0428C44.4901 88.977 44.4554 88.917 44.4082 88.868C44.361 88.8189 44.3026 88.7824 44.2382 88.7616C44.1737 88.7407 44.1053 88.7362 44.0387 88.7484C43.9722 88.7606 43.9096 88.7891 43.8565 88.8315L33.9532 96.1116C33.8907 96.1578 33.8165 96.1851 33.7394 96.1901C33.6622 96.1952 33.5852 96.1779 33.5174 96.1403C33.4495 96.1027 33.3936 96.0463 33.3562 95.9778C33.3188 95.9092 33.3015 95.8312 33.3061 95.753L33.8428 83.3721C33.8455 83.3061 33.8326 83.2404 33.8054 83.1804C33.7782 83.1204 33.7374 83.0677 33.6863 83.0267C33.6351 82.9858 33.5751 82.9577 33.5112 82.9446C33.4473 82.9316 33.3813 82.934 33.3185 82.9518L21.558 86.367C21.484 86.3893 21.4052 86.3899 21.3309 86.3686C21.2565 86.3473 21.1897 86.3051 21.1382 86.2468C21.0866 86.1885 21.0525 86.1166 21.0397 86.0394C21.027 85.9622 21.0361 85.8829 21.0661 85.8108L25.7666 74.3666C25.7921 74.3056 25.8028 74.2394 25.7977 74.1733C25.7926 74.1073 25.772 74.0435 25.7374 73.9873C25.7029 73.931 25.6556 73.884 25.5994 73.8502C25.5432 73.8164 25.4797 73.7969 25.4145 73.7931L13.1902 72.9101C13.1136 72.9049 13.0401 72.8778 12.9781 72.8321C12.916 72.7864 12.8679 72.7238 12.8394 72.6516C12.8108 72.5794 12.803 72.5006 12.8167 72.4241C12.8305 72.3476 12.8653 72.2766 12.9171 72.2192L21.2515 63.1117C21.2936 63.0616 21.3233 63.002 21.3381 62.9379C21.353 62.8739 21.3524 62.8072 21.3366 62.7433C21.3208 62.6795 21.2902 62.6204 21.2473 62.571C21.2044 62.5216 21.1505 62.4833 21.09 62.4593L9.91301 57.3928C9.84338 57.3598 9.78422 57.3077 9.7422 57.2425C9.70017 57.1772 9.67691 57.1014 9.67509 57.0235C9.67327 56.9456 9.69296 56.8687 9.73188 56.8015C9.77081 56.7343 9.82748 56.6794 9.89549 56.643L20.7532 50.9391C20.811 50.9093 20.861 50.866 20.8989 50.8128C20.9369 50.7596 20.9618 50.698 20.9715 50.633C20.9813 50.5681 20.9756 50.5018 20.955 50.4395C20.9344 50.3773 20.8994 50.3209 20.853 50.2751L12.0653 41.6451C12.0091 41.5911 11.9692 41.522 11.9504 41.4459C11.9315 41.3697 11.9345 41.2897 11.9588 41.2152C11.9832 41.1407 12.0281 41.0748 12.0881 41.0252C12.1481 40.9756 12.2209 40.9443 12.2978 40.9351L24.4298 39.3355C24.4942 39.3263 24.5556 39.3018 24.6089 39.264C24.6622 39.2262 24.706 39.1761 24.7367 39.1179C24.7673 39.0598 24.784 38.9951 24.7853 38.9292C24.7866 38.8632 24.7725 38.7979 24.7442 38.7385L19.3805 27.5959C19.3491 27.5259 19.3374 27.4484 19.3466 27.3721C19.3558 27.2957 19.3856 27.2234 19.4326 27.1631C19.4797 27.1028 19.5422 27.0567 19.6134 27.03C19.6846 27.0033 19.7616 26.997 19.8361 27.0117L31.7752 29.7007C31.8377 29.7143 31.9024 29.7127 31.9641 29.6962C32.0259 29.6798 32.083 29.6488 32.1307 29.6059C32.1785 29.563 32.2157 29.5093 32.2393 29.4491C32.2628 29.389 32.2721 29.3241 32.2663 29.2596L31.0138 16.9259C31.0038 16.8481 31.0162 16.7691 31.0494 16.6982C31.0827 16.6274 31.1354 16.5678 31.2013 16.5266C31.2673 16.4854 31.3435 16.4644 31.4209 16.4661C31.4983 16.4678 31.5737 16.4922 31.6377 16.5362L41.9475 23.216C42.002 23.2517 42.0642 23.2737 42.1288 23.2802C42.1935 23.2866 42.2587 23.2773 42.319 23.253C42.3794 23.2288 42.4332 23.1902 42.4758 23.1406C42.5185 23.091 42.5489 23.0319 42.5644 22.968L45.5289 10.9371C45.5483 10.8617 45.5881 10.7934 45.6438 10.7397C45.6995 10.686 45.7689 10.649 45.8441 10.6331C45.9194 10.6171 45.9975 10.6227 46.0697 10.6493C46.142 10.6758 46.2056 10.7223 46.2532 10.7834L53.6903 20.6265C53.7305 20.6782 53.7822 20.7196 53.8411 20.7473C53.9 20.775 53.9645 20.7883 54.0295 20.786C54.0944 20.7837 54.1579 20.7659 54.2148 20.7341C54.2717 20.7024 54.3203 20.6575 54.3569 20.6031L61.2118 10.3448C61.2553 10.2802 61.3158 10.2291 61.3864 10.1975C61.457 10.1659 61.5349 10.155 61.6113 10.166C61.6878 10.1769 61.7597 10.2093 61.8189 10.2595C61.878 10.3098 61.9221 10.3758 61.9462 10.4501L65.6046 22.2939C65.6231 22.3598 65.6577 22.42 65.705 22.4691C65.7522 22.5182 65.8108 22.5546 65.8754 22.575C65.94 22.5954 66.0086 22.5991 66.0751 22.5859C66.1415 22.5727 66.2035 22.543 66.2557 22.4994L76.1591 15.2193C76.222 15.174 76.2963 15.1473 76.3734 15.1425C76.4504 15.1377 76.5273 15.1549 76.5952 15.1921C76.6632 15.2292 76.7194 15.285 76.7577 15.3529C76.796 15.4209 76.8148 15.4983 76.8119 15.5765L76.2752 27.9574C76.2726 28.0234 76.2853 28.0891 76.3125 28.1491C76.3397 28.2091 76.3806 28.2617 76.4317 28.3027C76.4829 28.3437 76.5428 28.3718 76.6067 28.3849C76.6706 28.3979 76.7366 28.3954 76.7994 28.3777L88.56 24.9625C88.6345 24.9403 88.7138 24.9401 88.7885 24.9621C88.8631 24.984 88.9301 25.0271 88.9813 25.0864C89.0326 25.1456 89.066 25.2185 89.0777 25.2963C89.0895 25.3742 89.0791 25.4538 89.0476 25.5259L84.3471 36.97C84.3228 37.0306 84.313 37.0962 84.3186 37.1613C84.3241 37.2265 84.3449 37.2894 84.3791 37.3448C84.4133 37.4003 84.4601 37.4467 84.5155 37.4802C84.5709 37.5138 84.6333 37.5335 84.6977 37.5378L96.9221 38.4208C96.9954 38.431 97.0647 38.4612 97.1224 38.5083C97.18 38.5554 97.2239 38.6175 97.2493 38.6879C97.2748 38.7583 97.2808 38.8345 97.2668 38.9082C97.2528 38.9818 97.2193 39.0502 97.1698 39.106Z" fill="#2C148E"/>
<path d="M54.4096 36.0457C54.4508 36.2074 54.4718 36.3737 54.4722 36.5407C54.4828 37.5295 54.4851 38.5083 54.483 39.4942C54.4856 40.9595 54.4698 42.4233 54.4667 43.89C54.4629 44.4324 54.4718 44.9776 54.468 45.5199C54.473 45.6245 54.4688 45.7294 54.4555 45.8333C54.4463 46.0343 54.3707 46.2265 54.2407 46.3787C54.1107 46.5309 53.9339 46.6343 53.7388 46.6724C53.4564 46.7442 53.1741 46.816 52.8973 46.8863C52.6785 46.9609 52.4401 46.9504 52.2285 46.857C52.0168 46.7636 51.8469 46.5938 51.7517 46.3807C51.558 46.0345 51.3798 45.6784 51.1916 45.3065L49.6995 42.4802C49.6811 42.4058 49.626 42.3285 49.585 42.2599C49.5437 42.1983 49.4845 42.1513 49.4157 42.1252C49.3469 42.0991 49.2718 42.0953 49.2008 42.1142C49.1302 42.1316 49.0667 42.1709 49.0191 42.2266C48.9716 42.2823 48.9423 42.3517 48.9355 42.425C48.9497 42.4822 48.9639 42.5394 48.9399 42.6124C48.9489 43.2549 49.0017 43.9045 48.9937 44.5513C48.9845 45.387 49.036 46.2255 49.0691 47.0625C49.1053 47.2824 49.057 47.508 48.9342 47.693C48.8115 47.878 48.6236 48.0084 48.409 48.0576C48.0476 48.1495 47.6861 48.2413 47.3247 48.3332C47.1431 48.3853 46.9496 48.3741 46.7749 48.3017C46.6003 48.2292 46.4547 48.0995 46.3613 47.9333C46.2935 47.8289 46.2312 47.7231 46.1676 47.6115C45.4082 46.2413 44.6544 44.8697 43.895 43.4994C43.2728 42.3681 42.6392 41.2396 42.0043 40.1053C41.9265 39.9609 41.8431 39.8178 41.7695 39.6662C41.7175 39.5748 41.6868 39.4725 41.6799 39.3672C41.673 39.262 41.69 39.1565 41.7296 39.0589C41.7692 38.9613 41.8304 38.8742 41.9084 38.8043C41.9864 38.7344 42.0792 38.6835 42.1796 38.6557C42.3773 38.6054 42.5806 38.5537 42.7783 38.5035C42.9986 38.4475 43.2244 38.3901 43.439 38.3355C43.5923 38.3009 43.7523 38.3143 43.8979 38.374C44.0434 38.4337 44.1677 38.5368 44.2541 38.6697C44.378 38.8637 44.4918 39.0642 44.5949 39.2704C45.1593 40.4104 45.7194 41.5576 46.2781 42.699C46.3155 42.7735 46.3611 42.8436 46.4138 42.9078C46.5326 43.0723 46.671 43.1466 46.7726 43.0964C46.8402 43.0679 46.8982 43.0201 46.9395 42.9588C46.9808 42.8976 47.0037 42.8255 47.0054 42.7514C47.0191 42.2491 47.0328 41.7468 47.0226 41.2446C46.9949 40.2601 46.9504 39.2799 46.8945 38.3027C46.8681 38.136 46.8851 37.9652 46.9439 37.8072C47.0028 37.6493 47.1014 37.5097 47.23 37.4023C47.2808 37.3894 47.3357 37.2964 47.3809 37.3092C47.6987 37.3805 47.9372 37.1313 48.1744 37.0467C48.374 36.9879 48.5874 36.9989 48.7801 37.0779C48.9728 37.1569 49.1336 37.2993 49.2367 37.4823C49.3837 37.7368 49.5025 38.0229 49.6298 38.2704C49.9594 38.8983 50.2833 39.5276 50.6128 40.1556L51.32 41.4843C51.3539 41.5584 51.3937 41.6297 51.4388 41.6974C51.4681 41.7341 51.5058 41.7628 51.5486 41.7813C51.5914 41.7998 51.6381 41.8073 51.6844 41.8033C51.7308 41.7994 51.7755 41.7839 51.8146 41.7584C51.8537 41.7329 51.8861 41.6981 51.9089 41.657C51.9738 41.5284 52.0085 41.3863 52.0103 41.2419C52.0171 40.9057 51.9957 40.5766 51.9784 40.2403C51.9197 39.1299 51.8566 38.0267 51.7979 36.9164C51.7743 36.8028 51.7735 36.6855 51.7954 36.5715C51.8174 36.4576 51.8617 36.3493 51.9258 36.253C51.9898 36.1567 52.0724 36.0745 52.1684 36.0111C52.2644 35.9477 52.372 35.9045 52.4848 35.8841C52.8858 35.7822 53.2923 35.6788 53.6933 35.5769C53.7709 35.5485 53.854 35.5386 53.936 35.548C54.018 35.5574 54.0968 35.586 54.1661 35.6313C54.2355 35.6767 54.2936 35.7377 54.3358 35.8096C54.378 35.8815 54.4033 35.9623 54.4096 36.0457V36.0457Z" fill="#DFFF85"/>
<path d="M63.3116 42.688C63.3272 42.7509 63.3428 42.8139 63.3583 42.8768C63.4046 43.0204 63.4213 43.1721 63.4073 43.3226C63.3933 43.473 63.3489 43.6189 63.277 43.7512C63.2051 43.8835 63.1072 43.9995 62.9892 44.0919C62.8713 44.1843 62.7358 44.2511 62.5913 44.2883C62.2525 44.3745 61.9136 44.4606 61.5748 44.5467L59.4739 45.0807C59.3101 45.1224 59.152 45.1626 58.9882 45.2042C58.8478 45.2481 58.7001 45.2631 58.5539 45.2486C58.4077 45.234 58.2658 45.19 58.1365 45.1193C58.0072 45.0485 57.8932 44.9524 57.801 44.8364C57.7087 44.7205 57.6403 44.5871 57.5995 44.4441C57.4946 44.0206 57.3884 43.5914 57.2835 43.1679C56.7254 40.9132 56.1163 38.6715 55.513 36.4282C55.425 36.1263 55.4402 35.8031 55.556 35.511C55.6043 35.3503 55.6937 35.2056 55.8151 35.0913C55.9366 34.9771 56.0858 34.8975 56.2475 34.8608C56.8518 34.7072 57.4504 34.555 58.0547 34.4014C58.6195 34.2578 59.1842 34.1143 59.749 33.9707C59.9252 33.918 60.1093 33.898 60.2926 33.9116C60.4763 33.9424 60.6506 34.0154 60.8021 34.1252C60.9536 34.2349 61.0781 34.3785 61.1662 34.5447C61.2543 34.7109 61.3036 34.8954 61.3103 35.0839C61.317 35.2725 61.2809 35.4601 61.2048 35.6323C61.1116 35.8199 60.9805 35.9856 60.82 36.1186C60.6596 36.2516 60.4733 36.349 60.2733 36.4043C60.0181 36.4875 59.7578 36.5536 59.494 36.6024C59.3311 36.6307 59.1777 36.7001 59.0482 36.8043C58.9187 36.9084 58.8173 37.0439 58.7531 37.1983C58.6847 37.2929 58.655 37.4108 58.6704 37.527C58.6857 37.6433 58.7449 37.7491 58.8355 37.8221C58.957 37.9519 59.1103 38.0466 59.2799 38.0964C59.4494 38.1463 59.629 38.1497 59.8002 38.1061C60.1051 38.0286 60.4045 37.9525 60.7123 37.9107C60.8335 37.8872 60.9561 37.8723 61.0794 37.8661C61.2956 37.8467 61.5122 37.8995 61.6961 38.0164C61.88 38.1332 62.0212 38.3078 62.0982 38.5135C62.1368 38.6332 62.1671 38.7556 62.1888 38.8797C62.2652 39.154 62.2338 39.4475 62.1013 39.6989C61.9689 39.9503 61.7456 40.14 61.4782 40.2282C61.1253 40.3544 60.7552 40.412 60.3938 40.5039C60.2705 40.5211 60.1553 40.5753 60.0627 40.6596C59.9702 40.7438 59.9045 40.8542 59.8744 40.9765C59.8872 41.028 59.8181 41.0882 59.7969 41.1483C59.6024 41.5262 59.6491 41.715 59.991 41.9323C60.1552 42.0606 60.348 42.1461 60.5524 42.1811C60.7568 42.2161 60.9667 42.1996 61.1633 42.1331C61.4601 42.0394 61.7617 41.9628 62.0669 41.9034C62.3335 41.8537 62.6089 41.9065 62.8391 42.0516C63.0693 42.1967 63.2378 42.4236 63.3116 42.688Z" fill="#DFFF85"/>
<path d="M41.4078 64.0039C41.4662 64.1862 41.4517 64.3845 41.3673 64.5561C41.2829 64.7277 41.1355 64.8589 40.9566 64.9215C40.5037 65.0701 40.0415 65.1876 39.573 65.2732C39.3967 65.3025 39.2159 65.2623 39.0679 65.1607C38.92 65.0592 38.816 64.904 38.7775 64.7272C38.657 64.2408 38.5366 63.7543 38.4162 63.2679C38.3355 62.9417 38.2547 62.6155 38.174 62.2893C38.1186 62.1104 38.0324 61.9429 37.9194 61.7944C37.8563 61.7106 37.7721 61.6455 37.6757 61.6058C37.5793 61.5662 37.4743 61.5534 37.3713 61.5688C36.8755 61.6077 36.3866 61.7115 35.917 61.8776C35.7194 61.9279 35.5359 62.0353 35.3693 62.0898C35.0587 62.1688 34.9077 62.3592 34.8954 62.8186C34.9065 62.9007 34.9265 62.9813 34.9549 63.059C35.03 63.3623 35.0655 63.6756 35.1293 63.9817C35.1425 64.1075 35.173 64.2308 35.22 64.348C35.3944 64.7735 35.5056 65.2229 35.5501 65.6814C35.5776 65.7558 35.59 65.835 35.5866 65.9144C35.5832 65.9937 35.5639 66.0715 35.5301 66.1432C35.4963 66.2148 35.4485 66.2788 35.3897 66.3313C35.3308 66.3838 35.2622 66.4237 35.1878 66.4487L35.0692 66.4788C34.6513 66.585 34.2348 66.7213 33.8041 66.8004C33.643 66.8534 33.4679 66.8414 33.3152 66.7669C33.1626 66.6924 33.0442 66.5611 32.9847 66.4004C32.9019 66.2551 32.8372 66.0998 32.7923 65.9383C32.0699 63.182 31.348 60.4275 30.6266 57.675C30.5536 57.4102 30.5593 57.1294 30.6429 56.8679C30.6626 56.7862 30.7023 56.7109 30.7583 56.6489C30.8142 56.5868 30.8847 56.54 30.9631 56.5128C31.4432 56.3908 31.9133 56.2287 32.3962 56.1181C32.5485 56.0966 32.7036 56.1259 32.8381 56.2014C32.9726 56.2769 33.0792 56.3946 33.1421 56.5367C33.2865 56.9258 33.3984 57.3293 33.5201 57.7241C33.6419 58.119 33.785 58.6483 33.9237 59.1118C33.9579 59.2359 34.0277 59.347 34.1243 59.4307C34.221 59.5145 34.34 59.5672 34.4663 59.5821C34.6286 59.6048 34.7936 59.5979 34.9535 59.5617C35.4392 59.4383 35.9193 59.3163 36.3993 59.1942C36.5333 59.1717 36.6605 59.1189 36.7715 59.0397C36.8826 58.9604 36.9745 58.8568 37.0405 58.7365C37.1065 58.6163 37.1449 58.4824 37.1528 58.345C37.1607 58.2077 37.1379 58.0702 37.086 57.943C36.9189 57.2677 36.7531 56.5982 36.5874 55.9286C36.5043 55.7114 36.5092 55.4697 36.6009 55.2561C36.6411 55.1597 36.7021 55.0738 36.7796 55.0046C36.857 54.9354 36.9489 54.8848 37.0483 54.8565C37.4492 54.7546 37.8559 54.6512 38.2512 54.5508C38.3459 54.5209 38.4456 54.5107 38.5443 54.5207C38.6429 54.5307 38.7386 54.5608 38.8256 54.609C38.9126 54.6573 38.9891 54.7228 39.0506 54.8017C39.1121 54.8805 39.1573 54.9711 39.1836 55.068C39.2133 55.1882 39.2431 55.3083 39.2729 55.4285C39.6383 56.8077 39.9995 58.1858 40.3564 59.5631C40.6893 60.9079 41.0548 62.2384 41.4046 63.5545C41.3483 63.7635 41.3837 63.8822 41.4078 64.0039Z" fill="#DFFF85"/>
<path d="M51.3982 62.024C50.9496 62.3283 50.4106 62.4653 49.8734 62.4116C49.7317 62.3753 49.598 62.3123 49.4793 62.2259C49.2278 62.083 48.9848 61.9258 48.7389 61.8058C48.5549 61.6906 48.3493 61.6154 48.1351 61.585C47.9209 61.5547 47.7028 61.5698 47.4947 61.6294L46.8339 61.7973C46.6969 61.8412 46.5573 61.8767 46.416 61.9035C46.0708 61.9769 45.7506 62.1406 45.4871 62.3783C45.2237 62.616 45.0264 62.9194 44.9146 63.2584C44.8799 63.335 44.8535 63.4151 44.8357 63.4974C44.8208 63.6226 44.7667 63.7396 44.6814 63.8314C44.5961 63.9231 44.484 63.9847 44.3616 64.0072C44.0228 64.0934 43.6882 64.221 43.3394 64.2671C43.204 64.3029 43.062 64.3048 42.9257 64.2726C42.7894 64.2403 42.6629 64.1749 42.5571 64.082C42.4514 63.9891 42.3695 63.8715 42.3187 63.7393C42.2679 63.6072 42.2496 63.4645 42.2654 63.3235C42.3002 62.7612 42.3789 62.2059 42.449 61.6406C42.5767 60.6045 42.6917 59.5655 42.8307 58.5022C43.0301 57.0769 43.149 55.6415 43.3597 54.2133C43.3862 53.9763 43.4638 53.7481 43.587 53.5449C43.7102 53.3416 43.8758 53.1683 44.0724 53.0371C44.269 52.9059 44.4916 52.82 44.7245 52.7856C44.9574 52.7512 45.195 52.7691 45.4204 52.8379C45.7146 52.9184 45.9719 53.1004 46.148 53.3524C46.6442 54.0475 47.1672 54.7296 47.6691 55.3989L51.1072 60.0724C51.2528 60.2726 51.404 60.4714 51.5454 60.6787C51.6403 60.7684 51.7132 60.8793 51.7583 61.0026C51.8034 61.1259 51.8195 61.2581 51.8052 61.3888C51.7909 61.5195 51.7466 61.645 51.6759 61.7553C51.6053 61.8655 51.5102 61.9575 51.3982 62.024V62.024ZM46.0752 57.641C45.8124 57.4767 45.5582 57.517 45.4652 57.7961C45.3399 58.1032 45.2926 58.4373 45.3276 58.7678C45.2007 59.0312 45.081 59.3719 45.276 59.5291C45.5434 59.6691 45.8529 59.7021 46.1432 59.6215C46.4335 59.541 46.6833 59.3528 46.8431 59.0943C46.8641 58.8032 46.8032 58.512 46.6672 58.2547C46.5312 57.9975 46.3259 57.7846 46.0752 57.641V57.641Z" fill="#DFFF85"/>
<path d="M57.6677 50.2965C57.6121 51.3569 57.5465 52.4258 57.4852 53.4876C57.4323 54.3648 57.3737 55.2435 57.315 56.1221C57.2495 57.1425 57.1726 58.1656 57.0958 59.1888C57.0804 59.4178 57.0778 59.6496 57.0568 59.88C57.0476 60.0922 56.9713 60.2959 56.8392 60.4609C56.7071 60.6259 56.5263 60.7435 56.3232 60.7964C56.1029 60.8524 55.8827 60.9083 55.6624 60.9643C55.4422 61.0203 55.2219 61.0763 55.0016 61.1323C54.7807 61.1916 54.5468 61.1761 54.3354 61.0882C54.124 61.0003 53.9467 60.8448 53.8306 60.6453C53.3484 59.9102 52.8677 59.1808 52.387 58.4514C51.7536 57.4689 51.1301 56.4778 50.5037 55.4995C49.9594 54.6585 49.3995 53.8276 48.8608 52.9852C48.7529 52.8322 48.6721 52.6613 48.6218 52.4803C48.581 52.3206 48.5995 52.1513 48.6738 52.0046C48.7482 51.8578 48.8732 51.7439 49.025 51.6844C49.4176 51.5511 49.8198 51.4489 50.2279 51.3786C50.423 51.3428 50.6243 51.3675 50.8053 51.4496C50.9863 51.5317 51.1386 51.6672 51.2422 51.8385C51.3935 52.0616 51.5306 52.3005 51.6664 52.5336C52.4469 53.8438 53.2218 55.1553 53.9911 56.4683C54.0943 56.6428 54.2158 56.77 54.4333 56.7269C54.5345 56.7033 54.6253 56.6469 54.692 56.5663C54.7587 56.4857 54.7976 56.3852 54.8029 56.2801C54.8378 55.7177 54.8656 55.1511 54.8764 54.5887C54.8997 53.6643 54.9146 52.7542 54.9251 51.827C54.9305 51.5336 54.919 51.2202 54.9414 50.9469C54.9333 50.6922 55.0144 50.4428 55.1703 50.2429C55.3263 50.0429 55.547 49.9053 55.7934 49.8544C56.1323 49.7683 56.4768 49.6807 56.8156 49.5946C56.9195 49.5483 57.034 49.532 57.1465 49.5474C57.259 49.5628 57.3651 49.6093 57.4532 49.6819C57.5413 49.7544 57.6078 49.8502 57.6457 49.9586C57.6835 50.0671 57.6912 50.184 57.6677 50.2965Z" fill="#DFFF85"/>
<path d="M66.4888 56.6613C66.5044 56.7242 66.5186 56.7814 66.5342 56.8444C66.5822 56.9879 66.6003 57.14 66.5872 57.2911C66.574 57.4421 66.5298 57.5887 66.4576 57.7215C66.3854 57.8543 66.2869 57.9704 66.168 58.0624C66.0491 58.1544 65.9126 58.2203 65.7672 58.2559C65.4283 58.342 65.0894 58.4282 64.7506 58.5143L62.6568 59.0769L62.1993 59.1932C61.9157 59.2785 61.6102 59.2464 61.3499 59.1039C61.0896 58.9615 60.8957 58.7202 60.8106 58.4331C60.7043 58.0039 60.5995 57.5804 60.4932 57.1512C59.9351 54.8965 59.326 52.6548 58.7227 50.4115C58.6369 50.1112 58.6526 49.7903 58.7672 49.5C58.8154 49.3393 58.9049 49.1945 59.0263 49.0803C59.1478 48.9661 59.2969 48.8866 59.4586 48.8498C60.0629 48.6962 60.6615 48.544 61.2658 48.3904C61.8306 48.2468 62.3953 48.1033 62.96 47.9598C63.1382 47.907 63.3242 47.8865 63.5094 47.8992C63.6928 47.9306 63.8666 48.0042 64.0176 48.1144C64.1685 48.2246 64.2924 48.3683 64.38 48.5346C64.4675 48.701 64.5163 48.8854 64.5225 49.0738C64.5288 49.2621 64.4922 49.4494 64.4158 49.6213C64.3237 49.8094 64.1928 49.9751 64.0319 50.1074C63.8709 50.2396 63.6837 50.3352 63.4831 50.3876C63.2286 50.4736 62.968 50.5399 62.7037 50.5857C62.5407 50.6158 62.3878 50.6865 62.2587 50.7916C62.1295 50.8966 62.0284 51.0326 61.9642 51.1873C61.8972 51.2824 61.8684 51.3998 61.8837 51.5157C61.899 51.6316 61.9573 51.7372 62.0466 51.8111C62.1688 51.9416 62.3233 52.0366 62.4939 52.0863C62.6645 52.136 62.8451 52.1385 63.017 52.0937L63.9234 51.8998C64.0446 51.8762 64.1673 51.8612 64.2906 51.8551C64.5068 51.8357 64.7234 51.8885 64.9073 52.0054C65.0912 52.1222 65.2323 52.2968 65.3092 52.5025C65.348 52.6222 65.3783 52.7446 65.3999 52.8687C65.4733 53.1429 65.4407 53.4352 65.3086 53.6858C65.1765 53.9364 64.9549 54.1265 64.6892 54.2173C64.3349 54.3378 63.9735 54.4296 63.612 54.5215C63.4893 54.5381 63.3741 54.5913 63.2813 54.6745C63.1886 54.7577 63.1225 54.8669 63.0913 54.9884C63.073 55.0489 63.047 55.1066 63.0138 55.1602C62.8263 55.5424 62.8674 55.7327 63.2079 55.9442C63.3708 56.0749 63.5637 56.1619 63.7686 56.197C63.9735 56.2321 64.1838 56.2142 64.3801 56.145C64.6768 56.0513 64.9785 55.9746 65.2837 55.9153C65.5396 55.8717 65.8024 55.9232 66.0238 56.0602C66.2452 56.1973 66.4103 56.4107 66.4888 56.6613V56.6613Z" fill="#DFFF85"/>
<path d="M79.2702 54.4831C78.8217 54.7875 78.2827 54.9245 77.7454 54.8707C77.6037 54.8344 77.4701 54.7714 77.3514 54.685C77.0999 54.5421 76.8569 54.3849 76.6111 54.2649C76.4272 54.1494 76.2215 54.074 76.0073 54.0436C75.793 54.0132 75.5749 54.0285 75.3668 54.0885L74.7061 54.2564C74.5691 54.3004 74.4294 54.3359 74.2881 54.3627C73.9431 54.4366 73.6231 54.6005 73.3598 54.8381C73.0965 55.0757 72.899 55.3788 72.7867 55.7175C72.7514 55.7929 72.7268 55.8728 72.7135 55.9551C72.6986 56.0803 72.6445 56.1973 72.5592 56.289C72.4738 56.3808 72.3618 56.4424 72.2394 56.4649C71.9005 56.5511 71.5716 56.6773 71.2172 56.7248C71.0817 56.7606 70.9398 56.7625 70.8035 56.7302C70.6672 56.698 70.5406 56.6326 70.4349 56.5396C70.3291 56.4467 70.2473 56.3291 70.1965 56.197C70.1457 56.0648 70.1273 55.9222 70.1431 55.7812C70.1779 55.2188 70.2566 54.6636 70.3267 54.0983C70.4488 53.0636 70.5638 52.0246 70.7028 50.9613C70.9079 49.5345 71.021 48.1006 71.2317 46.6724C71.2593 46.4358 71.3375 46.2083 71.4609 46.0056C71.5843 45.8029 71.75 45.6299 71.9463 45.4989C72.1426 45.3679 72.3649 45.2819 72.5974 45.247C72.8299 45.2122 73.0671 45.2293 73.2924 45.297C73.5876 45.3796 73.8453 45.5635 74.0215 45.8173C74.5163 46.5066 75.0336 47.1902 75.5369 47.8652L78.975 52.5387C79.122 52.7446 79.2775 52.9362 79.4189 53.1436C79.5115 53.234 79.5825 53.3447 79.6261 53.4673C79.6697 53.5899 79.6849 53.721 79.6705 53.8505C79.6562 53.98 79.6126 54.1044 79.5432 54.214C79.4738 54.3237 79.3803 54.4158 79.2702 54.4831V54.4831ZM73.9473 50.1001C73.6845 49.9358 73.4303 49.9761 73.3373 50.2552C73.2146 50.5631 73.1674 50.8965 73.1997 51.2269C73.0729 51.4903 72.953 51.831 73.148 51.9882C73.4154 52.1282 73.725 52.1612 74.0153 52.0806C74.3056 52.0001 74.5555 51.8119 74.7152 51.5534C74.7377 51.2621 74.6774 50.9704 74.5412 50.7128C74.4051 50.4552 74.199 50.2426 73.9473 50.1001V50.1001Z" fill="#DFFF85"/>
<path d="M47.9489 71.7328C47.9369 72.1121 47.8832 72.4889 47.7888 72.8562C47.4375 73.6497 46.8802 74.3317 46.1763 74.8293C45.9241 74.9878 45.6507 75.1085 45.3646 75.1877C44.982 75.3154 44.5867 75.4158 44.1913 75.5163C44.1072 75.5367 44.0285 75.5758 43.9611 75.6308C43.8938 75.6858 43.8393 75.7553 43.8018 75.8343C43.7452 75.9292 43.7281 76.0429 43.7541 76.1506C43.781 76.2593 43.8079 76.3681 43.8334 76.4711C43.9977 77.1349 44.0558 77.3695 44.2187 78.0276C44.2574 78.1474 44.2877 78.2698 44.3094 78.3938C44.3306 78.5289 44.299 78.6669 44.2213 78.7787C44.1436 78.8904 44.0259 78.9671 43.8933 78.9923C43.3624 79.1273 42.8316 79.2622 42.3064 79.3957L42.2611 79.4072C42.1617 79.4344 42.056 79.425 41.9627 79.3809C41.8694 79.3367 41.7944 79.2605 41.7512 79.1658C41.6893 79.0376 41.6437 78.9021 41.6153 78.7623C41.4056 77.9154 41.3022 77.4977 41.06 76.6651C41.0218 76.5106 40.9835 76.356 40.9453 76.2015L40.5812 74.7308C40.4636 74.2559 40.346 73.7809 40.2284 73.3059C40.2153 73.2283 40.1963 73.1517 40.1718 73.077C40.0798 72.8753 40.2449 72.6448 40.0739 72.4389C39.9669 72.2703 39.8902 72.0839 39.8475 71.8882C39.8064 71.7222 39.7639 71.5505 39.7228 71.3846L39.414 70.137C39.3842 70.0169 39.3531 69.891 39.3233 69.7708C39.2876 69.635 39.3009 69.4907 39.3609 69.3639C39.4208 69.2372 39.5235 69.1363 39.6504 69.0794C39.7617 69.0255 39.8769 68.98 39.9948 68.9432C41.1243 68.6561 42.1959 68.3289 43.3085 68.0705C44.0992 67.8517 44.9383 67.8942 45.7036 68.1916C46.1916 68.3673 46.6316 68.6575 46.9877 69.0385C47.3439 69.4194 47.6061 69.8803 47.7529 70.3836C47.8916 70.8192 47.9578 71.2751 47.9489 71.7328V71.7328ZM44.3245 70.6954C44.1264 70.6767 43.9267 70.6865 43.7314 70.7245C43.4852 70.7719 43.2419 70.8337 43.0028 70.9097C42.9252 70.9219 42.8512 70.9514 42.786 70.9959C42.7208 71.0404 42.6662 71.0988 42.6258 71.1671C42.5854 71.2354 42.5604 71.3119 42.5524 71.3911C42.5445 71.4703 42.5538 71.5503 42.5798 71.6255C42.6548 71.9288 42.7313 72.2378 42.8064 72.5411C42.8149 72.5755 42.822 72.6041 42.8291 72.6327C42.8474 72.6984 42.8791 72.7596 42.9219 72.8124C42.9647 72.8652 43.0178 72.9085 43.0779 72.9395C43.138 72.9705 43.2038 72.9885 43.2711 72.9925C43.3384 72.9965 43.4058 72.9864 43.4691 72.9627C43.6046 72.9282 43.7402 72.8938 43.8757 72.8593C44.067 72.8248 44.2557 72.7768 44.4404 72.7158C44.6177 72.6575 44.7772 72.554 44.9036 72.4154C45.0301 72.2767 45.1194 72.1075 45.1629 71.9239C45.2013 71.7865 45.2094 71.6423 45.1864 71.5014C45.1633 71.3606 45.1098 71.2266 45.0297 71.1092C44.9496 70.9918 44.8448 70.8938 44.7228 70.8223C44.6009 70.7507 44.4649 70.7074 44.3245 70.6954V70.6954Z" fill="#DFFF85"/>
<path d="M57.9937 75.0616C57.5432 75.3615 57.0058 75.4981 56.4689 75.4492C56.3255 75.4176 56.1909 75.3542 56.0748 75.2635C55.8233 75.1206 55.5817 74.9691 55.3344 74.8434C55.15 74.7292 54.9444 74.6546 54.7304 74.6243C54.5164 74.5939 54.2984 74.6084 54.0902 74.667L53.4294 74.8349C53.2923 74.8789 53.1528 74.9144 53.0115 74.9411C52.6664 75.0164 52.3465 75.1814 52.0835 75.42C51.8205 75.6586 51.6233 75.9625 51.5115 76.3018C51.4748 76.3766 51.4501 76.4567 51.4383 76.5394C51.4233 76.6645 51.3693 76.7815 51.2839 76.8732C51.1986 76.965 51.0866 77.0266 50.9642 77.0492C50.6253 77.1353 50.2949 77.2558 49.942 77.309C49.8067 77.3434 49.6652 77.3442 49.5295 77.3114C49.3938 77.2786 49.268 77.2131 49.1626 77.1205C49.0572 77.0279 48.9754 76.911 48.9241 76.7795C48.8728 76.6481 48.8535 76.506 48.868 76.3655C48.9028 75.8031 48.98 75.2421 49.0516 74.6825C49.1779 73.6407 49.2929 72.6017 49.4333 71.5442C49.6397 70.1231 49.7516 68.6835 49.9637 67.261C49.9902 67.024 50.0678 66.7958 50.191 66.5925C50.3141 66.3893 50.4798 66.2159 50.6764 66.0847C50.873 65.9535 51.0956 65.8677 51.3285 65.8333C51.5614 65.7989 51.799 65.8167 52.0243 65.8856C52.3199 65.9633 52.5781 66.1459 52.752 66.4001C53.2482 67.0952 53.7641 67.773 54.2674 68.448C55.4134 70.0058 56.56 71.5656 57.7069 73.1272C57.8525 73.3274 58.0094 73.5248 58.1508 73.7321C58.2411 73.8231 58.3098 73.9338 58.3517 74.0557C58.3935 74.1776 58.4073 74.3075 58.3922 74.4357C58.377 74.5638 58.3333 74.6868 58.2642 74.7952C58.1952 74.9037 58.1027 74.9948 57.9937 75.0616V75.0616ZM52.6706 70.6787C52.4064 70.5086 52.1537 70.5546 52.0607 70.8337C51.9402 71.1422 51.893 71.4751 51.9231 71.8054C51.7976 72.0745 51.6765 72.4095 51.8715 72.5667C52.1386 72.7081 52.4486 72.7419 52.7393 72.6612C53.03 72.5806 53.2798 72.3915 53.4386 72.1319C53.4586 71.8448 53.3976 71.5578 53.2626 71.3045C53.1276 71.0512 52.9243 70.8421 52.6763 70.7016L52.6706 70.6787Z" fill="#DFFF85"/>
<path d="M62.0323 64.412C62.105 64.7029 62.0656 65.011 61.922 65.2735C61.7785 65.536 61.5416 65.7332 61.2596 65.825C61.0066 65.9203 60.7965 66.1056 60.6683 66.3463C60.6106 66.4393 60.5728 66.5435 60.5573 66.6522C60.5418 66.7609 60.549 66.8717 60.5784 66.9774C60.6238 67.1606 60.6691 67.3437 60.7201 67.5497L62.0105 72.4711C62.0459 72.6141 62.0813 72.7572 62.1153 72.8945C62.1796 73.0616 62.2005 73.2426 62.1762 73.4202C62.1519 73.5978 62.0831 73.7662 61.9764 73.9092C61.9253 74.0086 61.8547 74.0965 61.7691 74.1674C61.6835 74.2383 61.5845 74.2908 61.4782 74.3217C61.3427 74.3562 61.2014 74.3921 61.0602 74.428L60.761 74.504C60.6375 74.5437 60.5075 74.5574 60.3786 74.5445C60.2498 74.5316 60.1248 74.4923 60.0114 74.4289C59.8981 74.3656 59.7986 74.2796 59.719 74.176C59.6395 74.0725 59.5816 73.9537 59.5488 73.8267C59.3897 73.3988 59.2665 72.9581 59.1806 72.5092C59.0402 71.7723 58.7798 71.0599 58.5716 70.3403C58.5592 70.301 58.5493 70.2608 58.5419 70.2202C58.4918 69.4117 58.0309 68.7138 57.9187 67.9455C57.9112 67.9029 57.9008 67.8608 57.8876 67.8196C57.8303 67.6164 57.7089 67.4378 57.5421 67.3111C57.3752 67.1844 57.172 67.1164 56.9635 67.1178C56.5921 67.124 56.2221 67.0702 55.8675 66.9584C55.7984 66.9308 55.7238 66.9205 55.65 66.9285C55.53 66.8138 55.4395 66.671 55.3867 66.5126C55.3339 66.3542 55.3203 66.1851 55.3471 66.0201C55.3515 66.0104 55.3525 65.9994 55.3499 65.989C55.3474 65.9786 55.3414 65.9694 55.3329 65.9629C55.3267 65.8881 55.3262 65.813 55.3313 65.7382C55.3485 65.488 55.4439 65.2498 55.6037 65.0582C55.7636 64.8666 55.9795 64.7317 56.2202 64.6729C57.6518 64.2806 59.0904 63.8926 60.5362 63.5089C60.7272 63.4555 60.9263 63.4379 61.1236 63.4569C61.3545 63.4999 61.5665 63.6152 61.7295 63.7865C61.8925 63.9578 61.9983 64.1766 62.0323 64.412V64.412Z" fill="#DFFF85"/>
<path d="M67.6527 71.329C67.7122 71.5165 67.7595 71.7076 67.7944 71.9013C67.8217 72.0653 67.7911 72.2338 67.7081 72.3772C67.625 72.5207 67.4948 72.6299 67.3403 72.6858C66.8828 72.8021 66.4283 72.9541 65.9567 73.0375C65.7921 73.0694 65.6216 73.0391 65.4775 72.9526C65.3333 72.866 65.2253 72.729 65.1739 72.5674C65.1177 72.3893 65.0728 72.2077 65.0393 72.0237C64.8679 71.3313 64.6965 70.6389 64.4926 69.9608C64.4374 69.7376 64.3482 69.523 64.2704 69.3055C64.2372 69.2067 64.2121 69.1053 64.1953 69.0023C64.0804 68.3686 63.9141 67.7456 63.6981 67.1396C63.523 66.5168 63.3788 65.8856 63.266 65.2482C63.2321 64.978 63.1665 64.7129 63.0705 64.4585C62.9462 64.1264 62.8606 63.7807 62.8155 63.4284C62.7911 63.3571 62.7817 63.2815 62.7879 63.2063C62.794 63.1311 62.8155 63.0581 62.8511 62.9918C62.8866 62.9255 62.9354 62.8675 62.9943 62.8214C63.0533 62.7753 63.121 62.7422 63.1933 62.7241C63.6818 62.5634 64.183 62.43 64.6956 62.3423C64.8475 62.3192 65.0026 62.348 65.1366 62.424C65.2706 62.5001 65.3758 62.6191 65.4358 62.7624C65.5098 62.945 65.5685 63.1335 65.6114 63.326C65.9712 64.6822 66.3272 66.0394 66.6795 67.3976L67.6527 71.329Z" fill="#DFFF85"/>
<path d="M78.6868 64.6374C78.7226 64.7571 78.7413 64.8814 78.7421 65.0065C78.7738 65.7613 78.6916 66.5165 78.4983 67.2461C78.3183 67.8168 78.0452 68.353 77.6904 68.8323C77.0517 69.688 76.1892 70.3456 75.2008 70.7303C74.4239 71.0548 73.5842 71.1951 72.7456 71.1405C71.9071 71.0858 71.092 70.8378 70.3625 70.4152C69.5597 69.9724 68.8831 69.3273 68.3981 68.5422C68.0056 67.8516 67.7551 67.0876 67.662 66.2962C67.5735 65.6855 67.5903 65.0638 67.7114 64.4589C67.7797 64.1317 67.8841 63.8134 68.0227 63.5099C68.3191 62.7247 68.7954 62.022 69.4121 61.4596C69.8206 61.0737 70.297 60.769 70.8165 60.5613C71.2484 60.3574 71.7066 60.2163 72.1775 60.1424C73.2315 59.8909 74.3371 59.9847 75.3352 60.4102C76.1711 60.7277 76.9089 61.2644 77.4731 61.9654C78.0847 62.7436 78.5011 63.6605 78.6868 64.6374V64.6374ZM75.8698 64.9459C75.7733 64.497 75.5807 64.0751 75.3057 63.7099C75.0306 63.3446 74.6799 63.0451 74.2781 62.8323C73.8438 62.6071 73.3563 62.5084 72.87 62.5472C72.3836 62.586 71.9173 62.7608 71.5231 63.052C71.005 63.4024 70.6286 63.9299 70.4624 64.5382C70.3847 64.7472 70.3318 64.9648 70.3047 65.1865C70.2734 65.8609 70.439 66.5298 70.7807 67.1093C71.0643 67.6374 71.5042 68.062 72.0384 68.3234C72.5726 68.5848 73.1742 68.6698 73.7586 68.5665C74.079 68.5162 74.3859 68.4003 74.6606 68.2259C74.9353 68.0515 75.172 67.8222 75.3564 67.552C75.6463 67.1936 75.8449 66.7684 75.9344 66.3139C76.0239 65.8595 76.0016 65.3897 75.8698 64.9459V64.9459Z" fill="#DFFF85"/>
</svg>
