<svg viewBox="0 0 37 37" fill="none" xmlns="http://www.w3.org/2000/svg">
<g clip-path="url(#clip0)">
<path d="M18.2 0C8.19 0 0 8.19 0 18.2C0 28.21 8.19 36.4 18.2 36.4C28.21 36.4 36.4 28.21 36.4 18.2C36.4 8.19 28.21 0 18.2 0ZM22.0675 18.2H19.565C19.565 22.295 19.565 27.3 19.565 27.3H15.8113C15.8113 27.3 15.8113 22.295 15.8113 18.2H13.9913V15.015H15.8113V12.9675C15.8113 11.4888 16.4937 9.1 19.6787 9.1H22.5225V12.1713C22.5225 12.1713 20.8163 12.1713 20.475 12.1713C20.1338 12.1713 19.6787 12.285 19.6787 13.0813V15.015H22.5225L22.0675 18.2Z" fill="#FFFFFF"/>
</g>
<defs>
<clipPath id="clip0">
<rect width="36.4" height="36.4" fill="white"/>
</clipPath>
</defs>
</svg>
