<svg viewBox="0 0 179 29" fill="none" xmlns="http://www.w3.org/2000/svg">
<path d="M18.1113 22.7186C18.1113 26.3295 12.3006 29 6.75401 29C3.05628 29 0 28.0973 0 25.6148C0 23.9975 1.50927 22.7186 3.81092 22.192C3.16948 21.6278 2.82989 20.8755 2.82989 20.048C2.82989 18.6187 3.99958 17.0766 5.81071 16.5876C2.6035 15.9858 0.792369 14.4436 0.792369 12.1868C0.792369 9.21535 4.22597 6.99616 8.71606 6.99616C10.7159 6.99616 12.3761 7.29707 13.5835 7.78604L18.6395 6.8457L18.8282 6.95854L17.9604 10.1557L15.9229 9.59149C16.2624 10.1557 16.4511 10.7951 16.4511 11.4722C16.4511 14.4812 13.0552 16.7757 8.48967 16.7757C8.15008 16.7757 7.73503 16.7757 7.43318 16.7381C7.16906 16.9637 7.05586 17.2646 7.05586 17.5655C7.05586 18.2426 7.6973 18.5435 9.09338 18.694L13.6967 19.371C16.6398 19.7471 18.1113 20.8003 18.1113 22.7186ZM13.0552 25.1635C13.0552 24.3736 12.2629 23.9598 10.9045 23.7342L5.84844 22.9819C5.35793 23.5085 5.0938 24.1855 5.0938 24.8626C5.0938 26.4047 6.26349 27.5707 8.75379 27.5707C11.3196 27.5707 13.0552 26.4047 13.0552 25.1635ZM6.45215 10.9832C6.45215 13.3528 7.43318 15.2711 8.98019 15.2711C10.0744 15.2711 10.7913 14.2179 10.7913 12.751C10.7913 10.3814 9.73482 8.5007 8.18782 8.5007C7.13132 8.46308 6.45215 9.51626 6.45215 10.9832Z" fill="#414042"/>
<path d="M33.2795 7.37231L31.808 11.9988H31.6193C31.0533 11.5474 30.4873 11.2841 29.7704 11.2841C28.9026 11.2841 27.9593 11.6226 27.2047 12.1492V19.4462L28.6385 22.4929V22.681H20.3375V22.4929L21.3185 19.4462V11.3217L20.3375 8.50071V8.31264L26.9783 6.80811L27.1669 6.92095V10.8327C28.2234 8.31264 29.8836 6.92095 31.7702 6.92095C32.3362 6.92095 32.9022 7.10901 33.2795 7.37231Z" fill="#414042"/>
<path d="M50.1456 19.0701C49.806 21.4397 47.8063 23.0947 45.6933 23.0947C43.7312 23.0947 42.5993 21.8911 42.3351 19.7847C41.6182 21.4397 39.6184 23.17 37.0527 23.17C34.3737 23.17 32.6758 21.6278 32.6758 19.371C32.6758 15.572 36.5622 14.2556 42.2974 13.8418C42.1465 11.4345 40.4485 10.6823 38.7129 10.6823C36.9017 10.6823 35.2415 11.4722 34.0719 12.4877L33.8077 12.4125C34.902 9.02729 37.845 6.8457 41.4296 6.8457C45.8065 6.8457 48.1081 9.55387 48.1081 13.6161V17.3775C48.1081 18.4307 48.3722 19.1453 49.1646 19.1453C49.4665 19.1453 49.6929 19.0701 49.8815 18.9572L50.1456 19.0701ZM42.2597 18.4307V16.3619C40.9391 15.7225 39.8071 15.5344 38.9393 15.5344C37.9582 15.5344 37.2791 15.9106 37.2791 16.8509C37.2791 18.1674 38.3356 19.1453 39.9958 19.1453C40.7881 19.1077 41.6182 18.882 42.2597 18.4307Z" fill="#414042"/>
<path d="M69.1625 14.4436C69.1625 19.3334 65.4648 22.9443 60.4842 22.9443C59.39 22.9443 58.3335 22.7186 57.4656 22.3425V25.3139L58.8994 28.3606V28.5487H50.6362V28.3606L51.6172 25.3139V11.3217L50.6362 8.50071V8.31265L57.277 6.80811L57.4656 6.92095V10.4566C58.4467 8.23742 60.4465 6.80811 62.7481 6.80811C66.4458 6.80811 69.1625 10.0053 69.1625 14.4436ZM63.2386 17.2647C63.2386 13.5785 61.6539 10.8704 59.4277 10.8704C58.6731 10.8704 57.9562 11.2089 57.4279 11.7731V19.1077C58.1825 20.537 59.4277 21.5526 60.6351 21.5526C62.2576 21.5526 63.2386 19.8224 63.2386 17.2647Z" fill="#414042"/>
<path d="M86.6324 13.9922L86.3683 14.1427C83.7648 14.2555 79.5388 14.1803 76.9353 14.0298C77.4258 17.1518 79.3501 18.7315 82.0668 18.7315C83.878 18.7315 85.274 18.0169 86.1041 17.0765L86.2928 17.1518C85.7268 20.8755 82.7837 22.9442 79.0483 22.9442C73.9167 22.9442 70.8604 19.8223 70.8604 15.0454C70.8604 10.2685 74.5582 6.9209 79.2747 6.9209C84.0289 6.99613 86.6701 9.92998 86.6324 13.9922ZM76.7844 12.6758L81.2744 12.3372C80.9349 9.62907 79.8406 8.65112 78.7841 8.65112C77.6145 8.65112 76.7844 9.96759 76.7844 12.2996V12.4125V12.6758Z" fill="#414042"/>
<path d="M94.0278 15.2711C94.0278 10.3813 97.4614 6.9585 102.706 6.9585C104.819 6.9585 107.083 7.59793 108.781 8.95201L105.725 12.0739H105.612C104.593 9.96757 103.348 8.6511 101.952 8.6511C100.744 8.6511 99.8008 9.74189 99.8008 11.7354C99.8008 15.6472 101.801 18.6563 104.97 18.6563C106.366 18.6563 107.687 18.0921 108.592 17.0765L108.781 17.1518C108.404 21.1012 105.951 23.0195 101.763 23.0195C97.1596 22.9818 94.0278 19.8223 94.0278 15.2711Z" fill="#414042"/>
<path d="M123.761 7.37231L122.289 11.9988H122.1C121.534 11.5474 120.968 11.2841 120.251 11.2841C119.384 11.2841 118.44 11.6226 117.686 12.1492V19.4462L119.12 22.4929V22.681H110.856V22.4929L111.837 19.4462V11.3217L110.856 8.50071V8.31264L117.497 6.80811L117.686 6.92095V10.8327C118.742 8.31264 120.402 6.92095 122.289 6.92095C122.817 6.92095 123.421 7.10901 123.761 7.37231Z" fill="#414042"/>
<path d="M143.872 19.0701C143.532 21.4398 141.532 23.0948 139.419 23.0948C137.382 23.0948 136.212 21.7783 136.023 19.4463C135.156 21.7031 133.08 23.1324 130.665 23.1324C127.194 23.1324 125.534 20.1609 125.534 16.1739V11.2841L124.553 8.46312V8.27505L131.194 6.77051L131.382 6.88335V15.4216C131.382 18.0922 132.401 19.0701 133.873 19.0701C134.627 19.0701 135.42 18.7316 135.986 18.2426V11.3217L135.005 8.50073V8.31266L141.645 6.80812L141.834 6.92096V17.3775C141.834 18.4307 142.098 19.1453 142.891 19.1453C143.192 19.1453 143.419 19.0701 143.607 18.9573L143.872 19.0701Z" fill="#414042"/>
<path d="M144.626 21.0635L146.702 17.7159H146.852C148.098 20.048 149.984 21.5901 151.644 21.5901C152.701 21.5901 153.342 21.0259 153.342 20.1608C153.342 19.07 152.701 18.4306 150.362 17.3774L149.38 16.9261C146.173 15.3839 145.041 14.1803 145.041 12.0739C145.041 9.02722 147.796 6.99609 152.399 6.99609C154.852 6.99609 157.191 7.59791 158.889 8.53825L156.285 11.1712H156.097C155.078 9.36574 153.757 8.42541 152.248 8.42541C151.192 8.42541 150.437 8.98961 150.437 9.77949C150.437 10.7198 151.116 11.284 153.757 12.4877L155.04 13.0895C157.644 14.2931 158.738 15.6848 158.738 17.7159C158.738 20.9131 155.908 22.9818 151.493 22.9818C148.89 22.9818 146.475 22.3048 144.626 21.0635Z" fill="#414042"/>
<path d="M179 22.4929V22.6809H171.19V22.4929L172.171 19.4462V14.5564C172.171 11.9235 171.114 10.9455 169.643 10.9455C168.812 10.9455 167.907 11.284 167.379 11.8482V19.4462L168.36 22.4929V22.6809H160.549V22.4929L161.53 19.4462V4.51362L160.549 1.73022V1.54215L167.152 0L167.341 0.11284V10.6822C168.171 8.35019 170.322 6.80804 172.774 6.80804C176.359 6.80804 178.019 9.77951 178.019 13.7665V19.4462L179 22.4929Z" fill="#414042"/>
</svg>
