<svg viewBox="0 0 36 36" fill="none" xmlns="http://www.w3.org/2000/svg">
<circle cx="18" cy="18" r="18" fill="#DFFF85"/>
<path d="M15.2634 27.1694C16.0323 27.1694 16.6557 26.546 16.6557 25.7771C16.6557 25.0081 16.0323 24.3848 15.2634 24.3848C14.4944 24.3848 13.8711 25.0081 13.8711 25.7771C13.8711 26.546 14.4944 27.1694 15.2634 27.1694Z" fill="#2C148E"/>
<path d="M22.8103 27.1694C23.5792 27.1694 24.2026 26.546 24.2026 25.7771C24.2026 25.0081 23.5792 24.3848 22.8103 24.3848C22.0413 24.3848 21.418 25.0081 21.418 25.7771C21.418 26.546 22.0413 27.1694 22.8103 27.1694Z" fill="#2C148E"/>
<path d="M26.8263 10.9864C26.6851 10.8048 26.4631 10.7039 26.2411 10.7039H13.0042L12.8428 9.63444C12.7015 8.68606 11.8944 8 10.946 8H8.76677C8.34303 8 8 8.34303 8 8.76677C8 9.19052 8.34303 9.53355 8.76677 9.53355H10.9258C11.1074 9.53355 11.2689 9.67479 11.3092 9.8564L13.0446 21.358C13.2262 22.5283 14.1947 23.3556 15.3651 23.3556H23.6987C24.1224 23.3556 24.4654 23.0126 24.4654 22.5889C24.4654 22.1651 24.1224 21.8221 23.6987 21.8221H15.3852C14.9817 21.8221 14.6386 21.5194 14.5781 21.1159L14.3965 19.9657H24.6672C25.0304 19.9657 25.3533 19.7034 25.4138 19.3604L26.9877 11.6321C27.0281 11.4101 26.9675 11.168 26.8263 10.9864ZM24.8287 14.5781H22.2055L22.3266 12.2374H25.2928L24.8287 14.5781ZM17.8873 14.5781L17.7663 12.2374H20.793L20.6719 14.5781H17.8873ZM20.5912 16.1117L20.4702 18.4523H18.0689L17.9479 16.1117H20.5912ZM16.2327 12.2374L16.3538 14.5781H13.5894L13.2262 12.2374H16.2327ZM13.8113 16.1117H16.4143L16.5354 18.4523H14.1745L13.8113 16.1117ZM22.0037 18.4523L22.1248 16.1117H24.5058L24.0417 18.4523C24.0417 18.4523 22.0037 18.4523 22.0037 18.4523Z" fill="#2C148E"/>
</svg>
