<svg viewBox="0 0 37 37" fill="none" xmlns="http://www.w3.org/2000/svg">
    <g clip-path="url(#clip0)">
        <path d="M25.5113 10.8062H23.2363C22.7813 10.8062 22.44 11.1474 22.44 11.6024V13.8774C22.44 14.3324 22.7813 14.6737 23.2363 14.6737H25.5113C25.9663 14.6737 26.3075 14.3324 26.3075 13.8774V11.6024C26.1938 11.1474 25.8525 10.8062 25.5113 10.8062Z"
              fill="#414042"/>
        <path d="M24.715 18.1999C24.715 21.4987 22.0988 24.1149 18.8 24.1149C15.5013 24.1149 12.885 21.4987 12.885 18.1999C12.885 17.6312 12.9988 17.1762 13.1125 16.7212H11.4062V24.9112C11.4062 25.3662 11.7475 25.7074 12.2025 25.7074H25.5113C25.9663 25.7074 26.3075 25.3662 26.3075 24.9112V16.7212H24.4875C24.715 17.1762 24.715 17.6312 24.715 18.1999Z"
              fill="#414042"/>
        <path d="M18.8 21.9535C20.8475 21.9535 22.5538 20.2473 22.5538 18.1998C22.5538 16.1523 20.8475 14.446 18.8 14.446C16.7525 14.446 15.0463 16.1523 15.0463 18.1998C15.0463 20.2473 16.7525 21.9535 18.8 21.9535Z"
              fill="#414042"/>
        <path d="M18.8 0C8.79001 0 0.600006 8.19 0.600006 18.2C0.600006 28.21 8.79001 36.4 18.8 36.4C28.81 36.4 37 28.21 37 18.2C37 8.19 28.81 0 18.8 0ZM28.4688 25.5938C28.4688 26.845 27.445 27.8688 26.1938 27.8688H11.4063C10.155 27.8688 9.13126 26.845 9.13126 25.5938V10.8063C9.13126 9.555 10.155 8.53125 11.4063 8.53125H26.1938C27.445 8.53125 28.4688 9.555 28.4688 10.8063V25.5938Z"
              fill="#414042"/>
    </g>
    <defs>
        <clipPath id="clip0">
            <rect width="36.4" height="36.4" fill="white" transform="translate(0.600006)"/>
        </clipPath>
    </defs>
</svg>
