<svg viewBox="0 0 263 240" fill="none" xmlns="http://www.w3.org/2000/svg">
<path d="M238.4 138.644C238.68 143.658 229.909 147.484 228.673 151.903C227.417 156.544 232.909 164.353 230.243 168.229C227.631 172.021 218.274 169.815 214.422 172.947C210.867 175.794 211.332 185.409 206.814 187.534C202.763 189.48 195.265 183.365 190.557 184.662C186.125 185.897 183.22 195.052 178.301 195.745C173.795 196.344 168.463 188.281 163.47 188.339C158.838 188.386 153.824 196.573 148.874 196.186C144.285 195.788 140.703 186.816 135.934 185.951C130.551 184.937 123.281 191.829 118.078 190.338C112.791 188.795 110.269 179.071 105.248 177.104C100.056 175.031 91.6331 180.373 86.792 177.929C81.8661 175.432 81.3593 165.319 76.8368 162.367C72.1448 159.308 62.7807 162.762 58.6616 159.355C54.3413 155.703 56.145 145.858 52.5671 141.963C48.7033 137.771 38.7914 138.522 35.8925 134.109C32.8456 129.367 37.8173 120.681 36.0426 115.792C34.0883 110.437 24.8285 106.758 24.4853 101.468C24.2053 96.4538 32.9763 92.6275 34.2114 88.2089C35.4895 83.3451 29.9978 75.5366 32.6633 71.6603C35.2756 67.8688 44.6326 70.0747 48.4843 66.9419C52.0389 64.0949 51.5739 54.4802 56.0921 52.3552C60.1438 50.4099 67.6409 56.5248 72.3489 55.2269C76.7813 53.9922 79.6865 44.8375 84.6057 44.144C89.1115 43.5454 94.4438 51.6081 99.4365 51.5507C104.069 51.5035 109.082 43.316 114.032 43.7037C118.621 44.1017 122.203 53.0737 126.972 53.9383C132.356 54.952 139.625 48.0605 144.828 49.551C150.116 51.0946 152.637 60.8179 157.659 62.7852C162.85 64.8587 171.273 59.5162 176.114 61.9602C181.04 64.4574 181.547 74.5704 186.07 77.5228C190.762 80.5815 200.126 77.127 204.245 80.5347C208.565 84.1865 206.761 94.0316 210.339 97.9263C214.203 102.118 224.115 101.367 227.014 105.78C230.061 110.522 225.089 119.208 226.864 124.097C228.712 129.622 238.056 133.354 238.4 138.644Z" fill="#4348E3"/>
<path d="M81.0477 117.799C80.7076 118.53 79.6365 118.921 78.7993 118.75C78.4073 118.622 78.0152 118.495 77.5384 118.314C74.0632 117.08 70.5032 115.793 67.0279 114.559C66.5512 114.378 66.0744 114.197 65.6507 113.932C64.9198 113.592 64.3696 112.775 64.6464 111.768C64.8917 110.624 65.1369 109.479 65.6894 108.409C66.1357 107.509 66.3595 106.587 66.6364 105.58C66.8171 105.103 66.9132 104.574 67.1256 104.235C67.7211 102.72 68.4545 101.173 68.9652 99.6048C69.9438 96.9136 70.8376 94.1693 71.8693 91.3934C72.4862 89.6558 73.1879 87.9713 73.9427 86.202C73.9958 86.1173 73.9642 85.9794 74.0704 85.81C74.8037 84.2633 75.5675 83.7978 77.1357 84.3086C78.2271 84.6386 79.3501 85.1064 80.4731 85.5742C81.6809 86.0951 82.1779 86.9967 81.8796 88.2259C81.7304 88.8405 81.5282 89.5399 81.2412 90.1861C80.9858 90.9702 80.5926 91.7859 80.3372 92.57C80.2095 92.962 80.1349 93.2693 80.0072 93.6614C80.293 93.9585 80.1009 95.0183 79.719 95.251C79.719 95.251 79.6659 95.3357 79.6976 95.4736C79.7393 95.9718 79.8658 96.5232 79.8545 97.1062C79.8116 97.5513 79.5777 98.1128 78.9099 98.0484C78.5495 98.0585 78.3586 98.1749 78.1462 98.5138C77.9868 98.768 77.9123 99.0753 77.8377 99.3827C76.9868 101.682 76.1359 103.981 75.3167 106.418C75.2421 106.725 75.0828 106.979 75.0082 107.287C74.7314 108.293 75.0273 108.951 75.8747 109.482C76.4678 109.854 77.1988 110.194 77.845 110.481C78.7986 110.842 79.8369 111.257 80.8435 111.534C81.9349 111.864 82.6229 112.649 82.3878 114.154C81.9302 115.638 81.4624 116.761 81.0477 117.799Z" fill="white"/>
<path d="M117.279 117.611C117.151 118.003 116.992 118.257 116.779 118.596C115.388 120.439 114.22 122.303 112.342 123.604C110.846 124.673 109.287 125.466 107.611 126.068C104.558 126.987 101.483 127.184 98.3255 126.385C93.186 125.17 89.3843 122.198 86.9735 117.382C85.7365 114.837 85.1672 112.356 85.3086 109.494C85.407 107.077 86.2895 104.916 87.2567 102.808C88.0432 101.176 89.1685 99.7572 90.4103 98.5291C91.1108 97.788 92.0124 97.2909 92.7762 96.8255C94.845 95.4076 97.1781 94.5096 99.6377 94.1628C101.27 94.0059 102.988 93.902 104.609 94.328C105.923 94.6795 107.428 94.9145 108.614 95.658C111.782 96.8174 114.09 98.9721 115.942 101.667C117.476 103.926 118.321 106.344 118.593 109.111C118.844 112.101 118.395 114.888 117.279 117.611ZM109.758 113.605C110.821 110.967 110.655 108.031 109.481 105.761C107.905 103.003 105.427 101.685 102.289 101.607C100.455 101.52 98.6736 102.292 97.1245 103.445C96.6364 103.847 96.0105 104.281 95.6387 104.874C94.4072 106.463 93.6524 108.232 93.5438 110.288C93.3798 114.316 95.0721 117.265 98.4196 118.891C100.221 119.784 102.139 119.924 104.005 119.205C106.837 118.266 108.949 116.403 109.758 113.605Z" fill="white"/>
<path d="M146.343 134.883C145.505 135.655 144.55 136.237 143.68 136.872C143.108 137.221 142.588 137.486 141.983 137.697C139.385 139.019 136.703 139.344 133.894 139.118C133.311 139.106 132.781 139.01 132.251 138.914C131.329 138.691 130.513 138.297 129.645 137.989C126.455 137.052 123.903 135.098 121.998 132.488C119.49 129.146 118.467 125.318 118.875 121.09C118.918 120.644 119.014 120.115 119.195 119.638C119.291 119.108 119.556 118.684 119.599 118.239C119.675 116.988 120.174 116.003 120.812 114.986C122.352 112.529 124.008 110.263 126.607 108.941C127.455 108.529 128.219 108.063 129.068 107.651C129.45 107.418 129.863 107.323 130.308 107.366C130.976 107.431 131.496 107.166 132.1 106.955C133.394 106.586 134.804 106.407 136.139 106.536C139.785 106.933 143.123 108.198 146.014 110.364C147.348 111.437 148.438 112.71 149.284 114.185C150.448 116.094 151.367 118.205 151.767 120.579C152.019 122.626 150.852 123.546 149.336 123.894C149.06 123.957 148.753 123.883 148.445 123.808C146.04 123.127 144.282 121.789 143.162 119.435C143.014 119.106 142.897 118.915 142.749 118.586C141.618 115.871 139.362 114.575 136.575 114.126C133.703 113.625 131.433 114.798 129.607 116.958C127.272 119.743 126.611 122.869 127.624 126.337C128.268 128.511 129.697 129.996 131.858 130.879C134.189 131.868 136.405 131.722 138.621 130.633C139.279 130.337 139.883 130.126 140.488 129.915C141.559 129.524 142.672 129.631 143.763 129.961C144.463 130.163 145.024 130.397 145.67 130.684C146.232 130.918 146.602 131.268 146.867 131.788C147.597 133.072 147.479 133.824 146.343 134.883Z" fill="white"/>
<path d="M171.55 152.097C169.939 152.031 168.424 151.436 167.174 150.417C166.888 150.119 166.709 149.653 166.561 149.324C166.233 148.529 165.906 147.733 165.44 146.969C164.88 145.792 163.938 144.848 162.677 144.411C161.977 144.209 161.416 143.975 160.77 143.688C160.378 143.561 159.986 143.433 159.509 143.252C157.316 142.232 155.449 142.95 153.508 143.976C153.317 144.092 153.073 144.293 152.882 144.41C152.288 144.981 151.599 145.14 150.868 144.8C149.914 144.438 148.908 144.161 147.869 143.746C146.185 143.045 145.657 141.062 146.783 139.643C147.855 138.309 148.959 137.112 150.063 135.916C152.08 133.639 154.15 131.278 156.251 129.055C159.159 125.921 161.898 122.68 164.807 119.547C166.908 117.323 170.183 117.37 172.163 119.672C172.766 120.404 173.094 121.2 173.177 122.196C173.248 124.719 173.319 127.242 173.475 129.818C173.638 135.585 173.853 141.267 174.015 147.033C174.036 147.754 174.056 148.475 174.076 149.196C174.095 150.86 173.161 152.163 171.55 152.097ZM165.861 132.363C165.449 131.515 164.803 131.228 164.124 131.746C163.444 132.265 162.468 133.069 162.128 133.8C161.364 134.266 160.494 134.901 160.706 135.505C161.138 137.074 163.798 137.915 165.272 137.069C165.442 137.175 167.077 135.131 165.861 132.363Z" fill="white"/>
<path d="M192.615 158.218C192.275 158.949 191.204 159.34 190.367 159.169C189.975 159.042 189.583 158.914 189.106 158.733C185.631 157.499 182.071 156.212 178.595 154.978C178.119 154.797 177.642 154.617 177.218 154.351C176.487 154.011 175.937 153.194 176.214 152.187C176.459 151.043 176.704 149.898 177.257 148.828C177.703 147.928 177.927 147.006 178.204 145.999C178.385 145.523 178.481 144.993 178.693 144.654C179.289 143.139 180.022 141.592 180.533 140.024C181.511 137.333 182.405 134.588 183.437 131.813C184.054 130.075 184.755 128.39 185.51 126.621C185.563 126.536 185.532 126.399 185.638 126.229C186.371 124.682 187.135 124.217 188.703 124.728C189.794 125.058 190.917 125.526 192.04 125.993C193.248 126.514 193.745 127.416 193.447 128.645C193.298 129.26 193.096 129.959 192.809 130.605C192.553 131.389 192.16 132.205 191.905 132.989C191.777 133.381 191.702 133.689 191.575 134.081C191.86 134.378 191.668 135.437 191.286 135.67C191.286 135.67 191.233 135.755 191.265 135.893C191.307 136.391 191.433 136.942 191.422 137.525C191.379 137.97 191.145 138.532 190.477 138.468C190.117 138.478 189.926 138.594 189.714 138.933C189.554 139.187 189.48 139.495 189.405 139.802C188.554 142.101 187.703 144.4 186.884 146.837C186.81 147.144 186.65 147.399 186.576 147.706C186.299 148.713 186.595 149.37 187.442 149.901C188.035 150.273 188.766 150.613 189.412 150.9C190.366 151.262 191.404 151.676 192.411 151.953C193.502 152.283 194.19 153.068 193.955 154.573C193.582 156.11 193.114 157.233 192.615 158.218Z" fill="white"/>
</svg>
