<svg viewBox="0 0 1548 326" fill="none" xmlns="http://www.w3.org/2000/svg">
<path d="M164.563 263.298C166.03 295.003 117.277 320.757 69.7043 322.957C37.9895 324.424 11.4097 317.71 10.4016 295.912C9.74478 281.711 22.1703 269.883 41.6973 264.347C35.9666 259.647 32.7486 253.176 32.4125 245.911C31.8321 233.361 41.2381 219.356 56.5733 214.344C28.8212 210.332 12.6612 197.51 11.7447 177.694C10.5381 151.603 39.0864 130.756 77.5972 128.975C94.7491 128.181 109.111 130.165 119.665 133.979L162.648 123.717L164.312 124.633L158.167 153.05L140.463 148.904C143.604 153.723 145.482 159.263 145.757 165.208C146.979 191.629 118.785 213.122 79.6268 214.933C76.7142 215.067 73.1543 215.232 70.5501 215.022C68.3764 217.108 67.5277 219.795 67.6499 222.437C67.9249 228.382 73.5486 230.769 85.5837 231.537L125.34 235.655C150.735 237.791 163.784 246.454 164.563 263.298ZM122.191 286.77C121.87 279.835 114.906 276.516 103.164 275.074L59.4936 270.474C55.5003 275.292 53.5099 281.342 53.7849 287.286C54.4111 300.827 64.9168 310.601 86.2758 309.614C108.282 308.596 122.695 297.669 122.191 286.77ZM59.799 164.88C60.7613 185.687 69.9544 202.141 83.2229 201.528C92.6078 201.094 98.329 191.562 97.7333 178.682C96.771 157.875 86.9459 141.781 73.6775 142.395C64.6008 142.483 59.2033 152 59.799 164.88Z" fill="#DFFF85"/>
<path d="M288.427 122.534L277.684 163.74L276.066 163.815C271.029 160.076 266.068 157.989 259.919 158.273C252.476 158.617 244.522 161.964 238.264 166.887L241.227 230.958L254.762 257.14L254.838 258.792L183.642 262.084L183.565 260.433L190.742 233.293L187.443 161.956L177.883 137.575L177.807 135.924L234.153 120.079L235.817 120.995L237.406 155.343C245.444 132.796 259.118 119.918 275.299 119.169C280.153 118.945 285.084 120.372 288.427 122.534Z" fill="#DFFF85"/>
<path d="M437.836 218.555C435.885 239.497 419.405 254.821 401.283 255.66C384.454 256.438 374.257 246.318 371.136 227.928C365.66 242.744 349.21 258.73 327.204 259.747C304.227 260.81 289.038 247.943 288.121 228.127C286.579 194.77 319.377 181.67 368.399 175.762C366.127 154.685 351.259 148.753 336.372 149.442C320.839 150.16 306.92 157.754 297.3 167.135L295.004 166.579C303.015 136.422 327.371 116.099 358.115 114.677C395.655 112.941 416.496 135.807 418.145 171.475L419.673 204.502C420.1 213.749 422.656 219.919 429.452 219.605C432.041 219.485 433.952 218.735 435.524 217.669L437.836 218.555ZM369.939 216.069L369.099 197.904C357.513 192.814 347.728 191.611 340.284 191.956C331.87 192.345 326.198 195.917 326.58 204.173C327.114 215.733 336.573 223.9 350.812 223.242C357.593 222.597 364.621 220.286 369.939 216.069Z" fill="#DFFF85"/>
<path d="M599.061 170.39C601.047 213.324 570.799 246.496 528.081 248.472C518.696 248.906 509.543 247.343 501.947 244.385L503.153 270.476L516.688 296.658L516.765 298.309L445.892 301.587L445.815 299.936L452.992 272.795L447.31 149.938L437.751 125.557L437.674 123.906L494.02 108.061L495.684 108.977L497.12 140.022C504.633 120.147 521.205 106.804 540.945 105.891C572.66 104.424 597.259 131.419 599.061 170.39ZM549.399 197.509C547.902 165.144 533.21 141.993 514.116 142.876C507.644 143.176 501.633 146.432 497.331 151.596L500.31 215.997C507.362 228.248 518.454 236.671 528.81 236.192C542.726 235.548 550.437 219.967 549.399 197.509Z" fill="#DFFF85"/>
<path d="M748.714 159.497L746.51 160.923C724.226 162.946 687.95 163.962 665.559 163.674C671.034 190.891 688.18 203.999 711.481 202.921C727.015 202.203 738.699 195.374 745.436 186.788L747.085 187.374C743.743 220.294 719.34 239.626 687.302 241.108C643.29 243.143 615.809 216.944 613.869 175C611.929 133.057 642.284 102.197 682.737 100.326C723.544 99.1007 747.389 123.813 748.714 159.497ZM663.715 151.844L702.088 147.091C698.076 123.446 688.294 115.294 679.232 115.713C669.2 116.177 662.615 128.065 663.562 148.541L663.608 149.532L663.715 151.844Z" fill="#DFFF85"/>
<path d="M812.664 167.792C810.678 124.858 838.737 93.4422 883.721 91.3618C901.843 90.5237 921.52 95.2401 936.633 106.456L911.688 135.08L910.717 135.125C901.124 117.035 889.909 105.969 877.936 106.523C867.58 107.002 859.932 116.954 860.742 134.458C862.33 168.805 880.704 194.433 907.888 193.176C919.862 192.622 930.96 187.144 938.314 177.868L939.963 178.453C938.33 213.281 918.074 231.097 882.152 232.758C842.655 234.254 814.512 207.754 812.664 167.792Z" fill="#DFFF85"/>
<path d="M1064.47 86.6431L1053.73 127.849L1052.11 127.924C1047.07 124.185 1042.11 122.098 1035.96 122.382C1028.52 122.727 1020.56 126.073 1014.31 130.996L1017.27 195.067L1030.8 221.25L1030.88 222.901L960.007 226.179L959.931 224.528L967.108 197.387L963.809 126.05L954.249 101.67L954.172 100.018L1010.52 84.1737L1012.18 85.0896L1013.77 119.437C1021.81 96.8903 1035.48 84.012 1051.66 83.2637C1056.2 83.0541 1061.45 84.466 1064.47 86.6431Z" fill="#DFFF85"/>
<path d="M1241.71 181.377C1239.76 202.319 1223.28 217.644 1205.16 218.482C1187.68 219.29 1177.11 208.195 1174.55 187.793C1168.02 207.953 1150.8 221.326 1130.09 222.284C1100.32 223.661 1084.87 198.229 1083.25 163.221L1081.27 120.287L1071.71 95.9063L1071.63 94.255L1127.98 78.4103L1129.64 79.3262L1133.11 154.296C1134.19 177.745 1143.33 185.927 1155.95 185.344C1162.42 185.044 1169.08 181.758 1173.74 177.24L1170.93 116.471L1161.37 92.0907L1161.29 90.4394L1217.64 74.5947L1219.3 75.5107L1223.55 167.324C1223.97 176.571 1226.53 182.741 1233.33 182.427C1235.91 182.307 1237.83 181.557 1239.4 180.491L1241.71 181.377Z" fill="#DFFF85"/>
<path d="M1248.99 198.582L1265.43 168.366L1266.72 168.306C1278.35 188.288 1295.16 201.081 1309.4 200.422C1318.46 200.003 1323.73 194.795 1323.38 187.198C1322.94 177.621 1317.18 172.261 1296.68 163.941L1288.09 160.367C1259.95 148.099 1249.76 137.979 1248.9 119.485C1247.66 92.7333 1270.46 73.8065 1309.94 71.9805C1330.98 71.0077 1351.29 75.364 1366.23 82.947L1344.97 107.098L1343.35 107.173C1333.88 91.7245 1322.17 83.9917 1309.23 84.5904C1300.17 85.0095 1293.93 90.2628 1294.25 97.1983C1294.63 105.455 1300.68 110.139 1323.82 119.66L1335.07 124.435C1357.89 133.971 1367.84 145.757 1368.67 163.591C1369.96 191.663 1346.53 210.95 1308.67 212.702C1286.34 213.734 1265.35 208.747 1248.99 198.582Z" fill="#DFFF85"/>
<path d="M1544.39 197.497L1544.47 199.149L1477.48 202.247L1477.4 200.596L1484.58 173.455L1482.59 130.521C1481.52 107.402 1472.06 99.2347 1459.44 99.8184C1452.32 100.148 1444.69 103.479 1440.39 108.643L1443.48 175.356L1453.13 201.718L1453.2 203.369L1386.22 206.468L1386.14 204.816L1393.32 177.676L1387.25 46.5613L1377.71 22.511L1377.63 20.8596L1433.64 4.69964L1435.3 5.61559L1439.59 98.4196C1445.77 77.614 1463.59 63.2201 1484.62 62.2472C1515.37 60.8254 1530.81 86.2576 1532.43 121.265L1534.74 171.135L1544.39 197.497Z" fill="#DFFF85"/>
</svg>
