<svg viewBox="0 0 910 410" fill="none" xmlns="http://www.w3.org/2000/svg">
<path d="M158.503 217.818C163.761 247.531 119.571 277.922 73.9066 285.945C43.2887 291.312 16.6832 288.273 13.1152 267.932C10.7455 254.515 21.2544 241.936 39.5187 234.033C36.5546 232.33 34.0115 229.986 32.0763 227.174C30.1412 224.362 28.8634 221.154 28.3367 217.784C26.2497 206.011 33.7223 191.728 47.981 184.804C20.8505 184.878 3.80463 174.627 0.492405 155.89C-3.8633 131.269 21.113 108.11 58.1802 101.596C74.5663 98.7178 88.6904 98.7245 99.6099 100.925L139.868 85.8438L141.619 86.367L139.054 114.134L121.328 112.558C125.064 116.692 127.511 121.82 128.37 127.317C132.779 152.207 108.173 175.855 70.2846 182.51C67.3359 183.027 64.1112 183.59 61.378 183.798C60.5364 184.792 59.9204 185.955 59.5718 187.207C59.2232 188.46 59.1503 189.773 59.3583 191.057C60.3547 196.672 66.1512 198.141 77.6699 197.497L116.535 196.464C142.11 195.585 155.709 202.026 158.503 217.818ZM120.426 245.21C119.288 238.783 112.226 236.435 100.613 236.549L57.911 237.709C54.7002 242.612 53.4756 248.546 54.4843 254.314C56.7597 267.168 68.0832 274.829 88.4951 271.246C109.695 267.516 122.27 255.649 120.426 245.21ZM45.2007 137.823C48.6611 157.366 59.5132 171.736 72.4053 169.475C81.5409 167.871 85.9301 158.265 83.7489 145.954C80.2953 126.411 68.9382 112.41 56.0596 114.664C47.2001 116.221 43.1003 125.781 45.2007 137.823Z" fill="#DFFF85"/>
<path d="M255.056 69.8063L249.678 110.035L248.065 110.324C242.848 107.371 237.639 106.073 231.736 107.116C224.496 108.394 217.243 112.718 211.824 118.099L222.466 178.479L238.714 201.616L238.997 203.231L170.905 215.25L170.623 213.636L174.226 186.994L162.401 119.908L150.24 97.9817L149.958 96.3674L202.494 74.3733L204.248 74.8979L209.969 107.364C214.863 84.9197 226.506 70.9699 242.062 68.2257C246.62 67.4186 251.729 68.2122 255.056 69.8063Z" fill="#DFFF85"/>
<path d="M408.829 142.455C409.605 162.486 395.333 179.078 377.836 182.147C361.681 184.98 350.5 176.728 345.263 159.692C341.761 174.391 327.854 191.473 306.584 195.207C284.539 199.088 268.006 189.016 264.686 170.214C259.133 138.869 289.222 122.264 336.039 110.741C331.174 91.1471 316.085 87.4473 301.82 89.925C286.739 92.564 274.154 101.407 265.975 111.681L264.173 110.889C268.391 81.4241 289.39 58.9562 319 53.759C355.352 47.3799 378.133 66.309 384.118 100.091L389.624 131.168C391.19 140.011 394.388 145.524 401.096 144.349C403.204 144.058 405.173 143.133 406.737 141.696L408.829 142.455ZM342.699 148.499L339.663 131.356C327.948 127.884 318.238 127.931 310.97 129.207C302.873 130.624 297.805 134.834 299.134 142.334C301.037 153.078 311.395 159.793 325.121 157.382C331.612 156.281 338.279 153.179 342.726 148.532L342.699 148.499Z" fill="#DFFF85"/>
<path d="M556.335 77.382C563.463 117.774 538.211 152.848 497.205 160.063C488.649 161.634 479.859 161.405 471.396 159.392L475.692 183.738L491.916 206.79L492.205 208.393L424.181 220.375L423.899 218.772L427.49 192.207L407.185 77.1741L395.042 55.3222L394.76 53.713L447.218 31.7873L448.97 32.3036L454.112 61.4641C458.938 41.8584 473.195 27.2077 492.211 23.8619C522.739 18.4777 549.864 40.7319 556.335 77.382ZM511.718 109.238C506.348 78.7431 489.291 58.8491 471.081 62.0608C464.919 63.147 459.549 67.1232 456.065 72.4269L466.738 132.88C474.974 143.568 486.613 150.072 496.527 148.302C509.899 145.968 515.429 130.352 511.718 109.238Z" fill="#DFFF85"/>
<path d="M693.98 48.7908L692.083 50.511C670.866 55.3883 635.942 60.7513 614.35 63.4699C622.893 88.5917 640.992 98.9804 663.463 94.9936C678.443 92.3357 688.911 84.3755 694.228 75.3832L695.932 75.6396C696.81 107.399 675.479 128.932 644.968 134.329C602.722 141.831 573.291 120.405 566.357 80.8407C559.424 41.2759 585.06 8.14665 623.584 1.31303C662.39 -5.54757 688.354 15.0949 693.98 48.7908ZM611.279 52.3527L647.684 42.8477C641.092 20.9841 630.531 14.2517 621.706 15.8168C612.07 17.5235 607.316 29.7471 610.669 48.8718L610.856 49.9444L611.279 52.3527Z" fill="#DFFF85"/>
<path d="M210.194 356.568C203.052 316.191 226.237 283.16 269.658 275.525C287.079 272.455 306.522 274.553 322.666 283.019L302.021 313.154L300.677 313.389C289.296 297.47 277.163 288.301 265.647 290.325C255.731 292.074 249.564 302.53 252.446 318.845C258.17 351.199 278.863 372.929 305.131 368.304C316.66 366.293 326.845 359.798 332.569 349.965L334.276 350.22C336.822 383.412 319.495 402.722 284.929 408.808C247.145 415.424 216.818 394.009 210.194 356.568Z" fill="#DFFF85"/>
<path d="M439.62 249.187L434.242 289.42L432.636 289.703C427.413 286.75 422.204 285.452 416.309 286.495C409.07 287.773 401.811 292.097 396.4 297.478L407.067 357.862L423.313 381.005L423.595 382.613L355.472 394.625L355.19 393.018L358.786 366.37L346.969 299.287L334.81 277.361L334.521 275.754L387.064 253.753L388.811 254.278L394.531 286.743C399.425 264.3 411.073 250.35 426.627 247.606C431.184 246.799 436.292 247.559 439.62 249.187Z" fill="#DFFF85"/>
<path d="M621.589 316.855C622.366 336.825 608.082 353.368 590.569 356.427C573.589 359.399 562.202 350.094 557.225 331.409C553.226 351.111 538.388 366.101 518.45 369.569C489.618 374.603 471.504 352.437 465.702 319.848L458.53 279.519L446.312 257.695L446.028 256.088L498.81 234.197L500.573 234.719L513.02 304.711C516.917 326.609 526.697 333.163 538.82 331.041C545.02 329.957 551.234 325.846 555.097 321.039L545.027 264.416L532.809 242.592L532.526 240.985L585.307 219.094L587.07 219.609L602.368 305.615C603.935 314.432 607.136 319.928 613.849 318.75C615.96 318.467 617.932 317.546 619.496 316.112L621.589 316.855Z" fill="#DFFF85"/>
<path d="M630.546 331.864L642.792 301.261L644.132 301.026C657.684 318.509 675.397 328.354 689.016 325.951C697.832 324.394 702.113 318.938 700.841 311.71C699.239 302.61 692.996 298.463 672.463 292.98L663.519 290.698C634.847 282.785 623.994 274.215 620.953 257.082C616.518 231.915 636.267 211.03 673.957 204.372C694.001 200.829 714.091 202.252 729.406 207.829L711.867 233.297L710.266 233.579C699.34 220.05 687.013 214.218 674.72 216.392C665.898 217.949 660.552 223.586 661.731 230.277C663.07 238.042 669.508 241.606 692.949 247.955L704.224 250.934C727.349 257.062 738.463 266.974 741.431 283.819C746.12 310.328 725.815 331.307 689.733 337.676C668.323 341.474 647.301 339.394 630.546 331.864Z" fill="#DFFF85"/>
<path d="M909.719 295.658L910 297.273L846.035 308.632L845.748 307.024L849.329 280.363L842.248 239.826C838.44 218.078 828.5 211.564 816.241 213.717C809.314 214.949 802.633 219.181 798.872 224.544L809.868 287.368L822.287 311.189L822.567 312.797L758.603 324.156L758.322 322.548L761.896 295.894L740.305 172.393L728.281 150.726L728 149.117L780.16 126.844L781.904 127.362L797.222 214.881C800.769 194.324 816.154 178.578 836.142 175.031C865.455 169.823 883.372 192.11 889.11 224.861L897.334 271.844L909.719 295.658Z" fill="#DFFF85"/>
</svg>
