<svg width="1514" height="92" viewBox="0 0 1514 92" fill="none" xmlns="http://www.w3.org/2000/svg">
<path d="M7.99917e-06 -2.65838e-06L3.12727e-06 55.7281C86.4414 47.004 173.775 75.63 260.089 73.1764C285.333 72.4266 308.537 68.5417 330.084 62.1349C350.483 56.1371 368.97 48.5717 388.349 41.8241C424.43 29.2151 465.611 21.7178 509.469 19.2641C572.069 15.72 633.394 23.1491 685.539 40.5291C716.903 50.9572 748.012 60.6355 782.818 67.9965C852.047 82.6502 927.779 90.5565 1002.87 91.4425C1100.92 92.6012 1193.73 75.9709 1287.7 64.9294C1362.15 56.2053 1441.71 51.6388 1514 63.9753L1514 0L7.99917e-06 -2.65838e-06Z" fill="#C297EF"/>
</svg>
