<svg viewBox="0 0 290 302" fill="none" xmlns="http://www.w3.org/2000/svg">
<path d="M143.81 153.791C137.616 166.479 136.903 181.869 142.187 195.12C144.904 202.098 149.047 208.458 150.543 215.811C151.853 223.091 149.277 232.057 142.187 234.515C134.838 237.086 127.362 231.556 119.9 229.252C109.393 225.96 97.0997 229.905 90.3695 238.517C84.6539 245.92 83.1967 256.4 86.5712 265.247L132.067 283.222C140.238 286.451 149.565 282.407 152.793 274.236L207.378 136.076C209.212 131.434 210.174 126.554 210.432 121.825C199.003 123.857 186.562 123.558 175.378 126.868C161.678 131.116 150.004 141.102 143.81 153.791Z" fill="#4348E3"/>
<path d="M222.635 26.3313C223.882 23.1744 222.253 19.418 219.096 18.1707L196.441 9.21985C193.284 7.9726 189.528 9.6014 188.28 12.7583L167.664 64.9396C165.463 70.5106 160.679 74.7392 154.846 76.1914C141.439 79.6965 129.855 89.1818 124.352 103.109L69.6373 241.325C66.4091 249.496 70.453 258.822 78.6237 262.051L86.6088 265.205C83.2905 256.488 84.562 245.934 90.4071 238.475C97.1373 229.863 109.43 225.918 119.937 229.21C127.4 231.514 134.876 237.044 142.225 234.473C149.314 232.015 151.89 223.05 150.58 215.769C149.214 208.36 144.942 202.056 142.224 195.078C137.126 181.9 137.71 166.566 143.847 153.749C150.041 141.06 161.715 131.074 175.286 126.882C186.599 123.516 198.911 123.872 210.34 121.84C210.783 112.568 208.315 103.328 203.425 95.5994C200.16 90.5522 199.558 84.196 201.759 78.625L222.635 26.3313Z" fill="#231F20"/>
</svg>
