<svg viewBox="0 0 125 57" fill="none" xmlns="http://www.w3.org/2000/svg">
<path d="M21.7255 29.8546C22.4463 33.942 16.3886 38.1236 10.1287 39.2273C5.93144 39.9656 2.28885 39.5467 1.79511 36.7485C1.47026 34.9074 2.91086 33.1723 5.41463 32.0861C5.00874 31.8509 4.66065 31.5278 4.39588 31.1406C4.13111 30.7533 3.95637 30.3117 3.88449 29.8482C3.5984 28.2276 4.62281 26.2637 6.57746 25.3104C2.85827 25.3205 0.521542 23.9104 0.0674865 21.3328C-0.529614 17.9458 2.89517 14.76 7.97561 13.8639C10.2219 13.468 12.1581 13.4689 13.655 13.7716L19.1738 11.697L19.4137 11.769L19.0621 15.5888L16.6322 15.3719C17.1443 15.9407 17.48 16.6461 17.5984 17.4022C18.202 20.827 14.8298 24.0792 9.63586 24.9947C9.23072 25.0658 8.78866 25.1443 8.41397 25.1719C8.29866 25.3086 8.21423 25.4686 8.16645 25.641C8.11866 25.8133 8.10866 25.9939 8.13711 26.1705C8.2737 26.9439 9.06829 27.145 10.6473 27.0564L15.9751 26.9143C19.4811 26.7962 21.3453 27.6822 21.7255 29.8546ZM16.5057 33.6227C16.3498 32.7395 15.3817 32.4165 13.7897 32.4313L7.93316 32.5909C7.49339 33.2659 7.32554 34.0823 7.46341 34.876C7.77534 36.6433 9.32762 37.6981 12.1258 37.2044C15.0375 36.6913 16.7614 35.0587 16.5085 33.6227H16.5057ZM6.19445 18.8502C6.66789 21.5386 8.15558 23.5163 9.92288 23.2044C11.1752 22.9838 11.7769 21.6622 11.4788 19.9688C11.0045 17.2813 9.44852 15.3544 7.68214 15.6645C6.4704 15.8795 5.90467 17.1937 6.19722 18.8502H6.19445Z" fill="#2C148E"/>
<path d="M35.8142 9.41387L35.0759 14.9345L34.8544 14.9733C34.1383 14.5691 33.423 14.3909 32.6127 14.534C31.6188 14.7093 30.623 15.3018 29.8792 16.041L31.3401 24.3248L33.5707 27.5004L33.6095 27.7219L24.2579 29.3701L24.2183 29.1496L24.7129 25.4941L23.0896 16.2884L21.4201 13.2798L21.3813 13.0592L28.5936 10.0414L28.8345 10.1125L29.6199 14.5681C30.2917 11.4885 31.8901 9.57352 34.0257 9.19699C34.656 9.08348 35.3574 9.19146 35.8142 9.41387Z" fill="#2C148E"/>
<path d="M56.493 19.4731C56.5992 22.226 54.6473 24.5055 52.2543 24.9282C50.0449 25.3177 48.5157 24.1825 47.7986 21.8412C47.3206 23.8623 45.4185 26.2092 42.5096 26.7223C39.4909 27.2548 37.2335 25.8677 36.7795 23.291C36.0199 18.983 40.1351 16.7008 46.537 15.1162C45.8726 12.4242 43.809 11.9147 41.858 12.2553C39.7954 12.6189 38.0743 13.8334 36.9557 15.2454L36.7093 15.1374C37.2861 11.0869 40.1581 7.99897 44.2077 7.28466C49.1792 6.40793 52.2949 9.01044 53.1135 13.6525L53.8665 17.9227C54.0806 19.1381 54.5181 19.8967 55.4354 19.7343C55.7237 19.6941 55.9929 19.5669 56.2069 19.3697L56.493 19.4731ZM47.4488 20.3037L47.0335 17.9476C45.4314 17.4714 44.1034 17.4769 43.1095 17.6522C42.002 17.847 41.3089 18.4256 41.4907 19.4565C41.751 20.9331 43.1676 21.856 45.0447 21.5246C45.9325 21.3733 46.8444 20.9469 47.4525 20.3074L47.4488 20.3037Z" fill="#2C148E"/>
<path d="M76.3674 10.5397C77.3475 16.0972 73.8682 20.9266 68.2387 21.9206C67.0622 22.1359 65.8539 22.1044 64.6902 21.8283L65.2818 25.1783L67.5124 28.3539L67.5511 28.5745L58.1978 30.2172L58.159 29.9967L58.6528 26.3402L55.8611 10.5083L54.1916 7.49971L54.1528 7.27914L61.3651 4.26041L61.606 4.3324L62.3138 8.34506C62.9764 5.64657 64.9366 3.63101 67.5511 3.16957C71.7456 2.43219 75.4777 5.49522 76.3674 10.5397ZM70.2312 14.9252C69.4929 10.727 67.1478 7.98976 64.6441 8.43089C63.7969 8.5804 63.0586 9.12766 62.5796 9.85766L64.047 18.1792C65.1794 19.6503 66.7796 20.5446 68.1427 20.3018C69.9829 19.9798 70.7443 17.8332 70.2312 14.9252Z" fill="#2C148E"/>
<path d="M95.2732 6.67463L95.012 6.91089C92.092 7.5772 87.2857 8.31089 84.314 8.68281C85.4898 12.1205 87.9806 13.5408 91.0732 12.9954C93.1349 12.6318 94.5801 11.5428 95.3073 10.3135L95.5418 10.3477C95.6627 14.6926 92.727 17.6384 88.5279 18.3767C82.7138 19.4029 78.6633 16.4719 77.709 11.0592C76.7548 5.64654 80.2829 1.1143 85.5848 0.179429C90.9255 -0.759136 94.4989 2.06948 95.2732 6.67463ZM83.8941 7.16191L88.9044 5.86158C87.9972 2.87054 86.5437 1.94951 85.3292 2.16361C84.003 2.39802 83.3487 4.06935 83.8101 6.68571L83.836 6.83336L83.8941 7.16191Z" fill="#2C148E"/>
<path d="M28.1617 49.1361C27.1816 43.5758 30.3655 39.0278 36.331 37.9767C38.724 37.554 41.3939 37.8429 43.6115 39.0085L40.7737 43.154L40.5891 43.1863C39.0258 40.9936 37.3591 39.7311 35.7772 40.0107C34.4142 40.2506 33.5679 41.6903 33.9638 43.9366C34.7492 48.3913 37.5925 51.3833 41.201 50.7474C42.7846 50.4706 44.1828 49.5754 44.97 48.2215L45.2035 48.2566C45.5542 52.8267 43.1732 55.4864 38.4259 56.3235C33.2347 57.2343 29.0707 54.2857 28.1617 49.1361Z" fill="#2C148E"/>
<path d="M60.1931 34.2207L59.4548 39.7404L59.2333 39.7792C58.5172 39.3749 57.8019 39.1968 56.9917 39.3399C55.9977 39.5152 55.0019 40.1077 54.2581 40.8469L55.719 49.1307L57.9496 52.3063L57.9884 52.5278L48.636 54.176L48.5972 53.9555L49.0918 50.3L47.4685 41.0943L45.799 38.0866L45.7603 37.8651L52.9725 34.8473L53.2134 34.9184L53.9988 39.374C54.6706 36.2944 56.269 34.3794 58.4046 34.0029C59.034 33.8931 59.7363 34.001 60.1931 34.2207Z" fill="#2C148E"/>
<path d="M85.2905 43.5003C85.3957 46.2533 83.4447 48.5328 81.0508 48.9554C78.7307 49.3643 77.1747 48.0815 76.4945 45.5066C75.9482 48.2227 73.9206 50.2881 71.1963 50.767C67.2565 51.462 64.7814 48.4054 63.9886 43.9138L63.0085 38.3534L61.339 35.3449L61.3003 35.1243L68.5126 32.1056L68.7534 32.1775L70.4543 41.8244C70.9868 44.8431 72.3231 45.7466 73.9797 45.455C74.8269 45.3055 75.6759 44.7379 76.2038 44.0706L74.8278 36.265L73.1583 33.2564L73.1196 33.0349L80.3318 30.0171L80.5727 30.0891L82.663 41.9443C82.8771 43.1598 83.3146 43.9184 84.2319 43.7559C84.5209 43.7149 84.7902 43.586 85.0034 43.3868L85.2905 43.5003Z" fill="#2C148E"/>
<path d="M86.5318 45.5969L88.2188 41.3886L88.4033 41.3562C90.2703 43.7557 92.7104 45.1151 94.5866 44.7838C95.8011 44.5697 96.3908 43.8194 96.2155 42.8255C95.9949 41.574 95.1348 41.0037 92.3062 40.2497L91.0741 39.9359C87.1242 38.8479 85.6292 37.6703 85.2102 35.3133C84.5992 31.8525 87.3199 28.9805 92.512 28.065C95.2732 27.5786 98.0409 27.7743 100.151 28.5403L97.7309 32.0426L97.5103 32.0813C96.0051 30.2208 94.307 29.4198 92.6135 29.7179C91.399 29.932 90.6616 30.7072 90.8241 31.6273C91.0086 32.696 91.8964 33.1851 95.1247 34.0581L96.6778 34.4679C99.8636 35.3105 101.395 36.6736 101.804 38.99C102.45 42.6354 99.6523 45.5203 94.6817 46.397C91.7377 46.9212 88.8399 46.6323 86.5318 45.5969Z" fill="#2C148E"/>
<path d="M124.961 40.4917L125 40.7123L116.164 42.2701L116.125 42.0496L116.619 38.3931L115.638 32.8337C115.112 29.8519 113.739 28.9576 112.046 29.253C111.089 29.4218 110.166 30.0023 109.646 30.7388L111.165 39.3548L112.881 42.6208L112.92 42.8414L104.083 44.4001L104.044 44.1786L104.538 40.5231L101.554 23.5856L99.8932 20.6139L99.8545 20.3933L107.06 17.3386L107.301 17.4097L109.417 29.4135C109.907 26.5932 112.033 24.43 114.794 23.9473C118.844 23.233 121.319 26.2896 122.111 30.7812L123.248 37.2248L124.961 40.4917Z" fill="#2C148E"/>
</svg>
