<svg viewBox="0 0 247 164" fill="none" xmlns="http://www.w3.org/2000/svg">
<path d="M245.096 70.2826C246.919 75.6223 238.587 82.3944 238.589 87.5449C238.637 92.9425 246.947 99.7403 245.238 104.733C243.56 109.619 232.765 110.042 229.546 114.587C226.562 118.734 229.98 128.995 225.735 132.65C221.939 135.97 211.972 131.607 207.27 134.424C202.847 137.09 202.478 147.865 197.365 150.092C192.67 152.092 184.454 144.972 179.068 146.533C174.069 147.974 171.126 158.336 165.651 159.402C160.564 160.35 153.967 151.72 148.543 152.217C142.41 152.736 136.631 162.373 130.549 162.323C124.358 162.241 118.682 152.48 112.65 151.86C106.403 151.175 98.9069 159.483 92.9265 158.293C86.8383 157.07 83.2238 146.283 77.4341 144.447C71.4288 142.547 62.3417 149.095 56.8505 146.646C51.0677 143.993 50.0349 132.802 44.9818 129.663C39.5293 126.289 29.0296 130.076 24.5542 126.173C19.819 121.958 22.5663 111.07 19.1634 106.315C15.4246 101.109 4.28761 99.9087 2.3124 94.2897C0.489237 88.9499 8.82172 82.1779 8.81879 77.0274C8.77162 71.6297 0.460818 64.832 2.17032 59.8388C3.84803 54.9532 14.6436 54.5302 17.8624 49.9851C20.8462 45.8383 17.4279 35.5776 21.6736 31.9226C25.4688 28.6019 35.4366 32.9657 40.1384 30.1484C44.5611 27.4821 44.9298 16.7072 50.0435 14.4802C54.7384 12.48 62.9538 19.6006 68.3398 18.0397C73.3389 16.5979 76.2824 6.23628 81.7569 5.16975C86.8443 4.22241 93.4414 12.8521 98.8648 12.3556C104.999 11.8359 110.777 2.19884 116.859 2.24916C123.05 2.33149 128.726 12.0923 134.758 12.7127C141.005 13.397 148.501 5.08928 154.482 6.27961C160.57 7.50195 164.184 18.2891 169.974 20.125C175.979 22.025 185.067 15.477 190.558 17.9265C196.341 20.5796 197.373 31.7707 202.426 34.9094C207.879 38.2837 218.379 34.4958 222.854 38.3993C227.589 42.614 224.842 53.502 228.245 58.2575C231.876 63.4317 243.121 64.6636 245.096 70.2826Z" stroke="#DFFF85" stroke-width="3" stroke-linejoin="bevel"/>
</svg>
