<svg viewBox="0 0 1440 140" fill="none" xmlns="http://www.w3.org/2000/svg">
<path d="M286.778 112.994C410.861 108.039 542.718 102.387 658.727 113.761C745.436 122.275 820.185 140.139 914.368 139.999C955.629 139.929 994.797 136.371 1033.07 132.812C1168.81 120.251 1304.26 107.69 1440 95.1295V22.0679C1276.15 15.6479 1112.6 9.22799 948.752 2.73828C881.478 0.0865711 809.122 -2.42558 747.23 4.34326C696.401 9.85603 658.13 21.0211 603.713 24.2311C558.265 26.8828 510.127 23.2541 468.268 18.2996C426.409 13.3451 387.241 6.99497 342.69 3.50588C276.613 -1.65798 202.761 0.226134 136.384 5.52955C82.2662 9.92581 32.0351 16.4155 -17 23.3239V113.343C78.3792 120.111 186.316 117.041 286.778 112.994Z" fill="#D9FF6C" fill-opacity="0.75"/>
</svg>
