<svg  viewBox="0 0 414 36" fill="none" xmlns="http://www.w3.org/2000/svg">
<path d="M9.4656e-05 -0.00026126L9.22496e-05 27.5255C9.22496e-05 27.5255 15 30.98 35.5 30.98C44.0036 30.7256 55.9326 27.7105 63.1907 25.5368C70.0623 23.5018 76.2897 20.9351 82.8177 18.6457C94.9718 14.3678 108.844 11.8241 123.618 10.9916C144.705 9.78915 165.362 12.3097 182.928 18.2064C193.493 21.7444 203.972 25.0281 215.697 27.5255C239.017 32.4972 264.528 35.1796 289.824 35.4802C322.85 35.8734 352.348 29.2827 384 25.5366C405.732 22.9645 414 23.3631 414 23.3631L414 -0.000263214L9.4656e-05 -0.00026126Z" fill="#C297EF"/>
</svg>
