<svg  viewBox="0 0 174 64" fill="none" xmlns="http://www.w3.org/2000/svg">
<path d="M173.808 20.533C175.457 33.4158 166.29 45.1363 153.437 46.783L16.9996 63.9763C15.593 64.17 14.2835 63.153 14.0894 61.7484L14.0409 61.4094C13.8469 60.0049 14.8655 58.6972 16.2721 58.5035L30.7743 56.6631C32.1809 56.4694 33.1994 55.2101 33.0054 53.7572C32.8114 52.3527 31.5503 51.3356 30.0953 51.5293L4.19494 54.7743C2.78836 54.968 1.4788 53.9509 1.28479 52.5464C1.09078 51.1419 2.10933 49.8342 3.5159 49.6405L24.081 47.0252C25.4875 46.8314 26.5061 45.5722 26.3121 44.1193C26.1181 42.7147 24.857 41.6977 23.4019 41.8914L14.332 43.1022C12.9254 43.2959 11.6158 42.2788 11.4218 40.8743C11.2278 39.4698 12.2464 38.1621 13.6529 37.9684L31.0653 35.789C32.4719 35.5953 33.4904 34.336 33.2964 32.8831C33.1024 31.4785 31.8414 30.4615 30.3863 30.6552L2.93387 34.0939C1.5273 34.2876 0.217732 33.2705 0.0237216 31.866C-0.170288 30.4615 0.848264 29.1538 2.25484 28.9601L24.469 26.151C25.8756 25.9573 26.8941 24.6981 26.7001 23.2451C26.5061 21.8406 25.245 20.8235 23.7899 21.0173L11.7128 22.5187C10.3063 22.7124 8.99668 21.6953 8.80267 20.2908C8.60866 18.8863 9.62722 17.5786 11.0338 17.3849L147.52 0.191577C160.421 -1.45511 172.159 7.69851 173.808 20.533Z" fill="#D9FF6C"/>
<path d="M52.0184 47.5579C50.9513 47.7032 49.6418 47.7516 48.1382 47.7032C46.6346 47.6547 45.3251 47.5094 44.258 47.2673C44.1125 47.2673 43.967 47.1704 43.8215 46.9767C43.7245 46.8314 43.6275 46.6377 43.579 46.3955C43.482 45.4753 43.3364 44.5067 43.1909 43.5864C43.0454 42.6178 42.8999 41.6976 42.8029 40.729C42.7544 40.3899 42.8029 40.1478 42.9484 40.0025C43.0939 39.8572 43.2879 39.7603 43.482 39.8088C43.7245 39.8088 43.9185 39.9056 44.1125 40.0994C44.9855 40.7774 45.9556 41.2617 46.9256 41.5039C47.9442 41.746 48.9627 41.7945 50.0298 41.6492C50.9028 41.5523 51.5334 41.2617 51.9214 40.8743C52.3094 40.4384 52.5034 39.9541 52.4064 39.4213C52.3579 38.9854 52.1639 38.598 51.8729 38.3074C51.5819 38.0168 51.1939 37.7262 50.7573 37.5325C50.3208 37.3387 49.6903 37.0482 48.9627 36.7091C47.7017 36.3701 46.6346 36.0311 45.7616 35.6436C44.8885 35.3046 44.1125 34.7719 43.4335 34.0938C42.7544 33.4158 42.3664 32.4956 42.2209 31.3816C42.0754 30.074 42.2209 28.9116 42.7544 27.943C43.2879 26.9743 44.1125 26.1994 45.2766 25.5698C46.4406 24.9402 47.8472 24.5527 49.5448 24.359C50.6118 24.2137 51.7274 24.1653 52.8914 24.1653C54.0555 24.1653 55.0741 24.2621 55.9956 24.4559C56.1896 24.5043 56.3351 24.6012 56.4806 24.7465C56.6261 24.8918 56.6746 25.0371 56.7231 25.2308C56.8686 26.0541 57.0142 26.8775 57.1597 27.7492C57.3052 28.621 57.4507 29.4444 57.5962 30.2677C57.6447 30.5583 57.6447 30.8004 57.4992 30.9942C57.3537 31.1879 57.2082 31.2363 57.0142 31.2363C56.8201 31.2363 56.6261 31.1395 56.4321 30.9942C55.7531 30.5583 54.9771 30.2677 54.1525 30.074C53.328 29.8802 52.5519 29.8318 51.8244 29.9287C50.9028 30.0255 50.1753 30.2677 49.6418 30.6551C49.1082 31.0426 48.8657 31.4301 48.9142 31.9628C48.9627 32.3503 49.1568 32.7377 49.4963 33.0283C49.8358 33.3189 50.2238 33.5611 50.6603 33.7548C51.0969 33.9485 51.7274 34.1907 52.5519 34.4328C53.9585 34.7719 55.1226 35.1593 56.0441 35.4983C56.9657 35.8374 57.8387 36.3701 58.5662 37.0966C59.2938 37.8231 59.7303 38.7917 59.8758 40.0509C60.0698 41.407 59.8758 42.6178 59.2938 43.6833C58.7117 44.7488 57.8387 45.5722 56.6261 46.2502C55.3651 46.8798 53.8615 47.3157 52.0184 47.5579Z" fill="#414042"/>
<path d="M66.7147 45.5724C65.4536 45.7177 64.435 45.8146 63.659 45.8146C63.4165 45.8146 63.174 45.7177 63.0285 45.6209C62.883 45.4756 62.786 45.3303 62.7375 45.1366C62.3009 41.4557 61.8644 37.5812 61.5249 33.6098C61.1369 29.6384 60.8944 26.3934 60.7974 23.9234C60.7489 23.7297 60.7974 23.536 60.9429 23.3422C61.0399 23.1969 61.2339 23.0516 61.4279 23.0032C62.3494 22.8095 63.5135 22.6158 64.9201 22.422C66.3266 22.1799 67.6847 21.9861 69.0428 21.8408C70.6434 21.6471 72.0499 21.6956 73.311 21.9861C74.5721 22.2767 75.5421 22.8579 76.3182 23.6328C77.0942 24.4562 77.5307 25.5217 77.6762 26.8293C77.9187 28.6697 77.6762 30.2196 76.9487 31.6241C76.2212 32.9802 75.1541 34.0941 73.7475 34.9659C72.341 35.8376 70.8374 36.4188 69.1398 36.661C68.8973 36.7094 68.7518 36.8063 68.6548 37C68.5578 37.1937 68.5578 37.4843 68.6063 37.9202C68.7033 38.6467 68.8488 39.2763 69.0428 39.9059C69.2368 40.5355 69.4793 41.262 69.7218 42.1338C69.9158 42.6181 70.1098 43.2477 70.3524 43.9742C70.4494 44.2164 70.4009 44.4585 70.2553 44.6522C70.1098 44.846 69.9158 44.9913 69.6733 45.0397C69.1883 45.2334 68.1697 45.4271 66.7147 45.5724ZM68.8488 33.077C69.5278 32.9317 70.0613 32.6896 70.4494 32.3021C70.8374 31.9147 71.1284 31.5272 71.3224 31.0429C71.5164 30.5586 71.5649 30.1227 71.5164 29.6868C71.4194 29.0088 71.1769 28.5244 70.6919 28.2338C70.2068 27.9433 69.5763 27.798 68.7033 27.9433C68.6063 27.9433 68.5093 27.9917 68.3637 27.9917C68.2667 27.9917 68.1697 28.0401 68.0727 28.0401C67.8787 28.0886 67.7332 28.1854 67.6362 28.2823C67.5392 28.3791 67.4907 28.5244 67.4907 28.7182C67.5392 29.2993 67.5877 29.929 67.6847 30.607C67.7817 31.3335 67.8787 32.0115 68.0242 32.738C68.0727 32.9317 68.1697 33.077 68.2667 33.1255C68.4608 33.1255 68.6063 33.1255 68.8488 33.077Z" fill="#414042"/>
<path d="M89.8018 42.6663L88.8803 42.7632C85.7761 43.1506 83.6905 43.3928 82.672 43.3928C82.4294 43.3928 82.2354 43.3443 82.0414 43.199C81.8474 43.0537 81.7504 42.86 81.7019 42.6179C81.2169 38.5012 80.8289 34.5297 80.4409 30.7036C80.1013 26.8775 79.8588 23.7779 79.7618 21.4047C79.7618 21.211 79.8103 21.0173 79.9558 20.872C80.1013 20.7267 80.2953 20.6298 80.5379 20.5814C81.1199 20.4845 82.0899 20.2908 83.448 20.0971C84.7576 19.9033 85.9701 19.758 87.0372 19.6127C90.1414 19.2253 92.2755 18.9831 93.4395 18.9347C93.682 18.9347 93.9246 18.9831 94.0701 19.08C94.2156 19.2253 94.3611 19.3706 94.4096 19.6127C94.6036 20.6782 94.8461 21.9375 95.0401 23.4389C95.1856 24.4075 95.2826 25.134 95.3311 25.6183C95.3796 25.8604 95.3311 26.1026 95.2341 26.2479C95.1371 26.3932 94.9916 26.4901 94.7976 26.4901C94.6036 26.4901 94.4096 26.3932 94.1671 26.2479C93.3425 25.7152 92.4695 25.3277 91.6449 25.134C90.8204 24.9402 89.8988 24.8918 88.8803 24.9887C88.0557 25.0855 87.4252 25.3277 87.0372 25.7636C86.6492 26.151 86.4552 26.6354 86.5522 27.1681V27.3134C86.6007 27.8462 86.8917 28.1852 87.3282 28.4273C87.7647 28.6211 88.4438 28.7179 89.3168 28.5726C89.6563 28.5242 89.9473 28.4758 90.2384 28.4273C90.5294 28.3789 90.8689 28.3305 91.1599 28.2336C91.4509 28.1852 91.6934 28.1367 91.9845 28.0399C92.2755 27.9914 92.518 27.943 92.809 27.8946C93.0515 27.8462 93.294 27.8946 93.488 28.0399C93.682 28.1852 93.779 28.3789 93.8275 28.6211L94.1671 31.2848C94.2156 31.6238 94.1186 31.8176 93.8761 31.9629C93.6335 32.1082 93.4395 32.0597 93.197 31.866C92.5665 31.5754 91.9359 31.3817 91.4024 31.2848C90.8689 31.1879 90.2869 31.1879 89.7048 31.2364C88.7833 31.3817 88.1527 31.6723 87.7647 32.0597C87.3767 32.4472 87.2312 33.0284 87.3282 33.8033L87.4252 34.4329C87.5222 35.3047 87.9102 35.9343 88.5408 36.3217C89.1713 36.7092 90.0443 36.806 91.0629 36.7092C91.8874 36.6123 92.615 36.4186 93.197 36.1764C93.779 35.9343 94.2641 35.5468 94.6521 35.0625C95.0401 34.5782 95.4766 33.9486 95.8162 33.1737C95.9132 32.9315 96.0587 32.7862 96.2527 32.7378C96.4467 32.6893 96.6407 32.6893 96.8347 32.7862C97.0287 32.8831 97.1257 33.0768 97.2227 33.3674C97.4167 34.3845 97.6593 35.5468 97.9018 36.8545C98.1443 38.1621 98.3383 39.3729 98.5323 40.4869C98.5808 40.6806 98.5323 40.8743 98.4353 41.068C98.3383 41.2618 98.1443 41.3586 97.8533 41.4071C96.7377 41.6492 94.3611 41.9883 90.7719 42.4241L89.8018 42.6663Z" fill="#414042"/>
<path d="M108.912 40.2447L107.99 40.3415C104.886 40.729 102.801 40.9711 101.782 40.9711C101.539 40.9711 101.345 40.9227 101.151 40.7774C100.957 40.6321 100.86 40.4384 100.812 40.1962C100.327 36.0795 99.9389 32.1081 99.5509 28.282C99.2114 24.4559 98.9689 21.3562 98.8719 18.9831C98.8719 18.7894 98.9204 18.5956 99.0659 18.4503C99.2114 18.305 99.4054 18.2082 99.6479 18.1597C100.23 18.0629 101.2 17.8692 102.558 17.6754C103.868 17.4817 105.08 17.3364 106.147 17.1911C109.251 16.8037 111.386 16.5615 112.55 16.5131C112.792 16.5131 113.035 16.5615 113.18 16.6584C113.326 16.8037 113.471 16.9489 113.52 17.1911C113.714 18.2566 113.956 19.5158 114.15 21.0172C114.296 21.9859 114.393 22.7123 114.441 23.1967C114.49 23.4388 114.441 23.681 114.344 23.8263C114.247 23.9716 114.102 24.0684 113.908 24.0684C113.714 24.0684 113.52 23.9716 113.277 23.8263C112.453 23.2935 111.58 22.9061 110.755 22.7123C109.93 22.5186 109.009 22.4702 107.99 22.567C107.166 22.6639 106.535 22.9061 106.147 23.342C105.759 23.7294 105.565 24.2137 105.662 24.7465V24.8918C105.711 25.4245 106.002 25.7635 106.438 26.0057C106.875 26.1994 107.554 26.2963 108.427 26.151C108.766 26.1026 109.057 26.0541 109.348 26.0057C109.639 25.9573 109.979 25.9088 110.27 25.812C110.561 25.7635 110.803 25.7151 111.094 25.6182C111.386 25.5698 111.628 25.5214 111.919 25.473C112.162 25.4245 112.404 25.473 112.598 25.6182C112.792 25.7635 112.889 25.9573 112.938 26.1994L113.277 28.8632C113.326 29.2022 113.229 29.3959 112.986 29.5412C112.744 29.6865 112.55 29.6381 112.307 29.4444C111.677 29.1538 111.046 28.96 110.512 28.8632C109.979 28.7663 109.397 28.7663 108.815 28.8148C107.893 28.96 107.263 29.2506 106.875 29.6381C106.487 30.0255 106.341 30.6067 106.438 31.3816L106.535 32.0113C106.632 32.883 107.02 33.5126 107.651 33.9001C108.281 34.2875 109.154 34.3844 110.173 34.2876C110.997 34.1907 111.725 33.997 112.307 33.7548C112.889 33.5126 113.374 33.1252 113.762 32.6409C114.15 32.1565 114.538 31.5269 114.926 30.752C115.023 30.5099 115.169 30.3646 115.363 30.3161C115.557 30.2677 115.751 30.2677 115.945 30.3646C116.139 30.4614 116.236 30.6552 116.333 30.9458C116.527 31.9628 116.769 33.1252 117.012 34.4328C117.254 35.7405 117.448 36.9513 117.642 38.0652C117.691 38.259 117.642 38.4527 117.545 38.6464C117.448 38.8401 117.254 38.937 116.963 38.9854C115.848 39.2276 113.471 39.5666 109.882 40.0025L108.912 40.2447Z" fill="#414042"/>
<path d="M128.41 37.92C127.294 38.0653 125.936 38.2106 124.336 38.3559C122.784 38.5012 121.619 38.5981 120.94 38.5981C120.698 38.5981 120.455 38.5497 120.31 38.4044C120.116 38.2591 120.019 38.0653 120.019 37.8232C119.631 34.8204 119.291 31.9145 119 29.0086C118.709 26.1027 118.467 23.3421 118.273 20.6783C118.273 19.9518 118.224 19.2738 118.176 18.5957C118.127 17.9661 118.079 17.3365 118.079 16.7553C118.079 16.5616 118.127 16.3679 118.273 16.2226C118.418 16.0288 118.612 15.932 118.806 15.8836C119.485 15.7383 120.213 15.6414 121.086 15.4961C121.911 15.3508 122.784 15.2539 123.657 15.1571L124.675 15.0118C126.809 14.7212 128.749 15.0118 130.447 15.7867C132.193 16.5616 133.6 17.8693 134.764 19.6612C135.879 21.4532 136.607 23.6811 136.946 26.3933C137.286 28.9117 137.14 30.9459 136.558 32.5925C135.976 34.1908 135.006 35.45 133.697 36.3218C132.387 37.1936 130.592 37.6295 128.41 37.92ZM127.003 31.2849C127.1 31.2849 127.246 31.2364 127.343 31.2364C127.44 31.2364 127.585 31.188 127.731 31.188C128.313 31.1396 128.798 30.9459 129.234 30.6068C129.671 30.2678 129.962 29.7835 130.204 29.1539C130.447 28.5243 130.495 27.7978 130.35 26.926C130.204 25.6184 129.913 24.5044 129.477 23.5842C129.089 22.664 128.555 21.9375 127.973 21.5016C127.391 21.0658 126.761 20.872 126.082 20.9689C125.985 20.9689 125.888 20.9689 125.839 21.0173C125.742 21.0173 125.694 21.0658 125.597 21.0658C125.597 21.0658 125.597 21.0173 125.548 21.0173C125.306 21.0658 125.112 21.2111 124.966 21.4048C124.821 21.5985 124.772 21.8407 124.821 22.1313C125.063 24.5529 125.403 27.265 125.839 30.1709C125.888 30.5584 126.033 30.8974 126.179 31.0427C126.421 31.2364 126.664 31.3333 127.003 31.2849Z" fill="#414042"/>
<path d="M147.714 35.3531C147.229 35.4016 146.695 35.4984 146.065 35.5469C145.483 35.5953 144.998 35.6437 144.61 35.5953C144.367 35.5953 144.125 35.4984 143.931 35.3531C143.737 35.2078 143.688 35.0625 143.688 34.8204C143.688 34.5298 143.64 34.1423 143.64 33.7549C143.64 33.3674 143.64 32.9315 143.64 32.4956C143.64 31.527 143.64 30.5099 143.64 29.4444C143.64 28.3789 143.688 27.265 143.737 26.1026C143.785 25.9574 143.785 25.8121 143.688 25.6668C143.64 25.5215 143.494 25.473 143.349 25.473C142.233 25.3277 141.214 24.7466 140.196 23.6811C139.177 22.6156 138.304 21.3079 137.625 19.7581C136.898 18.2083 136.413 16.4647 136.025 14.5759C135.976 14.2853 136.025 14.0431 136.17 13.8494C136.316 13.6557 136.51 13.5104 136.752 13.4135C137.334 13.2682 138.159 13.1229 139.177 13.026C139.565 12.9776 140.099 12.9292 140.681 12.8808C141.263 12.8323 141.748 12.7839 142.136 12.7355C142.379 12.7355 142.621 12.8323 142.815 12.9776C143.009 13.1229 143.106 13.3651 143.155 13.6072C143.252 14.7212 143.494 15.932 143.785 17.1912C144.076 18.4504 144.464 19.5643 144.804 20.4361C145.192 21.3079 145.531 21.7438 145.871 21.6953C146.21 21.6469 146.453 21.1142 146.598 20.194C146.744 19.2738 146.841 18.1114 146.792 16.8522C146.792 15.5445 146.695 14.3337 146.55 13.1713C146.501 12.9292 146.55 12.687 146.695 12.4933C146.792 12.2996 146.986 12.1543 147.277 12.0574C147.617 12.009 148.053 11.9605 148.635 11.8153C149.217 11.7184 149.702 11.6215 150.09 11.5731C151.158 11.4278 151.982 11.3794 152.613 11.3309C152.855 11.3309 153.098 11.4278 153.292 11.6215C153.486 11.8153 153.583 12.009 153.631 12.2996C153.728 14.1884 153.631 15.9804 153.292 17.6755C153.001 19.3706 152.516 20.8236 151.788 22.0828C151.109 23.342 150.236 24.1654 149.266 24.6013C149.12 24.6497 149.023 24.7466 149.023 24.8919C149.023 25.0371 149.023 25.1824 149.072 25.3277C149.266 25.9573 149.46 26.587 149.605 27.1681C149.751 27.7493 149.945 28.3305 150.09 28.9117C150.575 30.5584 150.963 32.1566 151.352 33.7549C151.4 33.9486 151.352 34.1423 151.206 34.3361C151.061 34.5298 150.866 34.6266 150.624 34.7235C150.236 34.8204 149.751 34.9172 149.169 35.0141C148.684 35.2563 148.15 35.3047 147.714 35.3531Z" fill="#414042"/>
</svg>
