<svg viewBox="0 0 219 220" fill="none" xmlns="http://www.w3.org/2000/svg">
<path d="M217.685 96.3171L192.906 112.652C192.776 112.739 192.667 112.856 192.59 112.993C192.514 113.13 192.471 113.283 192.465 113.44C192.459 113.597 192.49 113.753 192.556 113.896C192.622 114.038 192.721 114.163 192.845 114.26L216.174 132.563C216.324 132.678 216.438 132.833 216.503 133.01C216.568 133.188 216.58 133.38 216.54 133.565C216.499 133.749 216.407 133.918 216.273 134.052C216.14 134.186 215.971 134.279 215.787 134.32L186.931 141.148C186.777 141.184 186.634 141.256 186.514 141.358C186.394 141.461 186.3 141.59 186.24 141.736C186.179 141.882 186.155 142.04 186.168 142.198C186.182 142.355 186.232 142.507 186.316 142.641L201.957 167.842C202.057 168 202.11 168.183 202.109 168.37C202.109 168.557 202.055 168.74 201.955 168.897C201.855 169.055 201.711 169.181 201.542 169.26C201.373 169.339 201.184 169.368 200.999 169.344L171.537 165.909C171.38 165.89 171.22 165.908 171.072 165.963C170.924 166.019 170.791 166.109 170.684 166.226C170.577 166.342 170.5 166.483 170.459 166.636C170.418 166.789 170.414 166.949 170.447 167.104L176.598 196.1C176.633 196.283 176.617 196.472 176.55 196.646C176.484 196.82 176.371 196.972 176.223 197.085C176.075 197.198 175.899 197.268 175.714 197.287C175.528 197.305 175.342 197.271 175.175 197.19L148.665 183.904C148.524 183.832 148.369 183.795 148.212 183.796C148.054 183.797 147.899 183.836 147.76 183.909C147.62 183.982 147.5 184.088 147.41 184.217C147.32 184.346 147.262 184.495 147.241 184.651L143.024 213.999C142.998 214.184 142.92 214.358 142.799 214.501C142.679 214.644 142.521 214.75 142.342 214.807C142.164 214.864 141.974 214.869 141.793 214.823C141.612 214.776 141.447 214.679 141.319 214.544L120.969 192.963C120.862 192.848 120.729 192.76 120.581 192.707C120.433 192.654 120.275 192.637 120.119 192.658C119.963 192.679 119.815 192.736 119.686 192.826C119.557 192.916 119.452 193.035 119.378 193.174L105.407 219.341C105.314 219.495 105.181 219.621 105.022 219.706C104.864 219.791 104.685 219.831 104.505 219.823C104.325 219.815 104.151 219.759 104 219.66C103.85 219.562 103.729 219.424 103.65 219.262L91.8844 192.023C91.8202 191.88 91.7233 191.755 91.6017 191.656C91.4801 191.558 91.3371 191.489 91.1842 191.455C91.0313 191.422 90.8726 191.425 90.7211 191.464C90.5695 191.503 90.4294 191.577 90.3116 191.68L68.2126 211.46C68.0732 211.584 67.9017 211.666 67.7175 211.697C67.5334 211.728 67.3441 211.707 67.1716 211.635C66.9991 211.563 66.8503 211.445 66.7423 211.293C66.6342 211.14 66.5713 210.96 66.5608 210.774L64.8035 181.171C64.7947 181.013 64.7488 180.86 64.6694 180.723C64.5899 180.587 64.4791 180.471 64.3463 180.385C64.2135 180.299 64.0623 180.246 63.905 180.23C63.7478 180.214 63.5889 180.236 63.4415 180.293L35.9123 191.337C35.7393 191.406 35.5507 191.425 35.3677 191.391C35.1846 191.358 35.0147 191.273 34.8773 191.148C34.7399 191.022 34.6405 190.861 34.5905 190.681C34.5404 190.502 34.5417 190.313 34.5943 190.134L43.0737 161.717C43.118 161.566 43.1258 161.407 43.0969 161.252C43.0679 161.097 43.0029 160.951 42.907 160.826C42.8112 160.701 42.6872 160.601 42.5451 160.533C42.4031 160.465 42.247 160.431 42.0895 160.434L12.4516 161.419C12.2648 161.423 12.0805 161.376 11.9194 161.281C11.7583 161.186 11.6269 161.048 11.5401 160.883C11.4533 160.717 11.4146 160.531 11.4281 160.345C11.4417 160.158 11.507 159.979 11.6169 159.828L29.3398 136.051C29.4321 135.924 29.4932 135.777 29.5181 135.622C29.543 135.466 29.531 135.307 29.4831 135.158C29.4352 135.008 29.3528 134.871 29.2424 134.76C29.1321 134.648 28.9969 134.563 28.8479 134.513L0.668595 125.261C0.494823 125.201 0.341018 125.094 0.224536 124.952C0.108053 124.809 0.0335384 124.637 0.00894152 124.455C-0.0156554 124.273 0.010717 124.087 0.0853112 123.919C0.159905 123.751 0.279704 123.608 0.431334 123.504L25.2013 107.186C25.332 107.099 25.4403 106.982 25.517 106.845C25.5938 106.708 25.6368 106.555 25.6428 106.398C25.6488 106.241 25.6177 106.085 25.5516 105.943C25.4855 105.8 25.3865 105.675 25.2628 105.578L1.93384 87.2757C1.78383 87.1614 1.66951 87.0067 1.60412 86.8299C1.53874 86.653 1.52502 86.4612 1.56465 86.2768C1.60429 86.0925 1.69557 85.9234 1.82787 85.789C1.96016 85.6547 2.12791 85.5608 2.31162 85.5183L31.1675 78.6909C31.3214 78.6549 31.4643 78.5827 31.5846 78.4803C31.7049 78.3779 31.799 78.2481 31.8592 78.1021C31.9193 77.956 31.9439 77.7978 31.9306 77.6404C31.9173 77.483 31.8664 77.3309 31.7826 77.197L16.1508 51.9965C16.052 51.8379 16 51.6546 16.0007 51.4677C16.0014 51.2808 16.0548 51.0979 16.1549 50.94C16.255 50.7821 16.3976 50.6555 16.5664 50.5751C16.7351 50.4947 16.923 50.4636 17.1087 50.4852L46.5708 53.9208C46.7263 53.9378 46.8836 53.918 47.0299 53.8626C47.1762 53.8073 47.3075 53.7183 47.4128 53.6026C47.5182 53.487 47.5947 53.348 47.6362 53.1972C47.6776 53.0464 47.683 52.8879 47.6516 52.7347L41.5008 23.7382C41.4632 23.5559 41.4776 23.3666 41.5425 23.1921C41.6073 23.0175 41.7199 22.8646 41.8675 22.751C42.015 22.6374 42.1914 22.5675 42.3767 22.5494C42.5621 22.5313 42.7489 22.5657 42.9156 22.6487L69.4253 35.9342C69.5662 36.0057 69.7222 36.0426 69.8801 36.0417C70.0381 36.0408 70.1933 36.0021 70.3334 35.9291C70.4734 35.856 70.5941 35.7507 70.6852 35.6217C70.7764 35.4927 70.8354 35.3439 70.8575 35.1875L75.0664 5.83063C75.0955 5.64624 75.1756 5.47361 75.2976 5.3323C75.4196 5.19099 75.5785 5.08663 75.7567 5.03089C75.9349 4.97516 76.1251 4.97035 76.3059 5.01695C76.4866 5.06355 76.6507 5.15983 76.7798 5.29475L97.1213 26.875C97.2292 26.9899 97.3629 27.0777 97.5113 27.1307C97.6598 27.1837 97.8186 27.2004 97.9749 27.1798C98.1312 27.1592 98.2803 27.1017 98.41 27.0121C98.5396 26.9224 98.6462 26.8031 98.7206 26.6641L112.692 0.497196C112.782 0.340246 112.914 0.210981 113.072 0.123499C113.231 0.0360177 113.41 -0.0064475 113.591 0.00079281C113.772 0.00803312 113.948 0.0646008 114.099 0.164473C114.25 0.264345 114.371 0.40367 114.449 0.567344L126.214 27.8064C126.276 27.9512 126.372 28.0791 126.493 28.1797C126.614 28.2803 126.757 28.3507 126.911 28.385C127.064 28.4193 127.224 28.4168 127.376 28.3773C127.529 28.3378 127.67 28.2627 127.787 28.158L149.886 8.37893C150.025 8.25502 150.196 8.1725 150.379 8.14103C150.563 8.10955 150.751 8.13034 150.924 8.20088C151.096 8.27142 151.245 8.38893 151.353 8.54004C151.462 8.69114 151.526 8.86981 151.538 9.05553L153.251 38.667C153.258 38.8256 153.303 38.9802 153.382 39.1179C153.461 39.2557 153.572 39.3725 153.705 39.4586C153.838 39.5447 153.991 39.5975 154.149 39.6126C154.307 39.6278 154.466 39.6048 154.613 39.5457L182.134 28.5006C182.308 28.4325 182.498 28.4145 182.682 28.4487C182.865 28.4829 183.036 28.5679 183.174 28.6941C183.312 28.8203 183.412 28.9827 183.463 29.1628C183.514 29.343 183.513 29.5337 183.46 29.7133L174.981 58.1297C174.936 58.2804 174.928 58.4396 174.957 58.5941C174.986 58.7486 175.051 58.8941 175.148 59.0184C175.244 59.1428 175.368 59.2425 175.51 59.3096C175.652 59.3766 175.808 59.4088 175.965 59.4037L205.603 58.4285C205.789 58.4235 205.973 58.4707 206.133 58.5649C206.293 58.6592 206.424 58.7966 206.51 58.9614C206.596 59.1262 206.634 59.3119 206.62 59.4973C206.605 59.6827 206.539 59.8605 206.429 60.0102L188.715 83.7959C188.621 83.9225 188.558 84.0699 188.532 84.2256C188.506 84.3813 188.518 84.541 188.566 84.6913C188.614 84.8416 188.697 84.9782 188.809 85.0899C188.92 85.2016 189.057 85.2852 189.207 85.3336L217.377 94.5773C217.552 94.6311 217.708 94.7322 217.829 94.8691C217.95 95.006 218.031 95.1734 218.063 95.3532C218.094 95.5331 218.076 95.7182 218.009 95.8883C217.943 96.0583 217.83 96.2067 217.685 96.3171V96.3171Z" fill="#DFFF85"/>
</svg>
