<svg viewBox="0 0 618 618" fill="none" xmlns="http://www.w3.org/2000/svg">
<path d="M495.318 347.023L591.358 425.97L467.605 413.856L465.748 413.674L466.625 415.321L525.066 525.066L415.321 466.625L413.674 465.748L413.856 467.605L425.97 591.358L347.023 495.318L345.838 493.877L345.294 495.661L309.011 614.574L272.706 495.661L272.162 493.877L270.977 495.318L192.03 591.358L204.144 467.605L204.326 465.748L202.679 466.625L92.9336 525.066L151.375 415.321L152.252 413.674L150.395 413.856L26.6416 425.97L122.682 347.023L124.123 345.838L122.339 345.294L3.42565 309.011L122.339 272.706L124.123 272.162L122.682 270.977L26.6416 192.03L150.395 204.144L152.252 204.326L151.375 202.679L92.9337 92.9337L202.679 151.375L204.326 152.252L204.144 150.395L192.03 26.6416L270.977 122.682L272.162 124.123L272.706 122.339L309.011 3.42565L345.294 122.339L345.838 124.123L347.023 122.682L425.97 26.6416L413.856 150.395L413.674 152.252L415.321 151.375L525.066 92.9336L466.625 202.679L465.748 204.326L467.605 204.144L591.358 192.03L495.318 270.977L493.877 272.162L495.661 272.706L614.574 309.011L495.661 345.294L493.877 345.838L495.318 347.023Z" stroke="#DFFF85" stroke-width="2"/>
</svg>
