<svg width="100" height="100" viewBox="0 0 360 363" fill="none" xmlns="http://www.w3.org/2000/svg">
    <mask id="myMask">
        <path d="M359.352 158.999L318.447 185.964C318.232 186.108 318.053 186.301 317.926 186.527C317.799 186.754 317.728 187.007 317.718 187.266C317.709 187.525 317.76 187.782 317.869 188.017C317.978 188.253 318.141 188.459 318.346 188.619L356.857 218.833C357.105 219.023 357.293 219.279 357.4 219.572C357.507 219.865 357.528 220.182 357.461 220.487C357.394 220.792 357.242 221.071 357.022 221.291C356.801 221.512 356.523 221.666 356.219 221.734L308.584 233.005C308.33 233.064 308.094 233.183 307.895 233.352C307.697 233.521 307.541 233.735 307.442 233.976C307.343 234.218 307.302 234.479 307.324 234.738C307.346 234.998 307.43 235.249 307.568 235.47L333.388 277.071C333.553 277.332 333.64 277.634 333.64 277.943C333.639 278.252 333.551 278.553 333.385 278.813C333.219 279.074 332.983 279.281 332.703 279.412C332.424 279.543 332.112 279.591 331.806 279.551L283.171 273.88C282.911 273.848 282.648 273.879 282.404 273.97C282.159 274.061 281.939 274.21 281.763 274.403C281.587 274.596 281.46 274.828 281.392 275.08C281.324 275.332 281.317 275.598 281.372 275.853L291.526 323.72C291.584 324.022 291.557 324.334 291.447 324.621C291.338 324.908 291.151 325.159 290.907 325.345C290.663 325.532 290.372 325.648 290.066 325.678C289.76 325.709 289.452 325.653 289.176 325.518L245.414 303.586C245.182 303.468 244.926 303.407 244.666 303.408C244.406 303.41 244.15 303.474 243.92 303.595C243.689 303.716 243.492 303.889 243.343 304.103C243.194 304.316 243.098 304.562 243.064 304.819L236.102 353.266C236.059 353.572 235.93 353.86 235.731 354.096C235.533 354.332 235.271 354.507 234.977 354.601C234.683 354.695 234.368 354.704 234.07 354.627C233.771 354.55 233.5 354.39 233.288 354.166L199.693 318.541C199.517 318.351 199.298 318.207 199.054 318.119C198.81 318.031 198.548 318.003 198.291 318.038C198.034 318.072 197.789 318.167 197.576 318.315C197.363 318.463 197.189 318.66 197.068 318.89L174.005 362.086C173.851 362.34 173.632 362.548 173.37 362.688C173.108 362.828 172.813 362.895 172.516 362.882C172.219 362.868 171.931 362.776 171.683 362.612C171.434 362.449 171.234 362.222 171.104 361.955L151.682 316.989C151.576 316.754 151.416 316.546 151.215 316.384C151.014 316.221 150.778 316.107 150.526 316.052C150.273 315.997 150.011 316.003 149.761 316.067C149.511 316.132 149.28 316.253 149.085 316.423L112.605 349.075C112.374 349.28 112.091 349.416 111.787 349.467C111.483 349.519 111.171 349.483 110.886 349.365C110.601 349.246 110.356 349.051 110.177 348.799C109.999 348.548 109.895 348.251 109.878 347.943L106.977 299.075C106.962 298.815 106.887 298.561 106.755 298.336C106.624 298.11 106.441 297.919 106.222 297.777C106.003 297.636 105.753 297.549 105.494 297.522C105.234 297.496 104.972 297.531 104.728 297.625L59.2836 315.858C58.998 315.971 58.6867 316.002 58.3845 315.946C58.0824 315.891 57.8018 315.752 57.575 315.544C57.3481 315.337 57.184 315.07 57.1015 314.775C57.0189 314.479 57.021 314.166 57.1079 313.871L71.1055 266.961C71.1786 266.711 71.1916 266.448 71.1438 266.192C71.096 265.937 70.9887 265.696 70.8304 265.49C70.6721 265.283 70.4675 265.118 70.233 265.005C69.9985 264.893 69.7408 264.837 69.4808 264.843L20.555 266.468C20.2466 266.475 19.9423 266.397 19.6764 266.24C19.4105 266.084 19.1936 265.856 19.0503 265.583C18.9069 265.31 18.843 265.003 18.8654 264.695C18.8878 264.387 18.9957 264.092 19.1771 263.842L48.4338 224.591C48.5862 224.381 48.6871 224.138 48.7281 223.882C48.7692 223.626 48.7495 223.364 48.6704 223.117C48.5913 222.87 48.4552 222.644 48.273 222.459C48.0909 222.275 47.8678 222.135 47.6218 222.053L1.10371 206.779C0.816848 206.68 0.562949 206.503 0.370661 206.269C0.178373 206.034 0.0553648 205.75 0.0147606 205.449C-0.0258437 205.148 0.0176914 204.842 0.140831 204.565C0.26397 204.287 0.461732 204.05 0.712041 203.878L41.602 176.942C41.8177 176.798 41.9965 176.605 42.1232 176.379C42.2499 176.153 42.3208 175.9 42.3308 175.641C42.3407 175.382 42.2893 175.124 42.1802 174.889C42.0712 174.654 41.9077 174.447 41.7036 174.288L3.19236 144.074C2.94472 143.885 2.756 143.63 2.64807 143.338C2.54013 143.046 2.51748 142.729 2.58291 142.425C2.64833 142.12 2.79903 141.841 3.01742 141.619C3.23582 141.398 3.51272 141.243 3.81599 141.173L51.451 129.902C51.7049 129.843 51.9408 129.723 52.1394 129.554C52.338 129.385 52.4934 129.171 52.5927 128.93C52.692 128.689 52.7326 128.428 52.7106 128.168C52.6886 127.908 52.6047 127.657 52.4663 127.436L26.6616 85.8352C26.4984 85.5733 26.4125 85.2708 26.4137 84.9623C26.4149 84.6537 26.5031 84.3518 26.6683 84.0911C26.8335 83.8305 27.069 83.6215 27.3475 83.4887C27.6261 83.356 27.9363 83.3046 28.2428 83.3404L76.8786 89.0117C77.1353 89.0399 77.3948 89.0071 77.6364 88.9158C77.8779 88.8245 78.0946 88.6775 78.2685 88.4866C78.4424 88.2957 78.5687 88.0663 78.6372 87.8173C78.7057 87.5683 78.7145 87.3067 78.6627 87.0538L68.5091 39.1868C68.447 38.8857 68.4708 38.5733 68.5778 38.2852C68.6848 37.997 68.8707 37.7447 69.1143 37.5571C69.3578 37.3695 69.649 37.2541 69.955 37.2242C70.2609 37.1943 70.5693 37.2513 70.8446 37.3882L114.606 59.3198C114.839 59.4377 115.096 59.4987 115.357 59.4972C115.618 59.4957 115.874 59.4318 116.105 59.3113C116.337 59.1907 116.536 59.0168 116.686 58.8038C116.837 58.5908 116.934 58.3452 116.971 58.087L123.919 9.62513C123.967 9.32074 124.099 9.03576 124.3 8.80249C124.502 8.56921 124.764 8.39694 125.058 8.30494C125.352 8.21293 125.666 8.20499 125.965 8.28192C126.263 8.35885 126.534 8.51778 126.747 8.74051L160.327 44.3649C160.505 44.5546 160.725 44.6995 160.971 44.787C161.216 44.8745 161.478 44.9021 161.736 44.8681C161.994 44.8341 162.24 44.7392 162.454 44.5912C162.668 44.4431 162.844 44.2462 162.967 44.0168L186.03 0.820764C186.179 0.561673 186.396 0.348284 186.658 0.203871C186.92 0.0594576 187.217 -0.0106434 187.515 0.00130876C187.814 0.013261 188.104 0.106642 188.354 0.27151C188.603 0.436377 188.803 0.666374 188.931 0.936565L208.353 45.9025C208.455 46.1414 208.613 46.3526 208.813 46.5187C209.013 46.6848 209.249 46.8009 209.503 46.8576C209.756 46.9143 210.02 46.91 210.271 46.8448C210.523 46.7797 210.755 46.6556 210.95 46.4829L247.43 13.8318C247.659 13.6273 247.941 13.4911 248.244 13.4391C248.547 13.3871 248.858 13.4215 249.143 13.5379C249.427 13.6544 249.673 13.8483 249.852 14.0978C250.031 14.3472 250.137 14.6422 250.157 14.9488L252.985 63.831C252.997 64.0929 253.071 64.348 253.201 64.5754C253.331 64.8028 253.514 64.9957 253.734 65.1378C253.955 65.2798 254.206 65.367 254.467 65.392C254.728 65.417 254.991 65.3792 255.234 65.2815L300.664 47.0485C300.952 46.9359 301.265 46.9063 301.568 46.9628C301.872 47.0192 302.154 47.1595 302.382 47.3679C302.61 47.5762 302.775 47.8443 302.858 48.1417C302.942 48.439 302.94 48.7538 302.854 49.0504L288.857 95.9598C288.783 96.2086 288.77 96.4714 288.817 96.7264C288.865 96.9815 288.973 97.2216 289.131 97.4269C289.29 97.6323 289.495 97.7969 289.729 97.9075C289.964 98.0181 290.222 98.0713 290.481 98.0629L339.407 96.4531C339.714 96.4448 340.017 96.5228 340.282 96.6783C340.546 96.8338 340.762 97.0606 340.904 97.3327C341.046 97.6048 341.109 97.9113 341.085 98.2173C341.062 98.5234 340.953 98.8169 340.771 99.0641L311.528 138.329C311.373 138.538 311.269 138.782 311.227 139.039C311.184 139.296 311.203 139.559 311.282 139.807C311.362 140.056 311.499 140.281 311.683 140.465C311.867 140.65 312.093 140.788 312.341 140.868L358.844 156.127C359.132 156.216 359.39 156.383 359.59 156.609C359.789 156.835 359.922 157.111 359.975 157.408C360.027 157.705 359.997 158.01 359.887 158.291C359.777 158.572 359.592 158.817 359.352 158.999V158.999Z"
              fill="white"/>
    </mask>
</svg>
